<?xml version="1.0" encoding="UTF-8"?>
<svg id="Layer_1" xmlns="http://www.w3.org/2000/svg" viewBox="0 0 1062 159">
  <defs>
    <style>
      .cls-1 {
        fill: #fef6ee;
      }
    </style>
  </defs>
  <path class="cls-1" d="M152.64.26c0,.31-2.67.42-9,.42-4.97,0-11.35.15-14.16.38-2.86.19-8.68.42-12.94.46-6.85.12-7.83.19-8.77.85-.56.42-.94.88-.8,1.08.14.15-.52.31-1.41.31-1.17,0-1.59-.15-1.41-.5.19-.38-.61-.54-3.42-.58-2.02,0-3.33.08-2.95.19.38.15.98.46,1.31.77.7.54.61.58-6.94.54-4.17,0-4.17.15-.23.92,1.5.31,1.92.5,1.17.54-.66.04-1.64.38-2.2.77-1.17.81-1.41,1.39-.47,1.08.28-.08.98-.04,1.5.15.8.23.8.31.14.31-.47.04-.84.19-.84.42,0,.58,1.5.46,2.63-.15.7-.42,1.45-.46,3.24-.19,1.22.19,2.34.42,2.44.5.09.08-.89.35-2.16.62-1.45.27-2.39.65-2.39,1s-.61.54-1.74.58l-1.78.08,1.78.23c.98.12,1.78.35,1.74.5v.69c0,.19-.89.38-1.97.38-2.2,0-4.88.65-6.14,1.54-.47.31-1.31.58-1.88.62-.56.04-2.06.08-3.33.08-1.27.04-2.2.15-2.06.27.09.12,1.78.54,3.7.92l3.47.73-3.99.08c-5.58.04-9.8.35-11.63.85-.94.23-3.24.27-5.63.15-4.5-.27-6.61.19-3.8.85,1.41.35,1.03.42-2.63.5l-4.22.12,3.66.12c1.97.08,3.61.31,3.61.5s-1.97.42-4.31.5c-4.55.19-10.04.89-7.83,1,.7,0,1.36.27,1.5.54.61,1.27,12.52,2.89,22.42,3l3.94.08-2.81.46c-1.74.31-2.34.54-1.64.58,2.58.23-3.75.65-7.5.54-2.2-.04-3.47-.04-2.81.08.66.12,1.36.38,1.59.58.28.19,2.16.38,4.22.42l3.8.08-3.28.19-3.28.23,2.11.35c1.83.31,1.92.38.84.5-1.55.19-1.78.89-.28.89.75,0,.89.12.52.42-.38.31-.33.69.14,1.42.84,1.35.28,1.73-2.77,2-2.25.23-2.34.27-1.27.65,1.55.54,2.77,1.65,1.83,1.65-.38,0-.66.46-.7,1.12-.05.88.23,1.23,1.5,1.73,1.74.65,2.06,1.54.8,2.12-.47.19-2.63.54-4.83.73-2.2.23-4.41.58-4.92.73-1.92.65-3.99,1.85-3.99,2.31,0,.23-.28.54-.56.62-2.63.88,9.9,2.5,20.26,2.62,3.8.04,3.52.15-3.05,1.08-5.53.77-5.39.73-5.39,1.81,0,.73.33,1.08,1.41,1.35,1.36.42,1.92,1.12.89,1.12-.23,0-.38.15-.23.35.14.15,1.69.42,3.42.54,2.95.23,5.49.31,22.65.85,3.47.12,7.93.31,9.85.46l3.52.23-2.58.42c-2.16.35-2.58.58-2.81,1.39-.24.85-.7,1.04-3.28,1.46-2.81.46-4.69,1.27-4.69,2.08,0,.19.84,1.04,1.88,1.85,1.74,1.35,2.11,1.5,5.25,1.69,6.05.42,9.43.58,14.44.65,4.83.08,4.78.08-2.72.42-7.64.35-10.88.85-11.21,1.73-.14.27,1.03,1.04,2.53,1.73l2.72,1.27-2.2.35c-1.27.19-2.25.5-2.25.65,0,.19-.28.23-.66.12-.47-.15-.75.12-.84.88-.09.81-.42,1.12-1.31,1.19-3.38.38-1.27,1.58,2.49,1.39,1.55-.08,2.2.04,2.2.42,0,.27.47.58,1.08.73,1.78.38,13.6.96,29.17,1.39,29.22.77,30.06.85,30.62,2.19.14.38-1.97.5-9.38.5-5.21,0-11.4.15-13.74.38-2.3.19-6.33.54-8.91.77-4.22.35-6.94.62-15.71,1.54-1.41.15-2.34.31-2.02.35.28,0,.42.38.28.77-.14.54.09.81.89,1,.56.15,1.41.5,1.78.81.42.31,2.63.62,5.63.77,5.07.27,6.71.54,3.47.54-8.16.08-15.19,1-15.19,2,0,.15,1.13.77,2.49,1.31,1.31.58,2.63,1.27,2.81,1.54.23.35,1.31.54,3.05.58,1.45,0,3.75.15,5.02.35,2.16.27,1.97.27-1.88.35-5.91.12-9.71.38-14.07,1-2.06.31-4.6.65-5.63.77-1.92.27-3.05.77-3.05,1.39,0,.19.28.35.66.35s1.55.35,2.67.77c2.02.73,2.02.77.66.77q-1.41.04.38.54c2.11.65,6.1.92,16.51,1.19,4.41.12,8.91.31,10.08.39,1.17.08,7.08.27,13.13.39,12.29.23,21.81.65,20.4.85-.52.12-1.64.42-2.53.77-.85.31-2.96.65-4.69.73-1.69.08-5.21.23-7.79.35-2.58.11-7.55.31-11.02.42-7.93.27-12.71.81-13.6,1.5-.61.5-.47.65.84,1.04.94.31,1.64.85,1.78,1.35.23.65.75.92,2.02,1.08.94.15,2.96.46,4.5.77,1.55.27,6.8.62,11.63.69,4.88.11,8.91.27,9.05.35.09.08-13.27.19-29.73.19-22.37.04-32.45.19-40.19.65-5.67.35-10.88.73-11.54.85-1.36.27-2.58,2.27-1.83,3.08.38.31.23.54-.33.73-.8.23-.8.27-.05.62.61.27,12.62,1.12,14.91,1.04.75-.04,15.9.35,26.73.65,13.51.42,16.56.61,17.77,1.12.66.27,1.78.61,2.53.77.7.12,1.27.5,1.27.77,0,.65,1.41.96,4.46,1.04l2.35.04-2.11.31c-8.16,1.19-14.07,1.69-30.95,2.62-3.52.19-4.88.42-4.83.77.09.23-.33.46-.94.46-1.41.04-9.33.73-12.52,1.12-1.83.23-2.16.35-1.03.39,2.34.08,1.78.69-.94.96-1.31.15-2.95.5-3.61.81-.7.27-2.3.62-3.56.81-1.31.15-2.58.54-2.86.85-.38.42-1.74.69-4.22.89-2.63.15-3.38.31-2.63.54.7.19.98.5.8.92-.42,1.15,2.67,1.65,12.85,2.12,9.47.42,9.61.46,7.32.96-1.27.31-2.53.69-2.77.85-.28.19-1.69.35-3.14.35-2.86,0-4.17.27-4.17.81,0,.19.42.35.94.35s.94.15.94.35c0,.69-11.87,1.15-31.19,1.23-9.85,0-13.08.15-14.54.58-1.03.31-4.92.73-8.68.96-3.75.19-8.35.62-10.22.92-7.36,1.23-10.36,1.69-14.4,2.12-2.3.23-4.69.69-5.3,1-.98.54-.98.62-.33,1.46.61.73,1.31.96,3.61,1.15,1.55.15,3.61.54,4.55.81,2.25.73,7.13,1.35,10.69,1.35,1.88,0,3.14.19,3.56.58.38.31,2.34.73,4.36.96,3.75.39,31.14,1.31,52.48,1.69,6.47.15,13.41.31,15.48.42,2.06.08,9.66.27,16.88.38,7.22.12,16.32.27,20.17.38,3.89.12,12.33.27,18.76.39,6.47.11,15.34.31,19.7.38,4.41.12,13.98.27,21.34.38,7.36.12,17.49.27,22.51.38,5.02.12,15.57.27,23.45.39,7.88.11,19.7.27,26.26.38,6.57.12,25.7.31,42.44.42,16.79.15,45.16.38,63.08.54,34.47.31,304.22.19,351.97-.15,15.48-.12,53.28-.31,83.95-.42,53.09-.23,68.33-.46,69.74-1.19.33-.19,8.3-.46,17.73-.58,16.79-.27,21.67-.58,27.58-1.77,3.14-.65,3.75-1.12,2.95-2.35-.42-.61-1.17-.85-3.66-1.04-1.78-.12-3.52-.38-3.89-.58-1.64-.85-3.85-1.5-5.96-1.77-1.22-.12-2.67-.42-3.14-.62-.47-.23-2.25-.54-3.94-.69-1.69-.19-3.19-.5-3.38-.77-.19-.23-1.78-.58-3.57-.77-1.78-.19-4.08-.5-5.11-.73-4.5-.96-11.54-1.96-15.24-2.15-2.2-.12-6.71-.38-10.08-.58-3.33-.23-8.72-.5-11.96-.61-5.58-.23-10.5-.89-8.86-1.19.98-.19,1.55-1.73.75-2.12-.28-.15-2.39-.38-4.64-.54-3.05-.19-4.13-.38-4.13-.77,0-.35.56-.54,1.55-.54,2.2-.04,4.97-.35,7.22-.81,2.11-.46,3.85-1.62,3-2.08-.28-.11-.52-.58-.52-.96,0-.54.66-.89,2.72-1.35,1.45-.35,2.86-.88,3.05-1.19.28-.42,1.78-.54,6.8-.54,9.57,0,17.96-1.35,18.1-2.89.05-.73-3.8-2.08-8.25-2.89-2.48-.46-7.64-1.04-11.44-1.31-3.84-.27-6.19-.54-5.2-.58,3.66-.08,8.49-1.35,8.16-2.12-.09-.19-.89-.58-1.78-.85l-1.6-.46,2.02-.27c3.75-.54,1.45-1.54-2.53-1.08-1.59.15-2.11.12-1.88-.19.23-.31-.14-.46-1.08-.46-.75,0-1.88-.15-2.49-.35-1.22-.39-8.07-.81-15.38-1-2.72-.08-7.88-.31-11.49-.54-6.85-.46-12.43-.81-12.99-.81-.23,0-.38-.15-.38-.35s1.41-.46,3.19-.58c3.52-.31,6.19-.89,6.19-1.39,0-.19-.7-.46-1.5-.61-1.5-.31-1.45-.31,1.27-.73l2.81-.46-2.11-.27c-1.17-.15-4.69-.19-7.83-.15-3.19.08-5.77,0-5.77-.15,0-.19.75-.31,1.64-.31,2.72,0,11.07-1.12,14.07-1.88,1.55-.39,3.52-.89,4.36-1.04,1.88-.42,2.06-.96.52-1.58-.61-.23-1.92-.73-2.86-1.11-.99-.39-1.78-.85-1.78-.96,0-.39,1.64-.65,5.39-.96,1.83-.12,4.36-.5,5.63-.81,1.31-.27,4.69-.62,7.5-.69,9.19-.31,13.98-.62,17.87-1.15,4.36-.65,9.8-2.12,9.76-2.69,0-.23-.94-.69-2.11-1.04-1.12-.35-1.88-.65-1.59-.65.28-.04.28-.15,0-.38-.28-.23-2.53-.42-5.02-.46-2.53-.04-4.6-.23-4.6-.35,0-.15.98-.5,2.25-.77,5.86-1.23,6.28-1.46,4.92-2.69-1.88-1.65-4.45-2-17.26-2.39-11.3-.35-19.65-.27-35.27.31-3.42.15-6.24.15-6.24.04,0-.15.85-.42,1.88-.65,1.97-.42,2.21-.81,1.45-2.42-.61-1.31-1.73-1.54-8.96-1.77l-6.33-.23,5.53-1.12c3-.62,5.49-1.23,5.49-1.35,0-.15-.56-.54-1.27-.89l-1.31-.65,2.34-.04c5.96,0,21.2-2,23.68-3.08,1.41-.62,1.13-1.23-1.12-2.42-3.19-1.62-6-1.92-18.67-1.96-6.33-.04-11.72-.15-11.91-.35-.19-.15.23-.27.89-.27.7,0,1.27-.19,1.27-.38,0-.23.33-.38.7-.38s.7-.19.7-.38c0-.23-.47-.38-1.03-.38-1.22,0-2.34-.5-2.25-1,.05-.15-.33-.42-.8-.58-.7-.19-.56-.31.56-.5,3.57-.65,4.92-1.15,4.92-1.77,0-.73-1.41-1.92-2.25-1.92-.33,0-.56-.19-.56-.38,0-.23.89-.38,2.02-.38,2.53,0,11.16-1.31,14.07-2.12,1.59-.46,2.2-.85,2.2-1.39,0-.38-.33-.73-.7-.73-.42,0-.84-.23-.98-.54-.38-.77-5.07-1.35-14.4-1.77-9-.38-11.86-.73-10.41-1.19.52-.15-1.69-.19-4.92-.12-9.76.27-21.1.12-22.42-.27-.7-.23-1.78-.81-2.44-1.31-1.17-.88-4.27-1.58-8.3-1.85-1.97-.12-3.42-.65-1.88-.65.42,0,.8-.15.8-.38,0-.19.84-.58,1.92-.81,1.45-.38,1.83-.65,1.69-1.19-.33-.92.47-1,13.74-1.31,17.68-.46,21.15-.42,24.29.12,1.74.31,4.97.5,7.97.42l5.02-.12-4.22-.5c-5.02-.62-6.99-1.15-4.41-1.19,1.83-.04,6.28-1.35,8.82-2.65.56-.27-3.1-2.39-4.17-2.39-.66,0-1.41-.15-1.69-.38-.56-.46-4.17-.69-15.9-.96-20.64-.46-28.61-.65-28.75-.77-.33-.23,2.67-1.35,3.61-1.35.66,0,.89.19.66.62-.23.5,0,.54,1.55.31,4.64-.65,2.67-1.15-6.19-1.54-3.85-.15-6.57-.35-6.05-.42,2.06-.31,7.64-1.77,9.61-2.54,2.02-.73,2.06-.81.94-1.04-.66-.15-5.58-.23-11.02-.23-7.27.04-10.46-.08-12.19-.5l-2.34-.54,3-.5c3.14-.54,4.13-.96,3.61-1.62-.52-.69-3.42-.89-14.63-.89-6.57-.04-10.83-.19-10.46-.38s1.08-.35,1.59-.38h.94l-.94-.35c-.94-.35-.33-.58,1.08-.42.28.04.56-.12.56-.38,0-.31.75-.38,2.34-.27,3,.23,3.1-.35.14-.65-3.19-.35-3.52-.5-1.08-.54,2.91,0,6.61.54,6.99,1.04.28.42,9.43.81,9.43.42,0-.62,1.5-.62,4.41-.08,1.74.31,3.52.42,3.94.27.61-.23.42-.35-.84-.54-1.41-.23-1.45-.31-.38-.35,1.13-.04,2.44-.81,1.41-.81-.28,0-.42-.42-.38-.92.05-.85.28-.96,1.83-.92.98,0,1.92-.12,2.11-.27.19-.12-1.17-.23-2.95-.23h-4.46c-3.28-.12-13.13.23-13.13.46,0,.12-1.83-.04-4.08-.31-2.3-.31-5.58-.69-7.41-.85l-3.28-.27,2.72-.31c3.14-.38,3.99-1,1.41-1.04-3.24-.08-4.83-.23-5.16-.5-.14-.12.52-.23,1.55-.27.98-.04,2.34-.19,3-.35.75-.19-.75-.31-4.13-.35-3.42-.04-5.21-.19-5.02-.42.14-.23.8-.38,1.45-.38.61,0,1.08-.19,1.03-.46-.09-.27.52-.58,1.27-.73,1.31-.23,1.36-.27.23-.35-.84-.08-.94-.15-.33-.27.42-.08.8-.35.8-.58s1.08-.31,2.72-.23c1.97.08,2.77-.04,2.77-.38,0-.23-.33-.46-.75-.5-.42,0-.14-.19.66-.38.85-.19,2.63-.15,4.55.08,1.74.23,3.56.31,3.99.23.47-.12.05-.19-.94-.23-1.03-.04-1.69-.19-1.5-.42.19-.23,1.88-.27,4.5-.12,2.81.15,4.17.12,4.17-.19,0-.38-4.6-.85-4.83-.42-.05.12-1.97.08-4.32-.12-2.63-.19-4.78-.15-5.63.08-.8.23-3.94.31-7.03.23-3.09-.12-7.41-.04-9.61.12-2.2.15-4.74.15-5.63,0s-3.33-.38-5.39-.5c-3.61-.19-3.7-.19-1.88.35,1.03.27,2.53.54,3.38.54,1.78.04,2.44.65,1.08,1-.52.15-.84.42-.7.62.19.19-.14.35-.61.35-1.17,0-1.73-1.04-.66-1.27,1.64-.27-6.05-.73-8.4-.46-1.73.19-2.35.15-2.11-.15.19-.23.09-.42-.19-.42s-.42-.15-.28-.35c.42-.54-5.67-.88-7.74-.42-1.41.31-2.06.31-2.53,0-.38-.23-1.22-.58-1.97-.77-1.27-.31-1.22-.31.52-.35,2.35-.04,2.06-.27-.66-.62-2.58-.31-2.81-.46-1.22-.81,1.27-.23,1.69-.92.56-.92-.33,0-1.78-.5-3.24-1.15-1.45-.62-3.47-1.23-4.5-1.39-1.08-.15-1.92-.42-1.92-.62,0-.23.33-.31.7-.15.38.12,1.83.04,3.19-.19,1.31-.23,4.22-.42,6.42-.46h3.99l-3-.38c-2.34-.31-4.36-.27-8.91.27-3.28.35-6.85.62-8.02.58q-2.11-.04-.56-.38c2.06-.5,1.88-.69-.38-.46-1.55.19-1.88.12-1.88-.42,0-.46-.47-.62-1.74-.62-1.17,0-1.55-.12-1.12-.35,1.17-.62-.38-.88-3.14-.62-2.11.23-2.49.35-1.74.62.61.23.19.27-1.17.12-2.11-.23-3.75-.92-2.2-.92.42,0,.8-.19.8-.38,0-.23-.09-.38-.19-.38s-1.27-.19-2.63-.38c-1.73-.27-2.67-.27-3.09.04-.38.27-4.36.35-11.77.27-6.14-.08-13.37.04-16.09.23-8.16.58-24.34.54-26.22-.08-.99-.31-2.39-.42-3.66-.31-1.12.12-2.95.35-4.13.46-1.36.15-2.39.08-2.81-.23-.38-.23-1.03-.35-1.5-.23-.47.12-6.75.27-13.97.38-7.22.12-16.51.35-20.64.46-8.96.31-62.42.35-63.78.04-.52-.12-2.06-.23-3.42-.23-1.36-.04-2.39-.19-2.25-.38.42-.58-2.91-.77-5.96-.38-1.6.23-4.41.31-6.24.15-1.83-.15-4.17-.12-5.16.04l-1.83.31,1.88.42,1.88.46-2.86.23c-1.55.12-3.42.08-4.22-.08l-1.36-.35,1.31-.04c.7-.04,1.27-.19,1.27-.38,0-.42-7.27-.88-9.38-.58-1.22.15-1.45.12-.94-.19.56-.31.33-.42-.99-.42-.89,0-2.86-.19-4.36-.42-1.97-.27-2.91-.27-3.24,0-.28.23-1.03.42-1.64.42s-.94.15-.8.38c.19.23.52.27.8.15.33-.19.38-.08.14.23-.24.35-.89.38-2.3.15-1.03-.15-3.8-.27-6.05-.23-2.44.04-5.3-.15-6.8-.46-2.11-.46-6.8-.58-22.84-.58-11.07,0-23.54,0-27.67-.04-4.13,0-8.25.15-9.14.38-.89.19-2.25.38-3.05.35q-1.41-.04-.23-.38c.89-.23.66-.27-.94-.15-1.17.08-2.91.27-3.89.42-.94.12-2.02.08-2.35-.15-.33-.19-3.85-.35-8.54-.27-13.27.12-13.37.12-13.69.81-.14.35,0,.77.38.92.52.27-2.58.27-11.77-.08-.89-.04-2.49-.04-3.52.04-2.72.12-17.16-.65-17.54-.96-.14-.12,1.41-.12,3.47,0,3,.19,3.47.15,2.35-.19-2.11-.62-5.82-.85-6.47-.42-.28.19-1.41.5-2.44.65-2.49.42-13.65.27-18.1-.19-1.97-.23-9.33-.46-16.41-.5-7.08-.08-11.68,0-10.27.15,1.83.19,1.27.23-1.88.12-6.19-.19-32.03-.54-56.04-.69-11.07-.08-20.64-.27-21.2-.42-.7-.19-1.08-.12-1.08.15ZM333.38,2.61c1.27.23,3.57.27,5.25.15,2.72-.23,3-.19,2.72.38-.28.62-1.08.65-9.05.42-10.88-.31-12.66-.42-13.04-.73-.14-.12.94-.23,2.49-.27,1.5,0,3.71-.15,4.88-.31,2.39-.31,3.61-.23,6.75.35ZM449.5,2.53c0,.19-.33.35-.7.35s-.56-.15-.42-.35c.14-.15.42-.31.7-.31.23,0,.42.15.42.31ZM678.83,14.54c-.38.19-1.22.38-1.88.38-.94,0-1.03-.08-.47-.38.38-.19,1.22-.38,1.88-.38.94,0,1.03.08.47.38ZM687.04,15.3c.14.19-.05.38-.47.38s-.61-.19-.47-.38c.14-.23.38-.38.47-.38s.33.15.47.38ZM704.86,18.38c.19.23-.33.38-1.27.35-1.27,0-1.41-.08-.61-.35,1.27-.46,1.55-.46,1.88,0ZM131.21,93.3c-.33.08-.89.08-1.17,0-.33-.12-.09-.19.56-.19s.89.08.61.19Z"/>
  <path class="cls-1" d="M431.72.26c0,.31-2.18.42-7.36.42-4.06,0-9.27.15-11.57.38-2.34.19-7.09.42-10.58.46-5.6.12-6.4.19-7.17.85-.46.42-.77.88-.65,1.08.12.15-.42.31-1.15.31-.96,0-1.3-.15-1.15-.5.15-.38-.5-.54-2.8-.58-1.65,0-2.72.08-2.41.19.31.15.8.46,1.07.77.58.54.5.58-5.67.54-3.41,0-3.41.15-.19.92,1.23.31,1.57.5.96.54-.54.04-1.34.38-1.8.77-.96.81-1.15,1.39-.38,1.08.23-.08.8-.04,1.23.15.65.23.65.31.12.31-.38.04-.69.19-.69.42,0,.58,1.23.46,2.15-.15.57-.42,1.19-.46,2.64-.19,1,.19,1.92.42,1.99.5.08.08-.73.35-1.76.62-1.19.27-1.95.65-1.95,1s-.5.54-1.42.58l-1.46.08,1.46.23c.81.12,1.46.35,1.42.5v.69c0,.19-.73.38-1.61.38-1.8,0-3.99.65-5.02,1.54-.38.31-1.07.58-1.53.62-.46.04-1.69.08-2.72.08-1.04.04-1.8.15-1.69.27.08.12,1.46.54,3.03.92l2.84.73-3.26.08c-4.56.04-8.01.35-9.5.85-.77.23-2.64.27-4.6.15-3.68-.27-5.4.19-3.1.85,1.15.35.84.42-2.15.5l-3.45.12,2.99.12c1.61.08,2.95.31,2.95.5s-1.61.42-3.53.5c-3.72.19-8.2.89-6.4,1,.58,0,1.11.27,1.23.54.5,1.27,10.23,2.89,18.32,3l3.22.08-2.3.46c-1.42.31-1.92.54-1.34.58,2.11.23-3.07.65-6.13.54-1.8-.04-2.83-.04-2.3.08.54.12,1.11.38,1.3.58.23.19,1.76.38,3.45.42l3.1.08-2.68.19-2.68.23,1.72.35c1.49.31,1.57.38.69.5-1.27.19-1.46.89-.23.89.61,0,.73.12.42.42-.31.31-.27.69.12,1.42.69,1.35.23,1.73-2.26,2-1.84.23-1.92.27-1.04.65,1.27.54,2.26,1.65,1.49,1.65-.31,0-.54.46-.57,1.12-.04.88.19,1.23,1.23,1.73,1.42.65,1.69,1.54.65,2.12-.38.19-2.14.54-3.95.73-1.8.23-3.6.58-4.02.73-1.57.65-3.26,1.85-3.26,2.31,0,.23-.23.54-.46.62-2.15.88,8.08,2.5,16.55,2.62,3.1.04,2.87.15-2.49,1.08-4.52.77-4.41.73-4.41,1.81,0,.73.27,1.08,1.15,1.35,1.11.42,1.57,1.12.73,1.12-.19,0-.31.15-.19.35.12.15,1.38.42,2.8.54,2.41.23,4.48.31,18.51.85,2.84.12,6.48.31,8.05.46l2.87.23-2.11.42c-1.76.35-2.11.58-2.3,1.39-.19.85-.58,1.04-2.68,1.46-2.3.46-3.83,1.27-3.83,2.08,0,.19.69,1.04,1.53,1.85,1.42,1.35,1.73,1.5,4.29,1.69,4.94.42,7.7.58,11.8.65,3.95.08,3.91.08-2.22.42-6.25.35-8.89.85-9.16,1.73-.11.27.84,1.04,2.07,1.73l2.22,1.27-1.8.35c-1.03.19-1.84.5-1.84.65,0,.19-.23.23-.54.12-.38-.15-.61.12-.69.88-.08.81-.35,1.12-1.07,1.19-2.76.38-1.03,1.58,2.03,1.39,1.26-.08,1.8.04,1.8.42,0,.27.38.58.88.73,1.46.38,11.11.96,23.83,1.39,23.87.77,24.56.85,25.02,2.19.11.38-1.61.5-7.66.5-4.25,0-9.31.15-11.23.38-1.88.19-5.17.54-7.28.77-3.45.35-5.67.62-12.84,1.54-1.15.15-1.92.31-1.65.35.23,0,.35.38.23.77-.11.54.08.81.73,1,.46.15,1.15.5,1.46.81.35.31,2.15.62,4.6.77,4.14.27,5.48.54,2.84.54-6.67.08-12.42,1-12.42,2,0,.15.92.77,2.03,1.31,1.07.58,2.15,1.27,2.3,1.54.19.35,1.07.54,2.49.58,1.19,0,3.07.15,4.1.35,1.76.27,1.61.27-1.53.35-4.83.12-7.93.38-11.5,1-1.69.31-3.76.65-4.6.77-1.57.27-2.49.77-2.49,1.39,0,.19.23.35.54.35s1.27.35,2.18.77c1.65.73,1.65.77.54.77q-1.15.04.31.54c1.73.65,4.98.92,13.49,1.19,3.6.12,7.28.31,8.24.39.96.08,5.79.27,10.73.39,10.04.23,17.82.65,16.67.85-.42.12-1.34.42-2.07.77-.69.31-2.41.65-3.83.73-1.38.08-4.25.23-6.36.35-2.11.11-6.17.31-9.01.42-6.48.27-10.39.81-11.11,1.5-.5.5-.38.65.69,1.04.77.31,1.34.85,1.46,1.35.19.65.61.92,1.65,1.08.77.15,2.41.46,3.68.77,1.27.27,5.56.62,9.5.69,3.98.11,7.28.27,7.4.35.08.08-10.85.19-24.3.19-18.28.04-26.52.19-32.84.65-4.64.35-8.89.73-9.43.85-1.11.27-2.11,2.27-1.49,3.08.31.31.19.54-.27.73-.65.23-.65.27-.04.62.5.27,10.31,1.12,12.18,1.04.61-.04,12.99.35,21.84.65,11.04.42,13.53.61,14.52,1.12.54.27,1.46.61,2.07.77.58.12,1.04.5,1.04.77,0,.65,1.15.96,3.64,1.04l1.92.04-1.72.31c-6.67,1.19-11.5,1.69-25.29,2.62-2.87.19-3.98.42-3.95.77.08.23-.27.46-.77.46-1.15.04-7.63.73-10.23,1.12-1.49.23-1.76.35-.84.39,1.92.08,1.46.69-.77.96-1.07.15-2.42.5-2.95.81-.58.27-1.88.62-2.91.81-1.07.15-2.11.54-2.34.85-.31.42-1.42.69-3.45.89-2.15.15-2.76.31-2.15.54.57.19.8.5.65.92-.35,1.15,2.18,1.65,10.5,2.12,7.74.42,7.86.46,5.98.96-1.03.31-2.07.69-2.26.85-.23.19-1.38.35-2.57.35-2.34,0-3.41.27-3.41.81,0,.19.35.35.77.35s.77.15.77.35c0,.69-9.69,1.15-25.48,1.23-8.05,0-10.69.15-11.88.58-.84.31-4.02.73-7.09.96-3.07.19-6.82.62-8.35.92-6.02,1.23-8.47,1.69-11.77,2.12-1.88.23-3.83.69-4.33,1-.8.54-.8.62-.27,1.46.5.73,1.07.96,2.95,1.15,1.26.15,2.95.54,3.72.81,1.84.73,5.82,1.35,8.74,1.35,1.53,0,2.57.19,2.91.58.31.31,1.92.73,3.56.96,3.07.39,25.44,1.31,42.88,1.69,5.29.15,10.96.31,12.64.42,1.69.08,7.89.27,13.8.38,5.9.12,13.34.27,16.48.38,3.18.12,10.08.27,15.33.39,5.29.11,12.53.31,16.09.38,3.6.12,11.42.27,17.44.38,6.02.12,14.29.27,18.39.38,4.1.12,12.72.27,19.16.39,6.44.11,16.09.27,21.46.38,5.36.12,21,.31,34.68.42,13.72.15,36.9.38,51.54.54,28.17.31,248.58.19,287.59-.15,12.65-.12,43.53-.31,68.59-.42,43.38-.23,55.83-.46,56.98-1.19.27-.19,6.78-.46,14.48-.58,13.72-.27,17.71-.58,22.54-1.77,2.56-.65,3.06-1.12,2.41-2.35-.34-.61-.96-.85-2.99-1.04-1.45-.12-2.87-.38-3.18-.58-1.34-.85-3.14-1.5-4.86-1.77-1-.12-2.19-.42-2.57-.62-.39-.23-1.84-.54-3.22-.69-1.38-.19-2.61-.5-2.76-.77-.15-.23-1.46-.58-2.91-.77-1.46-.19-3.34-.5-4.18-.73-3.68-.96-9.43-1.96-12.45-2.15-1.8-.12-5.48-.38-8.24-.58-2.72-.23-7.13-.5-9.77-.61-4.56-.23-8.59-.89-7.25-1.19.8-.19,1.26-1.73.61-2.12-.23-.15-1.96-.38-3.79-.54-2.49-.19-3.37-.38-3.37-.77,0-.35.46-.54,1.26-.54,1.8-.04,4.06-.35,5.9-.81,1.72-.46,3.14-1.62,2.45-2.08-.23-.11-.42-.58-.42-.96,0-.54.53-.89,2.22-1.35,1.19-.35,2.34-.88,2.49-1.19.23-.42,1.46-.54,5.56-.54,7.81,0,14.67-1.35,14.79-2.89.04-.73-3.1-2.08-6.75-2.89-2.03-.46-6.24-1.04-9.35-1.31-3.14-.27-5.05-.54-4.25-.58,2.99-.08,6.94-1.35,6.67-2.12-.08-.19-.73-.58-1.46-.85l-1.3-.46,1.65-.27c3.06-.54,1.19-1.54-2.07-1.08-1.3.15-1.73.12-1.53-.19.19-.31-.12-.46-.89-.46-.61,0-1.53-.15-2.03-.35-.99-.39-6.59-.81-12.57-1-2.22-.08-6.44-.31-9.39-.54-5.6-.46-10.16-.81-10.62-.81-.19,0-.31-.15-.31-.35s1.15-.46,2.61-.58c2.87-.31,5.06-.89,5.06-1.39,0-.19-.57-.46-1.23-.61-1.23-.31-1.19-.31,1.03-.73l2.3-.46-1.72-.27c-.96-.15-3.83-.19-6.4-.15-2.61.08-4.71,0-4.71-.15,0-.19.61-.31,1.34-.31,2.22,0,9.04-1.12,11.5-1.88,1.27-.39,2.87-.89,3.56-1.04,1.53-.42,1.69-.96.42-1.58-.5-.23-1.57-.73-2.34-1.11-.8-.39-1.46-.85-1.46-.96,0-.39,1.34-.65,4.41-.96,1.49-.12,3.56-.5,4.6-.81,1.07-.27,3.83-.62,6.13-.69,7.51-.31,11.42-.62,14.6-1.15,3.57-.65,8.01-2.12,7.97-2.69,0-.23-.76-.69-1.72-1.04-.92-.35-1.53-.65-1.3-.65.23-.04.23-.15,0-.38-.23-.23-2.07-.42-4.1-.46-2.07-.04-3.76-.23-3.76-.35,0-.15.81-.5,1.84-.77,4.79-1.23,5.14-1.46,4.02-2.69-1.53-1.65-3.64-2-14.1-2.39-9.23-.35-16.06-.27-28.82.31-2.8.15-5.1.15-5.1.04,0-.15.69-.42,1.53-.65,1.61-.42,1.8-.81,1.19-2.42-.5-1.31-1.42-1.54-7.32-1.77l-5.17-.23,4.52-1.12c2.45-.62,4.48-1.23,4.48-1.35,0-.15-.46-.54-1.03-.89l-1.07-.65,1.92-.04c4.87,0,17.32-2,19.35-3.08,1.15-.62.92-1.23-.92-2.42-2.61-1.62-4.91-1.92-15.25-1.96-5.17-.04-9.58-.15-9.73-.35-.15-.15.19-.27.73-.27.58,0,1.03-.19,1.03-.38,0-.23.27-.38.57-.38s.58-.19.58-.38c0-.23-.38-.38-.84-.38-1,0-1.92-.5-1.84-1,.04-.15-.27-.42-.65-.58-.57-.19-.46-.31.46-.5,2.91-.65,4.02-1.15,4.02-1.77,0-.73-1.15-1.92-1.84-1.92-.27,0-.46-.19-.46-.38,0-.23.73-.38,1.65-.38,2.07,0,9.12-1.31,11.5-2.12,1.3-.46,1.8-.85,1.8-1.39,0-.38-.27-.73-.57-.73-.35,0-.69-.23-.81-.54-.31-.77-4.14-1.35-11.76-1.77-7.36-.38-9.7-.73-8.51-1.19.42-.15-1.38-.19-4.02-.12-7.97.27-17.24.12-18.32-.27-.57-.23-1.46-.81-1.99-1.31-.96-.88-3.49-1.58-6.78-1.85-1.61-.12-2.8-.65-1.53-.65.35,0,.65-.15.65-.38,0-.19.69-.58,1.57-.81,1.19-.38,1.49-.65,1.38-1.19-.27-.92.38-1,11.23-1.31,14.45-.46,17.28-.42,19.85.12,1.42.31,4.06.5,6.51.42l4.1-.12-3.45-.5c-4.1-.62-5.71-1.15-3.6-1.19,1.5-.04,5.14-1.35,7.21-2.65.46-.27-2.53-2.39-3.41-2.39-.54,0-1.15-.15-1.38-.38-.46-.46-3.41-.69-12.99-.96-16.86-.46-23.38-.65-23.49-.77-.27-.23,2.18-1.35,2.95-1.35.54,0,.73.19.54.62-.19.5,0,.54,1.27.31,3.79-.65,2.18-1.15-5.06-1.54-3.14-.15-5.36-.35-4.94-.42,1.69-.31,6.25-1.77,7.86-2.54,1.65-.73,1.69-.81.77-1.04-.54-.15-4.56-.23-9.01-.23-5.94.04-8.54-.08-9.96-.5l-1.92-.54,2.45-.5c2.57-.54,3.37-.96,2.95-1.62-.42-.69-2.8-.89-11.96-.89-5.36-.04-8.85-.19-8.54-.38.31-.19.88-.35,1.3-.38h.77l-.77-.35c-.77-.35-.27-.58.88-.42.23.04.46-.12.46-.38,0-.31.61-.38,1.92-.27,2.45.23,2.53-.35.11-.65-2.61-.35-2.87-.5-.88-.54,2.38,0,5.4.54,5.71,1.04.23.42,7.7.81,7.7.42,0-.62,1.23-.62,3.6-.08,1.42.31,2.87.42,3.22.27.5-.23.34-.35-.69-.54-1.15-.23-1.19-.31-.31-.35.92-.04,1.99-.81,1.15-.81-.23,0-.35-.42-.31-.92.04-.85.23-.96,1.49-.92.8,0,1.57-.12,1.72-.27.15-.12-.96-.23-2.41-.23h-3.64c-2.68-.12-10.73.23-10.73.46,0,.12-1.49-.04-3.33-.31-1.88-.31-4.56-.69-6.05-.85l-2.68-.27,2.22-.31c2.57-.38,3.26-1,1.15-1.04-2.64-.08-3.95-.23-4.22-.5-.11-.12.42-.23,1.26-.27.8-.04,1.92-.19,2.45-.35.61-.19-.61-.31-3.37-.35-2.8-.04-4.25-.19-4.1-.42.11-.23.65-.38,1.19-.38.5,0,.88-.19.84-.46-.08-.27.42-.58,1.03-.73,1.07-.23,1.11-.27.19-.35-.69-.08-.77-.15-.27-.27.34-.08.65-.35.65-.58s.88-.31,2.22-.23c1.61.08,2.26-.04,2.26-.38,0-.23-.27-.46-.61-.5-.34,0-.11-.19.54-.38.69-.19,2.15-.15,3.72.08,1.42.23,2.91.31,3.26.23.38-.12.04-.19-.77-.23-.84-.04-1.38-.19-1.23-.42.15-.23,1.53-.27,3.68-.12,2.3.15,3.41.12,3.41-.19,0-.38-3.76-.85-3.95-.42-.04.12-1.61.08-3.53-.12-2.15-.19-3.91-.15-4.6.08-.65.23-3.22.31-5.75.23-2.53-.12-6.05-.04-7.86.12-1.8.15-3.87.15-4.6,0-.73-.15-2.72-.38-4.41-.5-2.95-.19-3.03-.19-1.53.35.84.27,2.07.54,2.76.54,1.46.04,1.99.65.88,1-.42.15-.69.42-.57.62.15.19-.11.35-.5.35-.96,0-1.42-1.04-.54-1.27,1.34-.27-4.94-.73-6.86-.46-1.42.19-1.92.15-1.73-.15.15-.23.08-.42-.15-.42s-.35-.15-.23-.35c.35-.54-4.64-.88-6.32-.42-1.15.31-1.69.31-2.07,0-.31-.23-1-.58-1.61-.77-1.03-.31-1-.31.42-.35,1.92-.04,1.69-.27-.54-.62-2.11-.31-2.3-.46-1-.81,1.03-.23,1.38-.92.46-.92-.27,0-1.46-.5-2.64-1.15-1.19-.62-2.84-1.23-3.68-1.39-.88-.15-1.57-.42-1.57-.62,0-.23.27-.31.58-.15.31.12,1.49.04,2.61-.19,1.07-.23,3.45-.42,5.25-.46h3.26l-2.45-.38c-1.92-.31-3.56-.27-7.28.27-2.68.35-5.59.62-6.55.58q-1.73-.04-.46-.38c1.69-.5,1.53-.69-.31-.46-1.26.19-1.53.12-1.53-.42,0-.46-.38-.62-1.42-.62-.96,0-1.26-.12-.92-.35.96-.62-.31-.88-2.57-.62-1.72.23-2.03.35-1.42.62.5.23.15.27-.96.12-1.72-.23-3.07-.92-1.8-.92.35,0,.65-.19.65-.38,0-.23-.08-.38-.15-.38s-1.04-.19-2.15-.38c-1.42-.27-2.18-.27-2.53.04-.31.27-3.56.35-9.62.27-5.02-.08-10.92.04-13.14.23-6.67.58-19.89.54-21.42-.08-.8-.31-1.95-.42-2.99-.31-.92.12-2.41.35-3.37.46-1.11.15-1.95.08-2.3-.23-.31-.23-.84-.35-1.23-.23-.38.12-5.52.27-11.42.38s-13.49.35-16.86.46c-7.32.31-51,.35-52.11.04-.42-.12-1.69-.23-2.8-.23-1.11-.04-1.96-.19-1.84-.38.35-.58-2.38-.77-4.87-.38-1.3.23-3.6.31-5.1.15-1.49-.15-3.41-.12-4.21.04l-1.49.31,1.53.42,1.53.46-2.34.23c-1.27.12-2.8.08-3.45-.08l-1.11-.35,1.07-.04c.58-.04,1.04-.19,1.04-.38,0-.42-5.94-.88-7.66-.58-1,.15-1.19.12-.77-.19.46-.31.27-.42-.8-.42-.73,0-2.34-.19-3.56-.42-1.61-.27-2.38-.27-2.64,0-.23.23-.84.42-1.34.42s-.77.15-.65.38c.15.23.42.27.65.15.27-.19.31-.08.11.23-.19.35-.73.38-1.88.15-.84-.15-3.1-.27-4.94-.23-1.99.04-4.33-.15-5.56-.46-1.72-.46-5.56-.58-18.66-.58-9.04,0-19.24,0-22.61-.04-3.37,0-6.74.15-7.47.38-.73.19-1.84.38-2.49.35q-1.15-.04-.19-.38c.73-.23.54-.27-.77-.15-.96.08-2.38.27-3.18.42-.77.12-1.65.08-1.92-.15-.27-.19-3.14-.35-6.97-.27-10.84.12-10.92.12-11.19.81-.12.35,0,.77.31.92.42.27-2.11.27-9.62-.08-.73-.04-2.03-.04-2.87.04-2.22.12-14.02-.65-14.33-.96-.12-.12,1.15-.12,2.84,0,2.45.19,2.84.15,1.92-.19-1.72-.62-4.75-.85-5.29-.42-.23.19-1.15.5-1.99.65-2.03.42-11.15.27-14.79-.19-1.61-.23-7.62-.46-13.41-.5-5.79-.08-9.54,0-8.39.15,1.49.19,1.04.23-1.53.12-5.06-.19-26.17-.54-45.79-.69-9.04-.08-16.86-.27-17.32-.42-.58-.19-.88-.12-.88.15ZM579.41,2.61c1.04.23,2.91.27,4.29.15,2.22-.23,2.45-.19,2.22.38-.23.62-.88.65-7.4.42-8.89-.31-10.35-.42-10.65-.73-.11-.12.77-.23,2.03-.27,1.23,0,3.03-.15,3.98-.31,1.96-.31,2.95-.23,5.52.35ZM674.29,2.53c0,.19-.27.35-.58.35s-.46-.15-.35-.35c.11-.15.35-.31.58-.31.19,0,.35.15.35.31ZM861.67,14.54c-.31.19-1,.38-1.53.38-.77,0-.84-.08-.38-.38.31-.19,1-.38,1.53-.38.77,0,.84.08.38.38ZM868.38,15.3c.11.19-.04.38-.38.38s-.5-.19-.38-.38c.11-.23.31-.38.38-.38s.27.15.38.38ZM882.94,18.38c.15.23-.27.38-1.03.35-1.03,0-1.15-.08-.5-.35,1.04-.46,1.27-.46,1.53,0ZM414.21,93.3c-.27.08-.73.08-.96,0-.27-.12-.08-.19.46-.19s.73.08.5.19Z"/>
</svg>