<?xml version="1.0" encoding="UTF-8"?>
<svg id="Layer_1" xmlns="http://www.w3.org/2000/svg" viewBox="0 0 420.14 213.73">
  <defs>
    <style>
      .cls-1, .cls-2, .cls-3 {
        fill: #ea6b24;
      }

      .cls-2 {
        stroke-miterlimit: 10;
      }

      .cls-2, .cls-3 {
        stroke: #ea6b24;
      }

      .cls-3 {
        stroke-linecap: round;
        stroke-linejoin: round;
        stroke-width: 5px;
      }
    </style>
  </defs>
  <line class="cls-3" x1="209.68" y1="211.09" x2="209.68" y2="211.09"/>
  <line class="cls-3" x1="209.68" y1="211.09" x2="209.68" y2="211.09"/>
  <line class="cls-3" x1="209.68" y1="211.09" x2="209.68" y2="211.09"/>
  <line class="cls-3" x1="209.68" y1="211.09" x2="209.68" y2="211.09"/>
  <line class="cls-3" x1="209.68" y1="211.09" x2="209.68" y2="211.09"/>
  <line class="cls-3" x1="209.68" y1="211.09" x2="209.68" y2="211.09"/>
  <line class="cls-3" x1="209.68" y1="211.09" x2="209.68" y2="211.09"/>
  <line class="cls-3" x1="209.68" y1="211.09" x2="209.68" y2="211.09"/>
  <line class="cls-3" x1="209.68" y1="211.09" x2="209.68" y2="211.09"/>
  <line class="cls-3" x1="209.68" y1="211.09" x2="209.68" y2="211.09"/>
  <line class="cls-3" x1="209.68" y1="211.09" x2="209.68" y2="211.09"/>
  <line class="cls-3" x1="209.68" y1="211.09" x2="209.68" y2="211.09"/>
  <line class="cls-3" x1="209.68" y1="211.09" x2="209.68" y2="211.09"/>
  <line class="cls-3" x1="209.68" y1="211.09" x2="209.68" y2="211.09"/>
  <line class="cls-3" x1="209.68" y1="211.09" x2="209.68" y2="211.09"/>
  <line class="cls-3" x1="209.68" y1="211.09" x2="209.68" y2="211.09"/>
  <line class="cls-3" x1="209.68" y1="211.09" x2="209.68" y2="211.09"/>
  <line class="cls-3" x1="209.68" y1="211.09" x2="209.68" y2="211.09"/>
  <line class="cls-3" x1="209.68" y1="211.09" x2="209.68" y2="211.09"/>
  <line class="cls-3" x1="209.68" y1="211.09" x2="209.68" y2="211.09"/>
  <line class="cls-3" x1="209.68" y1="211.09" x2="209.68" y2="211.09"/>
  <line class="cls-3" x1="209.68" y1="211.09" x2="209.68" y2="211.09"/>
  <line class="cls-3" x1="209.68" y1="211.09" x2="209.68" y2="211.09"/>
  <line class="cls-3" x1="209.68" y1="211.09" x2="209.68" y2="211.09"/>
  <line class="cls-3" x1="209.68" y1="211.09" x2="209.68" y2="211.09"/>
  <line class="cls-3" x1="209.68" y1="211.09" x2="209.68" y2="211.09"/>
  <line class="cls-3" x1="209.68" y1="211.09" x2="209.68" y2="211.09"/>
  <line class="cls-3" x1="209.68" y1="211.09" x2="209.68" y2="211.09"/>
  <line class="cls-3" x1="209.68" y1="211.09" x2="209.68" y2="211.09"/>
  <line class="cls-3" x1="209.68" y1="211.09" x2="209.68" y2="211.09"/>
  <line class="cls-3" x1="209.68" y1="211.09" x2="209.68" y2="211.09"/>
  <line class="cls-3" x1="209.68" y1="211.09" x2="209.68" y2="211.09"/>
  <line class="cls-3" x1="209.68" y1="211.09" x2="209.68" y2="211.09"/>
  <line class="cls-3" x1="209.68" y1="211.09" x2="209.68" y2="211.09"/>
  <line class="cls-3" x1="209.68" y1="211.09" x2="209.68" y2="211.09"/>
  <line class="cls-3" x1="209.68" y1="211.09" x2="209.68" y2="211.09"/>
  <line class="cls-3" x1="209.68" y1="211.09" x2="209.68" y2="211.09"/>
  <line class="cls-3" x1="209.68" y1="211.09" x2="209.68" y2="211.09"/>
  <line class="cls-3" x1="209.68" y1="211.09" x2="209.68" y2="211.09"/>
  <line class="cls-3" x1="209.68" y1="211.09" x2="209.68" y2="211.09"/>
  <line class="cls-3" x1="209.68" y1="211.09" x2="209.68" y2="211.09"/>
  <line class="cls-3" x1="209.68" y1="211.09" x2="209.68" y2="211.09"/>
  <line class="cls-3" x1="209.68" y1="211.09" x2="209.68" y2="211.09"/>
  <line class="cls-3" x1="209.68" y1="211.09" x2="209.68" y2="211.09"/>
  <line class="cls-3" x1="209.68" y1="211.09" x2="209.68" y2="211.09"/>
  <line class="cls-3" x1="209.68" y1="211.09" x2="209.68" y2="211.09"/>
  <line class="cls-3" x1="209.68" y1="211.09" x2="209.68" y2="211.09"/>
  <line class="cls-3" x1="209.68" y1="211.09" x2="209.68" y2="211.09"/>
  <line class="cls-3" x1="209.68" y1="211.09" x2="209.68" y2="211.09"/>
  <line class="cls-3" x1="209.68" y1="211.09" x2="209.68" y2="211.09"/>
  <line class="cls-3" x1="209.68" y1="211.09" x2="209.68" y2="211.09"/>
  <line class="cls-3" x1="209.68" y1="211.09" x2="209.68" y2="211.09"/>
  <line class="cls-3" x1="209.68" y1="211.09" x2="209.68" y2="211.09"/>
  <line class="cls-3" x1="209.68" y1="211.09" x2="209.68" y2="211.09"/>
  <line class="cls-3" x1="209.68" y1="211.09" x2="209.68" y2="211.09"/>
  <line class="cls-3" x1="209.68" y1="211.09" x2="209.68" y2="211.09"/>
  <line class="cls-3" x1="209.68" y1="211.09" x2="209.68" y2="211.09"/>
  <line class="cls-3" x1="209.68" y1="211.09" x2="209.68" y2="211.09"/>
  <line class="cls-3" x1="209.68" y1="211.09" x2="209.68" y2="211.09"/>
  <line class="cls-3" x1="209.68" y1="211.09" x2="209.68" y2="211.09"/>
  <line class="cls-3" x1="209.68" y1="211.09" x2="209.68" y2="211.09"/>
  <line class="cls-3" x1="209.68" y1="211.09" x2="209.68" y2="211.09"/>
  <line class="cls-3" x1="209.68" y1="211.09" x2="209.68" y2="211.09"/>
  <line class="cls-3" x1="209.68" y1="211.09" x2="209.68" y2="211.09"/>
  <line class="cls-3" x1="209.68" y1="211.09" x2="209.68" y2="211.09"/>
  <line class="cls-3" x1="209.68" y1="211.09" x2="209.68" y2="211.09"/>
  <line class="cls-3" x1="209.68" y1="211.09" x2="209.68" y2="211.09"/>
  <line class="cls-3" x1="209.68" y1="211.09" x2="209.68" y2="211.09"/>
  <line class="cls-3" x1="209.68" y1="211.09" x2="209.68" y2="211.09"/>
  <line class="cls-3" x1="209.68" y1="211.09" x2="209.68" y2="211.09"/>
  <line class="cls-3" x1="209.68" y1="211.09" x2="209.68" y2="211.09"/>
  <line class="cls-3" x1="209.68" y1="211.09" x2="209.68" y2="211.09"/>
  <line class="cls-3" x1="209.68" y1="211.09" x2="209.68" y2="211.09"/>
  <line class="cls-3" x1="209.68" y1="211.09" x2="209.68" y2="211.09"/>
  <line class="cls-3" x1="209.68" y1="211.09" x2="209.68" y2="211.09"/>
  <line class="cls-3" x1="209.68" y1="211.09" x2="209.68" y2="211.09"/>
  <line class="cls-3" x1="209.68" y1="211.09" x2="209.68" y2="211.09"/>
  <line class="cls-3" x1="209.68" y1="211.09" x2="209.68" y2="211.09"/>
  <line class="cls-3" x1="209.68" y1="211.09" x2="209.68" y2="211.09"/>
  <line class="cls-3" x1="209.68" y1="211.09" x2="209.68" y2="211.09"/>
  <line class="cls-3" x1="209.68" y1="211.09" x2="209.68" y2="211.09"/>
  <line class="cls-3" x1="209.68" y1="211.09" x2="209.68" y2="211.09"/>
  <line class="cls-3" x1="209.68" y1="211.09" x2="209.68" y2="211.09"/>
  <line class="cls-3" x1="209.68" y1="211.09" x2="209.68" y2="211.09"/>
  <line class="cls-3" x1="209.68" y1="211.09" x2="209.68" y2="211.09"/>
  <line class="cls-3" x1="209.68" y1="211.09" x2="209.68" y2="211.09"/>
  <line class="cls-3" x1="209.68" y1="211.09" x2="209.68" y2="211.09"/>
  <line class="cls-3" x1="209.68" y1="211.09" x2="209.68" y2="211.09"/>
  <line class="cls-3" x1="209.68" y1="211.09" x2="209.68" y2="211.09"/>
  <line class="cls-3" x1="209.68" y1="211.09" x2="209.68" y2="211.09"/>
  <line class="cls-3" x1="209.68" y1="211.09" x2="209.68" y2="211.09"/>
  <line class="cls-3" x1="209.68" y1="211.09" x2="209.68" y2="211.09"/>
  <line class="cls-3" x1="209.68" y1="211.09" x2="209.68" y2="211.09"/>
  <line class="cls-3" x1="209.68" y1="211.09" x2="209.68" y2="211.09"/>
  <line class="cls-3" x1="209.68" y1="211.09" x2="209.68" y2="211.09"/>
  <line class="cls-3" x1="209.68" y1="211.09" x2="209.68" y2="211.09"/>
  <line class="cls-3" x1="209.68" y1="211.09" x2="209.68" y2="211.09"/>
  <line class="cls-3" x1="209.68" y1="211.09" x2="209.68" y2="211.09"/>
  <line class="cls-3" x1="209.68" y1="211.09" x2="209.68" y2="211.09"/>
  <line class="cls-3" x1="209.68" y1="211.09" x2="209.68" y2="211.09"/>
  <line class="cls-3" x1="209.68" y1="211.09" x2="209.68" y2="211.09"/>
  <line class="cls-3" x1="209.68" y1="211.09" x2="209.68" y2="211.09"/>
  <line class="cls-3" x1="209.68" y1="211.09" x2="209.68" y2="211.09"/>
  <line class="cls-3" x1="209.68" y1="211.09" x2="209.68" y2="211.09"/>
  <line class="cls-3" x1="209.68" y1="211.09" x2="209.68" y2="211.09"/>
  <line class="cls-3" x1="209.68" y1="211.09" x2="209.68" y2="211.09"/>
  <line class="cls-3" x1="209.68" y1="211.09" x2="209.68" y2="211.09"/>
  <line class="cls-3" x1="209.68" y1="211.09" x2="209.68" y2="211.09"/>
  <line class="cls-3" x1="209.68" y1="211.09" x2="209.68" y2="211.09"/>
  <line class="cls-3" x1="209.68" y1="211.09" x2="209.68" y2="211.09"/>
  <line class="cls-3" x1="209.68" y1="211.09" x2="209.68" y2="211.09"/>
  <line class="cls-3" x1="209.68" y1="211.09" x2="209.68" y2="211.09"/>
  <line class="cls-3" x1="209.68" y1="211.09" x2="209.68" y2="211.09"/>
  <line class="cls-3" x1="209.68" y1="211.09" x2="209.68" y2="211.09"/>
  <line class="cls-3" x1="209.68" y1="211.09" x2="209.68" y2="211.09"/>
  <line class="cls-3" x1="209.68" y1="211.09" x2="209.68" y2="211.09"/>
  <line class="cls-3" x1="209.68" y1="211.09" x2="209.68" y2="211.09"/>
  <line class="cls-3" x1="209.68" y1="211.09" x2="209.68" y2="211.09"/>
  <line class="cls-3" x1="209.68" y1="211.09" x2="209.68" y2="211.09"/>
  <line class="cls-3" x1="209.68" y1="211.09" x2="209.68" y2="211.09"/>
  <line class="cls-3" x1="209.68" y1="211.09" x2="209.68" y2="211.09"/>
  <line class="cls-3" x1="209.68" y1="211.09" x2="209.68" y2="211.09"/>
  <line class="cls-3" x1="209.68" y1="211.09" x2="209.68" y2="211.09"/>
  <line class="cls-3" x1="209.68" y1="211.09" x2="209.68" y2="211.09"/>
  <line class="cls-3" x1="209.68" y1="211.09" x2="209.68" y2="211.09"/>
  <line class="cls-3" x1="209.68" y1="211.09" x2="209.68" y2="211.09"/>
  <line class="cls-3" x1="209.68" y1="211.09" x2="209.68" y2="211.09"/>
  <line class="cls-3" x1="209.68" y1="211.09" x2="209.68" y2="211.09"/>
  <line class="cls-3" x1="209.68" y1="211.09" x2="209.68" y2="211.09"/>
  <line class="cls-3" x1="209.68" y1="211.09" x2="209.68" y2="211.09"/>
  <line class="cls-3" x1="209.68" y1="211.09" x2="209.68" y2="211.09"/>
  <line class="cls-3" x1="209.68" y1="211.09" x2="209.68" y2="211.09"/>
  <line class="cls-3" x1="209.68" y1="211.09" x2="209.68" y2="211.09"/>
  <line class="cls-3" x1="209.68" y1="211.09" x2="209.68" y2="211.09"/>
  <line class="cls-3" x1="209.68" y1="211.09" x2="209.68" y2="211.09"/>
  <line class="cls-3" x1="209.68" y1="211.09" x2="209.68" y2="211.09"/>
  <line class="cls-3" x1="209.68" y1="211.09" x2="209.68" y2="211.09"/>
  <line class="cls-3" x1="209.68" y1="211.09" x2="209.68" y2="211.09"/>
  <line class="cls-3" x1="209.68" y1="211.09" x2="209.68" y2="211.09"/>
  <line class="cls-3" x1="209.68" y1="211.09" x2="209.68" y2="211.09"/>
  <line class="cls-3" x1="209.68" y1="211.09" x2="209.68" y2="211.09"/>
  <line class="cls-3" x1="209.68" y1="211.09" x2="209.68" y2="211.09"/>
  <line class="cls-3" x1="209.68" y1="211.09" x2="209.68" y2="211.09"/>
  <line class="cls-3" x1="209.68" y1="211.09" x2="209.68" y2="211.09"/>
  <line class="cls-3" x1="209.68" y1="211.09" x2="209.68" y2="211.09"/>
  <line class="cls-3" x1="209.68" y1="211.09" x2="209.68" y2="211.09"/>
  <line class="cls-3" x1="209.68" y1="211.09" x2="209.68" y2="211.09"/>
  <line class="cls-3" x1="209.68" y1="211.09" x2="209.68" y2="211.09"/>
  <line class="cls-3" x1="209.68" y1="211.09" x2="209.68" y2="211.09"/>
  <line class="cls-3" x1="209.68" y1="211.09" x2="209.68" y2="211.09"/>
  <line class="cls-3" x1="209.68" y1="211.09" x2="209.68" y2="211.09"/>
  <line class="cls-3" x1="209.68" y1="211.09" x2="209.68" y2="211.09"/>
  <line class="cls-3" x1="209.68" y1="211.09" x2="209.68" y2="211.09"/>
  <line class="cls-3" x1="209.68" y1="211.09" x2="209.68" y2="211.09"/>
  <line class="cls-3" x1="209.68" y1="211.09" x2="209.68" y2="211.09"/>
  <line class="cls-3" x1="209.68" y1="211.09" x2="209.68" y2="211.09"/>
  <line class="cls-3" x1="209.68" y1="211.09" x2="209.68" y2="211.09"/>
  <line class="cls-3" x1="209.68" y1="211.09" x2="209.68" y2="211.09"/>
  <line class="cls-3" x1="209.68" y1="211.09" x2="209.68" y2="211.09"/>
  <line class="cls-3" x1="209.68" y1="211.09" x2="209.68" y2="211.09"/>
  <line class="cls-3" x1="209.68" y1="211.09" x2="209.68" y2="211.09"/>
  <line class="cls-3" x1="209.68" y1="211.09" x2="209.68" y2="211.09"/>
  <line class="cls-3" x1="209.68" y1="211.09" x2="209.68" y2="211.09"/>
  <line class="cls-3" x1="209.68" y1="211.09" x2="209.68" y2="211.09"/>
  <line class="cls-3" x1="209.68" y1="211.09" x2="209.68" y2="211.09"/>
  <line class="cls-3" x1="209.68" y1="211.09" x2="209.68" y2="211.09"/>
  <line class="cls-3" x1="209.68" y1="211.09" x2="209.68" y2="211.09"/>
  <line class="cls-3" x1="209.68" y1="211.09" x2="209.68" y2="211.09"/>
  <line class="cls-3" x1="209.68" y1="211.09" x2="209.68" y2="211.09"/>
  <line class="cls-3" x1="209.68" y1="211.09" x2="209.68" y2="211.09"/>
  <line class="cls-3" x1="209.68" y1="211.09" x2="209.68" y2="211.09"/>
  <line class="cls-3" x1="209.68" y1="211.09" x2="209.68" y2="211.09"/>
  <line class="cls-3" x1="209.68" y1="211.09" x2="209.68" y2="211.09"/>
  <g>
    <g>
      <line class="cls-1" x1="209.68" y1="211.09" x2="183.63" y2="63.37"/>
      <path class="cls-1" d="M209.68,211.09c-2.11-5.97-3.92-12-5.74-18.03-2.02-11.64-7.62-43.34-9.74-55.4-2.14-12.16-7.69-43.62-9.77-55.4-.34-6.29-.7-12.57-.79-18.9,2.07,5.98,3.88,12.01,5.72,18.03,2.05,11.63,7.64,43.34,9.77,55.4,2.14,12.16,7.69,43.62,9.79,55.39.35,6.28.71,12.57.77,18.9h0Z"/>
    </g>
    <g>
      <line class="cls-1" x1="209.68" y1="211.09" x2="158.37" y2="70.14"/>
      <path class="cls-1" d="M209.68,211.09c-3.12-5.52-5.95-11.14-8.79-16.76-4.01-11.11-15.03-41.36-19.22-52.87-4.22-11.6-15.15-41.62-19.24-52.86-1.42-6.13-2.87-12.26-4.06-18.47,3.08,5.53,5.91,11.15,8.76,16.76,4.04,11.1,15.05,41.35,19.24,52.86,4.22,11.6,15.15,41.62,19.26,52.85,1.44,6.13,2.88,12.25,4.04,18.48h0Z"/>
    </g>
    <g>
      <line class="cls-1" x1="134.68" y1="81.19" x2="209.68" y2="211.09"/>
      <path class="cls-1" d="M134.68,81.19c4.03,4.89,7.79,9.94,11.56,14.98,5.88,10.24,21.98,38.13,28.1,48.73,6.17,10.69,22.15,38.36,28.12,48.71,2.47,5.79,4.95,11.57,7.21,17.49-3.99-4.91-7.76-9.96-11.54-14.99-5.91-10.23-22-38.11-28.12-48.71-6.17-10.69-22.14-38.36-28.15-48.7-2.48-5.79-4.97-11.57-7.19-17.5h0Z"/>
    </g>
    <g>
      <line class="cls-1" x1="209.68" y1="211.09" x2="113.26" y2="96.19"/>
      <path class="cls-1" d="M209.68,211.09c-4.82-4.12-9.4-8.43-13.99-12.74-7.57-9.07-28.27-33.73-36.14-43.11-7.94-9.46-28.47-33.93-36.16-43.09-3.44-5.28-6.89-10.54-10.14-15.97,4.79,4.14,9.37,8.46,13.97,12.76,7.59,9.05,28.29,33.71,36.16,43.09,7.93,9.46,28.47,33.93,36.18,43.07,3.45,5.27,6.9,10.53,10.12,15.99h0Z"/>
    </g>
    <g>
      <line class="cls-1" x1="209.68" y1="211.09" x2="94.77" y2="114.68"/>
      <path class="cls-1" d="M209.68,211.09c-5.46-3.22-10.72-6.67-15.99-10.12-9.03-7.61-33.69-28.31-43.07-36.18-9.46-7.94-33.93-28.47-43.09-36.16-4.3-4.6-8.61-9.18-12.76-13.97,5.43,3.25,10.69,6.7,15.97,10.14,9.05,7.59,33.71,28.29,43.09,36.16,9.46,7.94,33.93,28.47,43.11,36.14,4.31,4.59,8.62,9.17,12.74,13.99h0Z"/>
    </g>
    <g>
      <line class="cls-1" x1="79.77" y1="136.09" x2="209.68" y2="211.09"/>
      <path class="cls-1" d="M79.77,136.09c5.93,2.22,11.71,4.71,17.5,7.19,10.21,5.93,38.1,22.03,48.7,28.15,10.69,6.17,38.36,22.15,48.71,28.12,5.03,3.78,10.08,7.55,14.99,11.54-5.91-2.26-11.7-4.74-17.49-7.21-10.23-5.91-38.11-22-48.71-28.12-10.69-6.18-38.36-22.15-48.73-28.1-5.04-3.77-10.08-7.53-14.98-11.56h0Z"/>
    </g>
    <g>
      <line class="cls-1" x1="209.68" y1="211.09" x2="68.72" y2="159.79"/>
      <path class="cls-1" d="M209.68,211.09c-6.23-1.16-12.35-2.6-18.48-4.04-11.09-4.07-41.34-15.08-52.85-19.26-11.6-4.22-41.62-15.15-52.86-19.24-5.61-2.85-11.23-5.68-16.76-8.76,6.22,1.2,12.34,2.64,18.47,4.06,11.1,4.04,41.35,15.05,52.86,19.24,11.6,4.22,41.62,15.15,52.87,19.22,5.62,2.84,11.24,5.67,16.76,8.79h0Z"/>
    </g>
    <g>
      <line class="cls-1" x1="61.96" y1="185.05" x2="209.68" y2="211.09"/>
      <path class="cls-1" d="M61.96,185.05c6.34.06,12.62.42,18.9.77,11.63,2.08,43.33,7.67,55.39,9.79,12.16,2.14,43.62,7.69,55.4,9.77,6.02,1.83,12.05,3.64,18.03,5.72-6.33-.1-12.61-.46-18.9-.79-11.63-2.05-43.34-7.64-55.4-9.77-12.16-2.15-43.62-7.7-55.4-9.74-6.03-1.82-12.05-3.63-18.03-5.74h0Z"/>
    </g>
    <path class="cls-1" d="M359.68,211.09c-6.25,1.04-12.5,1.78-18.75,2.52-11.81-.03-44.01-.03-56.25-.02-12.35,0-44.29,0-56.25,0-6.25-.76-12.5-1.5-18.75-2.5,6.25-1,12.5-1.74,18.75-2.5,11.81,0,44.01,0,56.25,0,12.35,0,44.29,0,56.25-.03,6.25.75,12.5,1.48,18.75,2.53h0Z"/>
    <path class="cls-1" d="M209.68,211.09c-6.25,1.04-12.5,1.78-18.75,2.52-11.81-.03-44.01-.03-56.25-.02-12.35,0-44.29,0-56.25,0-6.25-.76-12.5-1.5-18.75-2.5,6.25-1,12.5-1.74,18.75-2.5,11.81,0,44.01,0,56.25,0,12.35,0,44.29,0,56.25-.03,6.25.75,12.5,1.48,18.75,2.53h0Z"/>
    <g>
      <line class="cls-1" x1="357.4" y1="185.05" x2="209.68" y2="211.09"/>
      <path class="cls-1" d="M357.4,185.05c-5.97,2.11-12,3.92-18.03,5.74-11.64,2.02-43.34,7.62-55.4,9.74-12.16,2.14-43.62,7.69-55.4,9.77-6.29.34-12.57.7-18.9.79,5.98-2.07,12.01-3.88,18.03-5.72,11.63-2.05,43.34-7.64,55.4-9.77,12.16-2.14,43.62-7.69,55.39-9.79,6.28-.35,12.57-.71,18.9-.77h0Z"/>
    </g>
    <g>
      <line class="cls-1" x1="350.63" y1="159.79" x2="209.68" y2="211.09"/>
      <path class="cls-1" d="M350.63,159.79c-5.52,3.12-11.14,5.95-16.76,8.79-11.11,4.01-41.36,15.03-52.87,19.22-11.6,4.22-41.62,15.15-52.86,19.24-6.13,1.42-12.26,2.87-18.47,4.06,5.53-3.08,11.15-5.91,16.76-8.76,11.1-4.04,41.35-15.05,52.86-19.24,11.6-4.22,41.62-15.15,52.85-19.26,6.13-1.44,12.25-2.88,18.48-4.04h0Z"/>
    </g>
    <g>
      <line class="cls-1" x1="339.58" y1="136.09" x2="209.68" y2="211.09"/>
      <path class="cls-1" d="M339.58,136.09c-4.89,4.03-9.94,7.79-14.98,11.56-10.24,5.88-38.13,21.98-48.73,28.1-10.69,6.17-38.36,22.15-48.71,28.12-5.79,2.47-11.57,4.95-17.49,7.21,4.91-3.99,9.96-7.76,14.99-11.54,10.23-5.91,38.11-22,48.71-28.13,10.69-6.17,38.36-22.14,48.7-28.15,5.79-2.48,11.57-4.97,17.5-7.19h0Z"/>
    </g>
    <g>
      <line class="cls-1" x1="324.58" y1="114.68" x2="209.68" y2="211.09"/>
      <path class="cls-1" d="M324.58,114.68c-4.12,4.82-8.43,9.4-12.74,13.99-9.07,7.57-33.73,28.27-43.11,36.14-9.46,7.94-33.93,28.47-43.09,36.16-5.28,3.44-10.54,6.89-15.97,10.14,4.14-4.79,8.46-9.37,12.76-13.97,9.05-7.59,33.71-28.29,43.09-36.16,9.46-7.93,33.93-28.47,43.07-36.18,5.27-3.45,10.53-6.9,15.99-10.12h0Z"/>
    </g>
    <g>
      <line class="cls-1" x1="306.09" y1="96.19" x2="209.68" y2="211.09"/>
      <path class="cls-1" d="M306.09,96.19c-3.22,5.46-6.67,10.72-10.12,15.99-7.61,9.03-28.31,33.69-36.18,43.07-7.94,9.46-28.47,33.93-36.16,43.09-4.6,4.3-9.18,8.61-13.97,12.76,3.25-5.43,6.7-10.69,10.14-15.97,7.59-9.05,28.29-33.71,36.16-43.09,7.94-9.46,28.47-33.93,36.14-43.11,4.59-4.31,9.17-8.62,13.99-12.74h0Z"/>
    </g>
    <g>
      <line class="cls-1" x1="284.68" y1="81.19" x2="209.68" y2="211.09"/>
      <path class="cls-1" d="M284.68,81.19c-2.22,5.93-4.71,11.71-7.19,17.5-5.93,10.21-22.03,38.1-28.15,48.7-6.17,10.69-22.15,38.36-28.13,48.71-3.78,5.03-7.55,10.08-11.54,14.99,2.26-5.91,4.74-11.7,7.21-17.49,5.91-10.23,22-38.11,28.13-48.71,6.18-10.69,22.15-38.36,28.1-48.73,3.77-5.04,7.53-10.08,11.56-14.98h0Z"/>
    </g>
    <g>
      <line class="cls-1" x1="260.98" y1="70.14" x2="209.68" y2="211.09"/>
      <path class="cls-1" d="M260.98,70.14c-1.16,6.23-2.6,12.35-4.04,18.48-4.07,11.09-15.08,41.34-19.26,52.85-4.22,11.6-15.15,41.62-19.24,52.86-2.85,5.61-5.68,11.23-8.76,16.76,1.2-6.22,2.64-12.34,4.06-18.47,4.04-11.1,15.05-41.35,19.24-52.86,4.22-11.6,15.15-41.62,19.22-52.87,2.84-5.62,5.67-11.24,8.79-16.76h0Z"/>
    </g>
    <g>
      <line class="cls-1" x1="235.72" y1="63.37" x2="209.68" y2="211.09"/>
      <path class="cls-1" d="M235.72,63.37c-.06,6.34-.42,12.62-.77,18.9-2.08,11.63-7.67,43.33-9.79,55.39-2.14,12.16-7.69,43.62-9.77,55.4-1.83,6.02-3.64,12.05-5.72,18.03.1-6.33.46-12.61.79-18.9,2.05-11.63,7.64-43.34,9.77-55.4,2.15-12.16,7.7-43.62,9.74-55.4,1.82-6.03,3.63-12.05,5.74-18.03h0Z"/>
    </g>
    <path class="cls-1" d="M209.68,61.09c1.04,6.25,1.78,12.5,2.52,18.75-.03,11.81-.03,44.01-.02,56.25,0,12.35,0,44.29,0,56.25-.76,6.25-1.5,12.5-2.5,18.75-1-6.25-1.74-12.5-2.5-18.75,0-11.81,0-44.01,0-56.25,0-12.35,0-44.29-.03-56.25.75-6.25,1.48-12.5,2.53-18.75h0Z"/>
  </g>
  <line class="cls-3" x1="209.68" y1="211.09" x2="209.68" y2="211.09"/>
  <line class="cls-3" x1="209.68" y1="211.09" x2="209.68" y2="211.09"/>
  <line class="cls-3" x1="209.68" y1="211.09" x2="209.68" y2="211.09"/>
  <line class="cls-3" x1="209.68" y1="211.09" x2="209.68" y2="211.09"/>
  <path class="cls-2" d="M239.43,213.23c.11-1.02.16-2.06.16-3.11,0-16.52-13.39-29.91-29.91-29.91s-29.91,13.39-29.91,29.91c0,1.05.06,2.09.16,3.11h59.5Z"/>
  <g>
    <path class="cls-2" d="M13.13,164.42l5.19-21.89,5.47,1.3-1.3,5.47,31.47,7.47,1.3-5.47,5.47,1.3-5.19,21.89-5.47-1.3,1.3-5.47-10.95-2.6-3.57,15.05,10.95,2.6,1.3-5.47,5.47,1.3-5.19,21.89-5.47-1.3,1.3-5.47-31.47-7.47-1.3,5.47-5.47-1.3,5.19-21.89,5.47,1.3-1.3,5.47,15.05,3.57,3.57-15.05-15.05-3.57-1.3,5.47-5.47-1.3Z"/>
    <path class="cls-2" d="M17.99,115.28c-.39-1.5-.19-2.92.6-4.27.79-1.34,1.93-2.21,3.43-2.6,1.5-.39,2.92-.19,4.27.6,1.34.79,2.21,1.93,2.6,3.43.39,1.5.19,2.92-.6,4.27s-1.93,2.21-3.43,2.6c-1.5.39-2.92.19-4.27-.6-1.34-.79-2.21-1.93-2.6-3.43ZM26.54,100.73c-.39-1.5-.19-2.92.6-4.27.79-1.34,1.93-2.21,3.43-2.6,1.5-.39,2.92-.19,4.27.6,1.34.79,2.21,1.93,2.6,3.43.39,1.5.19,2.92-.6,4.27-.79,1.34-1.93,2.21-3.43,2.6-1.5.39-2.92.19-4.27-.6-1.34-.79-2.21-1.93-2.6-3.43ZM31.91,116.02c.59-1.86,1.41-3.7,2.47-5.51,1.06-1.81,2.27-3.42,3.61-4.84,1.34-1.42,2.74-2.59,4.2-3.53s2.99-1.68,4.58-2.25c1.6-.57,3.21-.93,4.82-1.08,1.62-.15,3.23-.14,4.85.04,1.61.18,3.18.53,4.71,1.04,1.53.52,2.99,1.18,4.38,2,1.39.82,2.69,1.77,3.88,2.85,1.19,1.08,2.26,2.28,3.2,3.6.94,1.32,1.74,2.73,2.4,4.21.66,1.49,1.12,3.07,1.41,4.74.28,1.67.37,3.37.27,5.1-.1,1.73-.45,3.52-1.03,5.39-.59,1.86-1.41,3.7-2.47,5.51-1.06,1.81-2.27,3.42-3.61,4.84-1.34,1.42-2.74,2.6-4.2,3.53-1.46.93-2.99,1.68-4.58,2.25-1.6.57-3.21.93-4.82,1.08s-3.23.14-4.85-.04c-1.61-.18-3.18-.53-4.71-1.04-1.53-.52-2.99-1.18-4.38-2-1.39-.82-2.69-1.77-3.88-2.85-1.19-1.08-2.26-2.28-3.2-3.6-.94-1.32-1.74-2.73-2.4-4.21-.66-1.49-1.12-3.07-1.41-4.74-.28-1.67-.37-3.37-.27-5.1.1-1.73.45-3.52,1.03-5.39ZM41.95,110.46c-1.09.71-2,1.68-2.71,2.9s-1.12,2.48-1.21,3.78.1,2.56.56,3.78c.47,1.22,1.17,2.43,2.11,3.64.94,1.21,2.07,2.34,3.37,3.41,1.3,1.07,2.76,2.08,4.38,3.03,2.02,1.19,4.02,2.1,5.99,2.73,1.97.64,3.84.98,5.61,1.02,1.77.05,3.38-.29,4.82-1.01,1.45-.72,2.61-1.82,3.47-3.29.87-1.48,1.26-3.02,1.18-4.64-.08-1.62-.57-3.18-1.47-4.7-.9-1.52-2.11-2.99-3.62-4.4-1.51-1.41-3.28-2.71-5.3-3.9-1.62-.95-3.21-1.73-4.78-2.35-1.57-.62-3.11-1.04-4.62-1.28-1.51-.24-2.91-.26-4.21-.08-1.29.19-2.48.63-3.57,1.35Z"/>
    <path class="cls-2" d="M66.08,78.48l-3.97-3.98,16.93-16.88,3.97,3.98-3.98,3.97,17.38,17.42c2.01,2.02,3.3,4.24,3.86,6.69.56,2.44.38,4.92-.54,7.45-.92,2.53-2.54,4.94-4.84,7.24-.95.94-1.97,1.79-3.07,2.54s-2.33,1.38-3.69,1.88c-1.36.5-2.71.8-4.04.88-1.33.08-2.71-.15-4.13-.7-1.42-.54-2.74-1.43-3.96-2.65-1.1-1.1-1.65-2.43-1.65-3.98,0-1.55.55-2.87,1.66-3.98,1.1-1.1,2.43-1.65,3.98-1.65,1.55,0,2.87.56,3.98,1.66.79.79,1.29,1.71,1.52,2.78.23,1.07.16,2.1-.21,3.11,1.43-.26,2.81-1.06,4.15-2.41.64-.64,1.12-1.37,1.46-2.21s.5-1.73.49-2.68c0-.95-.26-1.96-.75-3.02-.49-1.06-1.22-2.07-2.18-3.03l-17.38-17.42-4.98,4.97Z"/>
    <path class="cls-2" d="M102.49,53.11c.59.94,1.35,1.65,2.25,2.12.91.47,1.89.73,2.94.77,1.05.04,2.19-.02,3.41-.2s2.48-.4,3.77-.69,2.59-.55,3.9-.8,2.62-.39,3.93-.43,2.56.08,3.74.32,2.33.76,3.43,1.55c1.11.79,2.08,1.84,2.91,3.16,1.02,1.61,1.62,3.35,1.78,5.19s-.05,3.66-.67,5.44-1.63,3.51-3.05,5.2c-1.42,1.69-3.15,3.18-5.2,4.47-.79.5-1.66.98-2.6,1.43-.94.45-1.98.86-3.11,1.23-1.13.37-2.26.66-3.39.87-1.13.21-2.28.31-3.45.28-1.17-.03-2.28-.18-3.32-.47-1.04-.29-2.03-.77-2.97-1.46-.94-.69-1.74-1.55-2.4-2.59-.83-1.32-1.08-2.73-.74-4.24.34-1.51,1.17-2.68,2.49-3.52,1.32-.83,2.73-1.08,4.24-.74s2.68,1.17,3.52,2.49c.54.85.83,1.77.87,2.75s-.15,1.9-.59,2.77c2.02-.09,4.25-.89,6.66-2.42,2.15-1.36,3.57-2.72,4.25-4.08.69-1.36.57-2.77-.34-4.21-.59-.94-1.35-1.65-2.25-2.12-.91-.47-1.89-.73-2.94-.77-1.05-.04-2.19.02-3.41.2-1.22.18-2.48.4-3.77.69-1.29.28-2.59.55-3.9.8-1.31.25-2.62.39-3.93.43s-2.56-.08-3.74-.32c-1.18-.25-2.33-.76-3.43-1.55-1.11-.79-2.08-1.84-2.91-3.16-1.03-1.62-1.66-3.34-1.89-5.14s-.07-3.57.47-5.31c.54-1.74,1.5-3.43,2.85-5.08s3.06-3.12,5.1-4.41c.79-.5,1.65-.97,2.57-1.41.92-.44,1.93-.83,3.02-1.17,1.09-.34,2.18-.61,3.27-.8,1.09-.19,2.2-.26,3.33-.2,1.14.05,2.2.23,3.2.54,1,.31,1.96.81,2.88,1.51.92.7,1.71,1.57,2.37,2.62.83,1.32,1.08,2.73.74,4.24-.34,1.51-1.17,2.68-2.49,3.52-1.32.83-2.73,1.08-4.24.74s-2.68-1.17-3.52-2.49c-.56-.88-.85-1.83-.87-2.85-.02-1.02.2-1.97.67-2.85-1.82.04-3.87.78-6.16,2.23-2.09,1.32-3.4,2.6-3.92,3.84-.53,1.24-.32,2.6.61,4.08Z"/>
    <path class="cls-2" d="M126.89,26.9l21.49-6.67,1.67,5.37-5.37,1.67,9.58,30.89,3.36-1.04,1.67,5.37-19.48,6.04-1.67-5.37,5.37-1.67-9.58-30.89-5.37,1.67-1.67-5.37ZM154.75,24.14l-1.67-5.37,18.8-5.83,1.67,5.37-4.92,1.53-7.72,16.47,18.24,14.13,4.65-1.44,1.67,5.37-22.16,6.87-1.67-5.37,4.65-1.44-15.09-11.7,9.57-20.45-6.03,1.87Z"/>
    <path class="cls-2" d="M199.13,10.89c1.89-.48,3.89-.75,5.99-.8,2.1-.05,4.1.13,6.02.52,1.91.4,3.65.97,5.21,1.72,1.56.75,3,1.65,4.33,2.71,1.33,1.06,2.48,2.24,3.46,3.53.98,1.3,1.82,2.68,2.51,4.15.7,1.47,1.22,2.98,1.59,4.55s.56,3.16.6,4.78c.04,1.62-.09,3.22-.38,4.8s-.75,3.12-1.38,4.62c-.63,1.5-1.4,2.92-2.32,4.25-.92,1.34-2.02,2.57-3.29,3.69-1.28,1.12-2.67,2.09-4.2,2.91-1.52.82-3.23,1.47-5.12,1.95-1.89.48-3.89.75-5.99.8-2.1.05-4.1-.13-6.02-.52-1.91-.4-3.65-.97-5.21-1.72-1.56-.75-3-1.66-4.33-2.71-1.33-1.06-2.48-2.24-3.46-3.53s-1.82-2.68-2.51-4.15c-.7-1.47-1.23-2.98-1.59-4.55-.36-1.57-.56-3.16-.6-4.78s.09-3.22.38-4.8c.29-1.58.75-3.12,1.38-4.62.63-1.5,1.4-2.92,2.32-4.26.92-1.34,2.02-2.57,3.29-3.69,1.28-1.12,2.67-2.09,4.2-2.91,1.52-.82,3.23-1.47,5.12-1.95ZM209.14,16.5c-1.18-.55-2.48-.81-3.9-.78-1.42.03-2.7.35-3.85.96-1.15.61-2.12,1.43-2.92,2.47-.79,1.04-1.45,2.27-1.98,3.71-.53,1.44-.91,2.99-1.13,4.66-.23,1.67-.32,3.44-.27,5.32.05,2.34.33,4.52.83,6.53s1.19,3.78,2.08,5.31c.89,1.53,2.02,2.72,3.4,3.57,1.37.85,2.92,1.26,4.63,1.22,1.71-.04,3.23-.52,4.57-1.43,1.33-.92,2.41-2.16,3.23-3.72.82-1.57,1.43-3.36,1.84-5.4.4-2.03.58-4.22.53-6.56-.04-1.87-.21-3.64-.52-5.3-.3-1.66-.75-3.19-1.34-4.6s-1.31-2.62-2.15-3.62c-.84-1-1.85-1.78-3.02-2.33Z"/>
    <path class="cls-2" d="M239.67,12.03l23.22,5.68-1.34,5.46-6.83-1.67-7.69,31.42,10.93,2.67c.48.12.95.04,1.42-.24.47-.28.87-.68,1.21-1.21.34-.53.63-1.08.88-1.65.24-.57.43-1.13.57-1.69l1.34-5.46,6.15,1.5-4.01,16.39-36.2-8.86,1.34-5.46,5.46,1.34,7.69-31.42-5.46-1.34,1.34-5.46Z"/>
    <path class="cls-2" d="M288.22,25.44l33.45,17.96-6.65,12.39-5.58-2.99,1.33-2.48c.27-.51.51-1.05.71-1.63.2-.58.35-1.19.45-1.81.1-.62.07-1.19-.09-1.71-.16-.52-.46-.89-.89-1.13l-10.53-5.65-7.32,13.63,5.58,2.99,2.99-5.58,4.96,2.66-8.65,16.11-4.96-2.66,2.99-5.58-5.58-2.99-5.32,9.91,11.15,5.99c.43.23.91.27,1.43.12.52-.15,1.01-.44,1.48-.87.46-.43.88-.89,1.26-1.38s.7-.99.97-1.49l1.33-2.48,5.58,2.99-6.65,12.39-34.07-18.29,2.66-4.96,4.96,2.66,15.3-28.5-4.96-2.66,2.66-4.96Z"/>
    <path class="cls-2" d="M333.88,51.51l11.26,10.86-1.75,27.9,10.88-11.29-4.05-3.9,3.9-4.05,13.16,12.69-3.9,4.05-4.05-3.9-26.35,27.33-3.04-2.93,2.31-36.84-15.62,16.2,4.05,3.9-3.9,4.05-13.16-12.69,3.9-4.05,4.05,3.9,22.45-23.28-4.05-3.9,3.9-4.05Z"/>
    <path class="cls-2" d="M348.48,135.41l-11.07-19.59,4.9-2.77,2.77,4.9,28.16-15.91-2.77-4.9,4.9-2.77,11.07,19.59c1.24,2.19,2.17,4.4,2.78,6.62s.92,4.33.91,6.32c-.01,1.99-.27,3.92-.78,5.79-.51,1.87-1.24,3.59-2.21,5.17-.97,1.58-2.12,3.01-3.45,4.3s-2.82,2.4-4.47,3.33c-1.64.93-3.36,1.63-5.16,2.11-1.8.48-3.62.72-5.47.74s-3.7-.24-5.56-.77c-1.86-.53-3.65-1.3-5.36-2.32-1.71-1.02-3.36-2.36-4.95-4.04-1.59-1.68-3-3.61-4.24-5.8ZM353.37,132.65c.9,1.59,2.06,2.81,3.48,3.67,1.42.85,2.99,1.32,4.7,1.41,1.72.09,3.54-.14,5.47-.69,1.93-.55,3.92-1.4,5.96-2.55,1.63-.92,3.08-1.9,4.35-2.94,1.27-1.04,2.35-2.15,3.23-3.34.88-1.19,1.53-2.39,1.93-3.62s.53-2.52.38-3.86c-.15-1.34-.6-2.67-1.34-3.99l-2.77-4.9-28.16,15.91,2.77,4.9Z"/>
    <path class="cls-2" d="M402.57,146.27l4.84,21.97-5.49,1.21-1.21-5.49-31.59,6.96.76,3.43-5.49,1.21-4.39-19.91,5.49-1.21,1.21,5.49,31.59-6.96-1.21-5.49,5.49-1.21ZM402.98,174.26l5.49-1.21,4.24,19.23-5.49,1.21-1.11-5.03-15.77-9.07-15.6,16.99,1.05,4.75-5.49,1.21-4.99-22.66,5.49-1.21,1.05,4.75,12.92-14.06,19.58,11.25-1.36-6.16Z"/>
  </g>
  <text/>
</svg>