<?xml version="1.0" encoding="UTF-8"?>
<svg id="Layer_1" xmlns="http://www.w3.org/2000/svg" viewBox="0 0 26.67 26.67">
  <defs>
    <style>
      .cls-1 {
        fill: #92321a;
      }
    </style>
  </defs>
  <path class="cls-1" d="M14.7,0c1.5,0,2.26.01,2.92.03h.26c.3.02.59.03.95.05,1.42.07,2.39.29,3.24.62.88.34,1.62.8,2.36,1.54.68.67,1.2,1.47,1.54,2.36.33.85.55,1.82.62,3.24.02.35.03.65.04.95v.26c.03.66.04,1.42.04,2.92v.99s0,1.75,0,1.75c0,.97,0,1.95-.03,2.92v.26c-.02.3-.03.59-.05.95-.07,1.42-.29,2.39-.62,3.24-.33.89-.86,1.7-1.54,2.36-.67.68-1.47,1.2-2.36,1.54-.85.33-1.82.55-3.24.62l-.95.04h-.26c-.66.03-1.42.04-2.92.04h-.99s-1.75,0-1.75,0c-.97,0-1.95,0-2.92-.03h-.26c-.32-.02-.63-.03-.95-.05-1.42-.07-2.39-.29-3.24-.62-.89-.33-1.7-.86-2.36-1.54-.68-.67-1.2-1.47-1.54-2.36-.33-.85-.55-1.82-.62-3.24l-.04-.95v-.26C0,16.65,0,15.68,0,14.7v-2.74c0-.97,0-1.95.03-2.92v-.26c.02-.3.03-.59.05-.95.07-1.42.29-2.39.62-3.24.34-.89.86-1.7,1.54-2.36.67-.68,1.47-1.2,2.36-1.54.85-.33,1.82-.55,3.24-.62.35-.02.65-.03.95-.04h.26C10.02,0,10.99,0,11.96,0h2.74ZM13.33,6.67c-1.77,0-3.46.7-4.71,1.95-1.25,1.25-1.95,2.95-1.95,4.71s.7,3.46,1.95,4.71c1.25,1.25,2.95,1.95,4.71,1.95s3.46-.7,4.71-1.95c1.25-1.25,1.95-2.95,1.95-4.71s-.7-3.46-1.95-4.71c-1.25-1.25-2.95-1.95-4.71-1.95ZM13.33,9.33c.53,0,1.05.1,1.53.3.49.2.93.5,1.3.87.37.37.67.81.87,1.3.2.49.3,1.01.3,1.53,0,.53-.1,1.05-.3,1.53-.2.49-.5.93-.87,1.3-.37.37-.81.67-1.3.87-.49.2-1.01.3-1.53.3-1.06,0-2.08-.42-2.83-1.17-.75-.75-1.17-1.77-1.17-2.83s.42-2.08,1.17-2.83c.75-.75,1.77-1.17,2.83-1.17M20.34,4.67c-.44,0-.87.18-1.18.49-.31.31-.49.74-.49,1.18s.18.87.49,1.18c.31.31.74.49,1.18.49s.87-.18,1.18-.49c.31-.31.49-.74.49-1.18s-.18-.87-.49-1.18c-.31-.31-.74-.49-1.18-.49Z"/>
</svg>