<?xml version="1.0" encoding="utf-8"?>
<!-- Generator: Adobe Illustrator 13.0.0, SVG Export Plug-In . SVG Version: 6.00 Build 14948)  -->
<!DOCTYPE svg PUBLIC "-//W3C//DTD SVG 1.1//EN" "http://www.w3.org/Graphics/SVG/1.1/DTD/svg11.dtd">
<svg version="1.1" id="Layer_1" xmlns="http://www.w3.org/2000/svg" xmlns:xlink="http://www.w3.org/1999/xlink" x="0px" y="0px"
	 width="624.97px" height="189.28px" viewBox="0 0 624.97 189.28" style="enable-background:new 0 0 624.97 189.28;"
	 xml:space="preserve">
<style type="text/css">
<![CDATA[
	.st0{fill:#060f1e;}
	.st1{fill:#060f1e;}
	.st2{fill:#060f1e;}
	.st3{fill:none;}
]]>
</style>
<pattern  x="6.07" y="489.49" width="69" height="69" patternUnits="userSpaceOnUse" id="Polka_Dot_Pattern" viewBox="2.13 -70.9 69 69" style="overflow:visible;">
	<g>
		<polygon class="st3" points="71.13,-1.9 2.13,-1.9 2.13,-70.9 71.13,-70.9 		"/>
		<polygon class="st1" points="71.13,-1.9 2.13,-1.9 2.13,-70.9 71.13,-70.9 		"/>
		<g>
			<path class="st2" d="M61.77-71.65c0.02,0.07,0.01,0.13-0.03,0.19c-0.05,0.1-0.11,0.06-0.17,0.13c-0.05,0.06-0.1,0.28-0.08,0.36
				c-0.17,0.06-0.01,0.23-0.02,0.35c0,0.05-0.04,0.11-0.04,0.16c-0.01,0.12,0.02,0.27,0.07,0.37c0.1,0.2,0.27,0.41,0.44,0.54
				c0.19,0.15,0.36,0.57,0.61,0.63c0.18,0.04,0.38-0.1,0.54-0.14c0.18-0.04,0.4,0.01,0.57-0.05c0.22-0.08,0.13-0.34,0.29-0.45
				c0.1-0.07,0.29-0.01,0.41-0.05c0.2-0.07,0.34-0.26,0.38-0.46c0.02-0.08,0.01-0.14,0.04-0.22c0.04-0.1,0.11-0.16,0.09-0.29
				c-0.01-0.06-0.05-0.12-0.06-0.19c-0.02-0.11,0-0.22,0-0.34c0-0.2,0.02-0.38-0.08-0.55c-0.38-0.69-1.24-0.93-1.97-0.79
				c-0.18,0.03-0.29,0.13-0.44,0.21c-0.17,0.09-0.14,0.17-0.32,0.22c-0.08,0.03-0.22,0.12-0.21,0.22c0,0.12,0,0.05,0.01,0.17
				c-0.02,0.01-0.02,0-0.03-0.03"/>
			<path class="st2" d="M54.11-71.65c0.02,0.07,0.01,0.13-0.03,0.19c-0.05,0.1-0.11,0.06-0.17,0.13c-0.05,0.06-0.1,0.28-0.08,0.36
				c-0.17,0.06-0.01,0.23-0.02,0.35c0,0.05-0.04,0.11-0.04,0.16c-0.01,0.12,0.02,0.27,0.07,0.37c0.1,0.2,0.27,0.41,0.44,0.54
				c0.19,0.15,0.36,0.57,0.61,0.63c0.18,0.04,0.38-0.1,0.54-0.14c0.18-0.04,0.4,0.01,0.57-0.05c0.22-0.08,0.13-0.34,0.29-0.45
				c0.1-0.07,0.29-0.01,0.41-0.05c0.2-0.07,0.34-0.26,0.38-0.46c0.02-0.08,0.01-0.14,0.04-0.22c0.04-0.1,0.11-0.16,0.09-0.29
				c-0.01-0.06-0.05-0.12-0.06-0.19c-0.02-0.11,0-0.22,0-0.34c0-0.2,0.02-0.38-0.08-0.55c-0.38-0.69-1.24-0.93-1.97-0.79
				c-0.18,0.03-0.29,0.13-0.44,0.21c-0.17,0.09-0.14,0.17-0.32,0.22c-0.08,0.03-0.22,0.12-0.21,0.22c0,0.12,0,0.05,0.01,0.17
				c-0.02,0.01-0.02,0-0.03-0.03"/>
			<path class="st2" d="M46.44-71.65c0.02,0.07,0.01,0.13-0.03,0.19c-0.05,0.1-0.11,0.06-0.17,0.13c-0.05,0.06-0.1,0.28-0.08,0.36
				c-0.17,0.06-0.01,0.23-0.02,0.35c0,0.05-0.04,0.11-0.04,0.16c-0.01,0.12,0.02,0.27,0.07,0.37c0.1,0.2,0.27,0.41,0.44,0.54
				c0.19,0.15,0.36,0.57,0.61,0.63c0.18,0.04,0.38-0.1,0.54-0.14c0.18-0.04,0.4,0.01,0.57-0.05c0.22-0.08,0.13-0.34,0.29-0.45
				c0.1-0.07,0.29-0.01,0.41-0.05c0.2-0.07,0.34-0.26,0.38-0.46c0.02-0.08,0.01-0.14,0.04-0.22c0.04-0.1,0.11-0.16,0.09-0.29
				c-0.01-0.06-0.05-0.12-0.06-0.19c-0.02-0.11,0-0.22,0-0.34c0-0.2,0.02-0.38-0.08-0.55c-0.38-0.69-1.24-0.93-1.97-0.79
				c-0.18,0.03-0.29,0.13-0.44,0.21c-0.17,0.09-0.14,0.17-0.32,0.22c-0.08,0.03-0.22,0.12-0.21,0.22c0,0.12,0,0.05,0.01,0.17
				c-0.02,0.01-0.02,0-0.03-0.03"/>
			<path class="st2" d="M38.77-71.65c0.02,0.07,0.01,0.13-0.03,0.19c-0.05,0.1-0.11,0.06-0.17,0.13c-0.05,0.06-0.1,0.28-0.08,0.36
				c-0.17,0.06-0.01,0.23-0.02,0.35c0,0.05-0.04,0.11-0.04,0.16c-0.01,0.12,0.02,0.27,0.07,0.37c0.1,0.2,0.27,0.41,0.44,0.54
				c0.19,0.15,0.36,0.57,0.61,0.63c0.18,0.04,0.38-0.1,0.54-0.14c0.18-0.04,0.4,0.01,0.57-0.05c0.22-0.08,0.13-0.34,0.29-0.45
				c0.1-0.07,0.29-0.01,0.41-0.05c0.2-0.07,0.34-0.26,0.38-0.46c0.02-0.08,0.01-0.14,0.04-0.22c0.04-0.1,0.11-0.16,0.09-0.29
				c-0.01-0.06-0.05-0.12-0.06-0.19c-0.02-0.11,0-0.22,0-0.34c0-0.2,0.02-0.38-0.08-0.55c-0.38-0.69-1.24-0.93-1.97-0.79
				c-0.18,0.03-0.29,0.13-0.44,0.21c-0.17,0.09-0.14,0.17-0.32,0.22c-0.08,0.03-0.22,0.12-0.21,0.22c0,0.12,0,0.05,0.01,0.17
				c-0.02,0.01-0.02,0-0.03-0.03"/>
			<path class="st2" d="M31.11-71.65c0.02,0.07,0.01,0.13-0.03,0.19c-0.05,0.1-0.11,0.06-0.17,0.13c-0.05,0.06-0.1,0.28-0.08,0.36
				c-0.17,0.06-0.01,0.23-0.02,0.35c0,0.05-0.04,0.11-0.04,0.16c-0.01,0.12,0.02,0.27,0.07,0.37c0.1,0.2,0.27,0.41,0.44,0.54
				c0.19,0.15,0.36,0.57,0.61,0.63c0.18,0.04,0.38-0.1,0.54-0.14c0.18-0.04,0.4,0.01,0.57-0.05c0.22-0.08,0.13-0.34,0.29-0.45
				c0.1-0.07,0.29-0.01,0.41-0.05c0.2-0.07,0.34-0.26,0.38-0.46c0.02-0.08,0.01-0.14,0.04-0.22c0.04-0.1,0.11-0.16,0.09-0.29
				c-0.01-0.06-0.05-0.12-0.06-0.19c-0.02-0.11,0-0.22,0-0.34c0-0.2,0.02-0.38-0.08-0.55c-0.38-0.69-1.24-0.93-1.97-0.79
				c-0.18,0.03-0.29,0.13-0.44,0.21c-0.17,0.09-0.14,0.17-0.32,0.22c-0.08,0.03-0.22,0.12-0.21,0.22c0,0.12,0,0.05,0.01,0.17
				c-0.02,0.01-0.02,0-0.03-0.03"/>
			<path class="st2" d="M23.44-71.65c0.02,0.07,0.01,0.13-0.03,0.19c-0.05,0.1-0.11,0.06-0.17,0.13c-0.05,0.06-0.1,0.28-0.08,0.36
				c-0.17,0.06-0.01,0.23-0.02,0.35c0,0.05-0.04,0.11-0.04,0.16c-0.01,0.12,0.02,0.27,0.07,0.37c0.1,0.2,0.27,0.41,0.44,0.54
				c0.19,0.15,0.36,0.57,0.61,0.63c0.18,0.04,0.38-0.1,0.54-0.14c0.18-0.04,0.4,0.01,0.57-0.05c0.22-0.08,0.13-0.34,0.29-0.45
				c0.1-0.07,0.29-0.01,0.41-0.05c0.2-0.07,0.34-0.26,0.38-0.46c0.02-0.08,0.01-0.14,0.04-0.22c0.04-0.1,0.11-0.16,0.09-0.29
				c-0.01-0.06-0.05-0.12-0.06-0.19c-0.02-0.11,0-0.22,0-0.34c0-0.2,0.02-0.38-0.08-0.55c-0.38-0.69-1.24-0.93-1.97-0.79
				c-0.18,0.03-0.29,0.13-0.44,0.21c-0.17,0.09-0.14,0.17-0.32,0.22c-0.08,0.03-0.22,0.12-0.21,0.22c0,0.12,0,0.05,0.01,0.17
				c-0.02,0.01-0.02,0-0.03-0.03"/>
			<path class="st2" d="M15.77-71.65c0.02,0.07,0.01,0.13-0.03,0.19c-0.05,0.1-0.11,0.06-0.17,0.13c-0.05,0.06-0.1,0.28-0.08,0.36
				c-0.17,0.06-0.01,0.23-0.02,0.35c0,0.05-0.04,0.11-0.04,0.16c-0.01,0.12,0.02,0.27,0.07,0.37c0.1,0.2,0.27,0.41,0.44,0.54
				c0.19,0.15,0.36,0.57,0.61,0.63c0.18,0.04,0.38-0.1,0.54-0.14c0.18-0.04,0.4,0.01,0.57-0.05c0.22-0.08,0.13-0.34,0.29-0.45
				c0.1-0.07,0.29-0.01,0.41-0.05c0.2-0.07,0.34-0.26,0.38-0.46c0.02-0.08,0.01-0.14,0.04-0.22c0.04-0.1,0.11-0.16,0.09-0.29
				c-0.01-0.06-0.05-0.12-0.06-0.19c-0.02-0.11,0-0.22,0-0.34c0-0.2,0.02-0.38-0.08-0.55c-0.38-0.69-1.24-0.93-1.97-0.79
				c-0.18,0.03-0.29,0.13-0.44,0.21c-0.17,0.09-0.14,0.17-0.32,0.22c-0.08,0.03-0.22,0.12-0.21,0.22c0,0.12,0,0.05,0.01,0.17
				c-0.02,0.01-0.02,0-0.03-0.03"/>
			<path class="st2" d="M8.11-71.65c0.02,0.07,0.01,0.13-0.03,0.19c-0.05,0.1-0.11,0.06-0.17,0.13c-0.05,0.06-0.1,0.28-0.08,0.36
				c-0.17,0.06-0.01,0.23-0.02,0.35c0,0.05-0.04,0.11-0.04,0.16c-0.01,0.12,0.02,0.27,0.07,0.37c0.1,0.2,0.27,0.41,0.44,0.54
				c0.19,0.15,0.36,0.57,0.61,0.63c0.18,0.04,0.38-0.1,0.54-0.14c0.18-0.04,0.4,0.01,0.57-0.05c0.22-0.08,0.13-0.34,0.29-0.45
				c0.1-0.07,0.29-0.01,0.41-0.05c0.2-0.07,0.34-0.26,0.38-0.46c0.02-0.08,0.01-0.14,0.04-0.22c0.04-0.1,0.11-0.16,0.09-0.29
				c-0.01-0.06-0.05-0.12-0.06-0.19c-0.02-0.11,0-0.22,0-0.34c0-0.2,0.02-0.38-0.08-0.55c-0.38-0.69-1.24-0.93-1.97-0.79
				c-0.18,0.03-0.29,0.13-0.44,0.21c-0.17,0.09-0.14,0.17-0.32,0.22c-0.08,0.03-0.22,0.12-0.21,0.22c0,0.12,0,0.05,0.01,0.17
				c-0.02,0.01-0.02,0-0.03-0.03"/>
			<path class="st2" d="M0.44-71.65c0.02,0.07,0.01,0.13-0.03,0.19c-0.05,0.1-0.11,0.06-0.17,0.13c-0.05,0.06-0.1,0.28-0.08,0.36
				C0-70.92,0.16-70.75,0.15-70.62c0,0.05-0.04,0.11-0.04,0.16c-0.01,0.12,0.02,0.27,0.07,0.37c0.1,0.2,0.27,0.41,0.44,0.54
				c0.19,0.15,0.36,0.57,0.61,0.63c0.18,0.04,0.38-0.1,0.54-0.14c0.18-0.04,0.4,0.01,0.57-0.05c0.22-0.08,0.13-0.34,0.29-0.45
				c0.1-0.07,0.29-0.01,0.41-0.05c0.2-0.07,0.34-0.26,0.38-0.46c0.02-0.08,0.01-0.14,0.04-0.22c0.04-0.1,0.11-0.16,0.09-0.29
				c-0.01-0.06-0.05-0.12-0.06-0.19c-0.02-0.11,0-0.22,0-0.34c0-0.2,0.02-0.38-0.08-0.55c-0.38-0.69-1.24-0.93-1.97-0.79
				c-0.18,0.03-0.29,0.13-0.44,0.21c-0.17,0.09-0.14,0.17-0.32,0.22c-0.08,0.03-0.22,0.12-0.21,0.22c0,0.12,0,0.05,0.01,0.17
				c-0.02,0.01-0.02,0-0.03-0.03"/>
		</g>
		<g>
			<path class="st2" d="M69.44-71.65c0.02,0.07,0.01,0.13-0.03,0.19c-0.05,0.1-0.11,0.06-0.17,0.13c-0.05,0.06-0.1,0.28-0.08,0.36
				c-0.17,0.06-0.01,0.23-0.02,0.35c0,0.05-0.04,0.11-0.04,0.16c-0.01,0.12,0.02,0.27,0.07,0.37c0.1,0.2,0.27,0.41,0.44,0.54
				c0.19,0.15,0.36,0.57,0.61,0.63c0.18,0.04,0.38-0.1,0.54-0.14c0.18-0.04,0.4,0.01,0.57-0.05c0.22-0.08,0.13-0.34,0.29-0.45
				c0.1-0.07,0.29-0.01,0.41-0.05c0.2-0.07,0.34-0.26,0.38-0.46c0.02-0.08,0.01-0.14,0.04-0.22c0.04-0.1,0.11-0.16,0.09-0.29
				c-0.01-0.06-0.05-0.12-0.06-0.19c-0.02-0.11,0-0.22,0-0.34c0-0.2,0.02-0.38-0.08-0.55c-0.38-0.69-1.24-0.93-1.97-0.79
				c-0.18,0.03-0.29,0.13-0.44,0.21c-0.17,0.09-0.14,0.17-0.32,0.22c-0.08,0.03-0.22,0.12-0.21,0.22c0,0.12,0,0.05,0.01,0.17
				c-0.02,0.01-0.02,0-0.03-0.03"/>
		</g>
		<path class="st2" d="M0.5-71.65c0.02,0.07,0.01,0.13-0.03,0.19c-0.05,0.1-0.11,0.06-0.17,0.13c-0.05,0.06-0.1,0.28-0.08,0.36
			c-0.17,0.06-0.01,0.23-0.02,0.35c0,0.05-0.04,0.11-0.04,0.16c-0.01,0.12,0.02,0.27,0.07,0.37c0.1,0.2,0.27,0.41,0.44,0.54
			c0.19,0.15,0.36,0.57,0.61,0.63c0.18,0.04,0.38-0.1,0.54-0.14c0.18-0.04,0.4,0.01,0.57-0.05c0.22-0.08,0.13-0.34,0.29-0.45
			c0.1-0.07,0.29-0.01,0.41-0.05c0.2-0.07,0.34-0.26,0.38-0.46c0.02-0.08,0.01-0.14,0.04-0.22c0.04-0.1,0.11-0.16,0.09-0.29
			c-0.01-0.06-0.05-0.12-0.06-0.19c-0.02-0.11,0-0.22,0-0.34c0-0.2,0.02-0.38-0.08-0.55c-0.38-0.69-1.24-0.93-1.97-0.79
			c-0.18,0.03-0.29,0.13-0.44,0.21c-0.17,0.09-0.14,0.17-0.32,0.22c-0.08,0.03-0.22,0.12-0.21,0.22c0,0.12,0,0.05,0.01,0.17
			c-0.02,0.01-0.02,0-0.03-0.03"/>
		<g>
			<g>
				<path class="st2" d="M69.44-64c0.02,0.07,0.01,0.13-0.03,0.19c-0.05,0.1-0.11,0.06-0.17,0.13c-0.05,0.06-0.1,0.28-0.08,0.36
					c-0.17,0.06-0.01,0.23-0.02,0.35c0,0.05-0.04,0.11-0.04,0.16c-0.01,0.12,0.02,0.27,0.07,0.37c0.1,0.2,0.27,0.41,0.44,0.54
					c0.19,0.15,0.36,0.57,0.61,0.63c0.18,0.04,0.38-0.1,0.54-0.14c0.18-0.04,0.4,0.01,0.57-0.05c0.22-0.08,0.13-0.34,0.29-0.45
					c0.1-0.07,0.29-0.01,0.41-0.05c0.2-0.07,0.34-0.26,0.38-0.46c0.02-0.08,0.01-0.14,0.04-0.22c0.04-0.1,0.11-0.16,0.09-0.29
					c-0.01-0.06-0.05-0.12-0.06-0.19c-0.02-0.11,0-0.22,0-0.34c0-0.2,0.02-0.38-0.08-0.55c-0.38-0.69-1.24-0.93-1.97-0.79
					c-0.18,0.03-0.29,0.13-0.44,0.21c-0.17,0.09-0.14,0.17-0.32,0.22c-0.08,0.03-0.22,0.12-0.21,0.22c0,0.12,0,0.05,0.01,0.17
					c-0.02,0.01-0.02,0-0.03-0.03"/>
				<path class="st2" d="M61.78-64c0.02,0.07,0.01,0.13-0.03,0.19c-0.05,0.1-0.11,0.06-0.17,0.13c-0.05,0.06-0.1,0.28-0.08,0.36
					c-0.17,0.06-0.01,0.23-0.02,0.35c0,0.05-0.04,0.11-0.04,0.16c-0.01,0.12,0.02,0.27,0.07,0.37c0.1,0.2,0.27,0.41,0.44,0.54
					c0.19,0.15,0.36,0.57,0.61,0.63c0.18,0.04,0.38-0.1,0.54-0.14c0.18-0.04,0.4,0.01,0.57-0.05c0.22-0.08,0.13-0.34,0.29-0.45
					c0.1-0.07,0.29-0.01,0.41-0.05c0.2-0.07,0.34-0.26,0.38-0.46c0.02-0.08,0.01-0.14,0.04-0.22c0.04-0.1,0.11-0.16,0.09-0.29
					c-0.01-0.06-0.05-0.12-0.06-0.19c-0.02-0.11,0-0.22,0-0.34c0-0.2,0.02-0.38-0.08-0.55c-0.38-0.69-1.24-0.93-1.97-0.79
					c-0.18,0.03-0.29,0.13-0.44,0.21c-0.17,0.09-0.14,0.17-0.32,0.22c-0.08,0.03-0.22,0.12-0.21,0.22c0,0.12,0,0.05,0.01,0.17
					c-0.02,0.01-0.02,0-0.03-0.03"/>
				<path class="st2" d="M54.12-64c0.02,0.07,0.01,0.13-0.03,0.19c-0.05,0.1-0.11,0.06-0.17,0.13c-0.05,0.06-0.1,0.28-0.08,0.36
					c-0.17,0.06-0.01,0.23-0.02,0.35c0,0.05-0.04,0.11-0.04,0.16c-0.01,0.12,0.02,0.27,0.07,0.37c0.1,0.2,0.27,0.41,0.44,0.54
					c0.19,0.15,0.36,0.57,0.61,0.63c0.18,0.04,0.38-0.1,0.54-0.14c0.18-0.04,0.4,0.01,0.57-0.05c0.22-0.08,0.13-0.34,0.29-0.45
					c0.1-0.07,0.29-0.01,0.41-0.05c0.2-0.07,0.34-0.26,0.38-0.46c0.02-0.08,0.01-0.14,0.04-0.22c0.04-0.1,0.11-0.16,0.09-0.29
					c-0.01-0.06-0.05-0.12-0.06-0.19c-0.02-0.11,0-0.22,0-0.34c0-0.2,0.02-0.38-0.08-0.55c-0.38-0.69-1.24-0.93-1.97-0.79
					c-0.18,0.03-0.29,0.13-0.44,0.21c-0.17,0.09-0.14,0.17-0.32,0.22c-0.08,0.03-0.22,0.12-0.21,0.22c0,0.12,0,0.05,0.01,0.17
					c-0.02,0.01-0.02,0-0.03-0.03"/>
				<path class="st2" d="M46.46-64c0.02,0.07,0.01,0.13-0.03,0.19c-0.05,0.1-0.11,0.06-0.17,0.13c-0.05,0.06-0.1,0.28-0.08,0.36
					c-0.17,0.06-0.01,0.23-0.02,0.35c0,0.05-0.04,0.11-0.04,0.16c-0.01,0.12,0.02,0.27,0.07,0.37c0.1,0.2,0.27,0.41,0.44,0.54
					c0.19,0.15,0.36,0.57,0.61,0.63c0.18,0.04,0.38-0.1,0.54-0.14c0.18-0.04,0.4,0.01,0.57-0.05c0.22-0.08,0.13-0.34,0.29-0.45
					c0.1-0.07,0.29-0.01,0.41-0.05c0.2-0.07,0.34-0.26,0.38-0.46c0.02-0.08,0.01-0.14,0.04-0.22c0.04-0.1,0.11-0.16,0.09-0.29
					c-0.01-0.06-0.05-0.12-0.06-0.19c-0.02-0.11,0-0.22,0-0.34c0-0.2,0.02-0.38-0.08-0.55c-0.38-0.69-1.24-0.93-1.97-0.79
					c-0.18,0.03-0.29,0.13-0.44,0.21c-0.17,0.09-0.14,0.17-0.32,0.22c-0.08,0.03-0.22,0.12-0.21,0.22c0,0.12,0,0.05,0.01,0.17
					c-0.02,0.01-0.02,0-0.03-0.03"/>
				<path class="st2" d="M38.8-64c0.02,0.07,0.01,0.13-0.03,0.19c-0.05,0.1-0.11,0.06-0.17,0.13c-0.05,0.06-0.1,0.28-0.08,0.36
					c-0.17,0.06-0.01,0.23-0.02,0.35c0,0.05-0.04,0.11-0.04,0.16c-0.01,0.12,0.02,0.27,0.07,0.37c0.1,0.2,0.27,0.41,0.44,0.54
					c0.19,0.15,0.36,0.57,0.61,0.63c0.18,0.04,0.38-0.1,0.54-0.14c0.18-0.04,0.4,0.01,0.57-0.05c0.22-0.08,0.13-0.34,0.29-0.45
					c0.1-0.07,0.29-0.01,0.41-0.05c0.2-0.07,0.34-0.26,0.38-0.46c0.02-0.08,0.01-0.14,0.04-0.22c0.04-0.1,0.11-0.16,0.09-0.29
					c-0.01-0.06-0.05-0.12-0.06-0.19c-0.02-0.11,0-0.22,0-0.34c0-0.2,0.02-0.38-0.08-0.55c-0.38-0.69-1.24-0.93-1.97-0.79
					c-0.18,0.03-0.29,0.13-0.44,0.21c-0.17,0.09-0.14,0.17-0.32,0.22c-0.08,0.03-0.22,0.12-0.21,0.22c0,0.12,0,0.05,0.01,0.17
					c-0.02,0.01-0.02,0-0.03-0.03"/>
				<path class="st2" d="M31.14-64c0.02,0.07,0.01,0.13-0.03,0.19c-0.05,0.1-0.11,0.06-0.17,0.13c-0.05,0.06-0.1,0.28-0.08,0.36
					c-0.17,0.06-0.01,0.23-0.02,0.35c0,0.05-0.04,0.11-0.04,0.16c-0.01,0.12,0.02,0.27,0.07,0.37c0.1,0.2,0.27,0.41,0.44,0.54
					c0.19,0.15,0.36,0.57,0.61,0.63c0.18,0.04,0.38-0.1,0.54-0.14c0.18-0.04,0.4,0.01,0.57-0.05c0.22-0.08,0.13-0.34,0.29-0.45
					c0.1-0.07,0.29-0.01,0.41-0.05c0.2-0.07,0.34-0.26,0.38-0.46c0.02-0.08,0.01-0.14,0.04-0.22c0.04-0.1,0.11-0.16,0.09-0.29
					c-0.01-0.06-0.05-0.12-0.06-0.19c-0.02-0.11,0-0.22,0-0.34c0-0.2,0.02-0.38-0.08-0.55c-0.38-0.69-1.24-0.93-1.97-0.79
					c-0.18,0.03-0.29,0.13-0.44,0.21c-0.17,0.09-0.14,0.17-0.32,0.22c-0.08,0.03-0.22,0.12-0.21,0.22c0,0.12,0,0.05,0.01,0.17
					c-0.02,0.01-0.02,0-0.03-0.03"/>
				<path class="st2" d="M23.48-64c0.02,0.07,0.01,0.13-0.03,0.19c-0.05,0.1-0.11,0.06-0.17,0.13c-0.05,0.06-0.1,0.28-0.08,0.36
					c-0.17,0.06-0.01,0.23-0.02,0.35c0,0.05-0.04,0.11-0.04,0.16c-0.01,0.12,0.02,0.27,0.07,0.37c0.1,0.2,0.27,0.41,0.44,0.54
					c0.19,0.15,0.36,0.57,0.61,0.63c0.18,0.04,0.38-0.1,0.54-0.14c0.18-0.04,0.4,0.01,0.57-0.05c0.22-0.08,0.13-0.34,0.29-0.45
					c0.1-0.07,0.29-0.01,0.41-0.05c0.2-0.07,0.34-0.26,0.38-0.46c0.02-0.08,0.01-0.14,0.04-0.22c0.04-0.1,0.11-0.16,0.09-0.29
					c-0.01-0.06-0.05-0.12-0.06-0.19c-0.02-0.11,0-0.22,0-0.34c0-0.2,0.02-0.38-0.08-0.55c-0.38-0.69-1.24-0.93-1.97-0.79
					c-0.18,0.03-0.29,0.13-0.44,0.21c-0.17,0.09-0.14,0.17-0.32,0.22c-0.08,0.03-0.22,0.12-0.21,0.22c0,0.12,0,0.05,0.01,0.17
					c-0.02,0.01-0.02,0-0.03-0.03"/>
				<path class="st2" d="M15.82-64c0.02,0.07,0.01,0.13-0.03,0.19c-0.05,0.1-0.11,0.06-0.17,0.13c-0.05,0.06-0.1,0.28-0.08,0.36
					c-0.17,0.06-0.01,0.23-0.02,0.35c0,0.05-0.04,0.11-0.04,0.16c-0.01,0.12,0.02,0.27,0.07,0.37c0.1,0.2,0.27,0.41,0.44,0.54
					c0.19,0.15,0.36,0.57,0.61,0.63c0.18,0.04,0.38-0.1,0.54-0.14c0.18-0.04,0.4,0.01,0.57-0.05c0.22-0.08,0.13-0.34,0.29-0.45
					c0.1-0.07,0.29-0.01,0.41-0.05c0.2-0.07,0.34-0.26,0.38-0.46c0.02-0.08,0.01-0.14,0.04-0.22c0.04-0.1,0.11-0.16,0.09-0.29
					c-0.01-0.06-0.05-0.12-0.06-0.19c-0.02-0.11,0-0.22,0-0.34c0-0.2,0.02-0.38-0.08-0.55c-0.38-0.69-1.24-0.93-1.97-0.79
					c-0.18,0.03-0.29,0.13-0.44,0.21c-0.17,0.09-0.14,0.17-0.32,0.22c-0.08,0.03-0.22,0.12-0.21,0.22c0,0.12,0,0.05,0.01,0.17
					c-0.02,0.01-0.02,0-0.03-0.03"/>
				<path class="st2" d="M8.16-64c0.02,0.07,0.01,0.13-0.03,0.19c-0.05,0.1-0.11,0.06-0.17,0.13c-0.05,0.06-0.1,0.28-0.08,0.36
					c-0.17,0.06-0.01,0.23-0.02,0.35c0,0.05-0.04,0.11-0.04,0.16c-0.01,0.12,0.02,0.27,0.07,0.37c0.1,0.2,0.27,0.41,0.44,0.54
					c0.19,0.15,0.36,0.57,0.61,0.63c0.18,0.04,0.38-0.1,0.54-0.14c0.18-0.04,0.4,0.01,0.57-0.05c0.22-0.08,0.13-0.34,0.29-0.45
					c0.1-0.07,0.29-0.01,0.41-0.05c0.2-0.07,0.34-0.26,0.38-0.46c0.02-0.08,0.01-0.14,0.04-0.22c0.04-0.1,0.11-0.16,0.09-0.29
					c-0.01-0.06-0.05-0.12-0.06-0.19c-0.02-0.11,0-0.22,0-0.34c0-0.2,0.02-0.38-0.08-0.55c-0.38-0.69-1.24-0.93-1.97-0.79
					c-0.18,0.03-0.29,0.13-0.44,0.21c-0.17,0.09-0.14,0.17-0.32,0.22c-0.08,0.03-0.22,0.12-0.21,0.22c0,0.12,0,0.05,0.01,0.17
					c-0.02,0.01-0.02,0-0.03-0.03"/>
				<path class="st2" d="M0.5-64c0.02,0.07,0.01,0.13-0.03,0.19c-0.05,0.1-0.11,0.06-0.17,0.13c-0.05,0.06-0.1,0.28-0.08,0.36
					c-0.17,0.06-0.01,0.23-0.02,0.35c0,0.05-0.04,0.11-0.04,0.16c-0.01,0.12,0.02,0.27,0.07,0.37c0.1,0.2,0.27,0.41,0.44,0.54
					c0.19,0.15,0.36,0.57,0.61,0.63c0.18,0.04,0.38-0.1,0.54-0.14c0.18-0.04,0.4,0.01,0.57-0.05c0.22-0.08,0.13-0.34,0.29-0.45
					c0.1-0.07,0.29-0.01,0.41-0.05c0.2-0.07,0.34-0.26,0.38-0.46c0.02-0.08,0.01-0.14,0.04-0.22c0.04-0.1,0.11-0.16,0.09-0.29
					C3.58-63,3.54-63.05,3.53-63.12c-0.02-0.11,0-0.22,0-0.34c0-0.2,0.02-0.38-0.08-0.55c-0.38-0.69-1.24-0.93-1.97-0.79
					c-0.18,0.03-0.29,0.13-0.44,0.21c-0.17,0.09-0.14,0.17-0.32,0.22c-0.08,0.03-0.22,0.12-0.21,0.22c0,0.12,0,0.05,0.01,0.17
					c-0.02,0.01-0.02,0-0.03-0.03"/>
			</g>
			<g>
				<path class="st2" d="M69.44-56.35c0.02,0.07,0.01,0.13-0.03,0.19c-0.05,0.1-0.11,0.06-0.17,0.13c-0.05,0.06-0.1,0.28-0.08,0.36
					c-0.17,0.06-0.01,0.23-0.02,0.35c0,0.05-0.04,0.11-0.04,0.16c-0.01,0.12,0.02,0.27,0.07,0.37c0.1,0.2,0.27,0.41,0.44,0.54
					c0.19,0.15,0.36,0.57,0.61,0.63c0.18,0.04,0.38-0.1,0.54-0.14c0.18-0.04,0.4,0.01,0.57-0.05c0.22-0.08,0.13-0.34,0.29-0.45
					c0.1-0.07,0.29-0.01,0.41-0.05c0.2-0.07,0.34-0.26,0.38-0.46c0.02-0.08,0.01-0.14,0.04-0.22c0.04-0.1,0.11-0.16,0.09-0.29
					c-0.01-0.06-0.05-0.12-0.06-0.19c-0.02-0.11,0-0.22,0-0.34c0-0.2,0.02-0.38-0.08-0.55c-0.38-0.69-1.24-0.93-1.97-0.79
					c-0.18,0.03-0.29,0.13-0.44,0.21c-0.17,0.09-0.14,0.17-0.32,0.22c-0.08,0.03-0.22,0.12-0.21,0.22c0,0.12,0,0.05,0.01,0.17
					c-0.02,0.01-0.02,0-0.03-0.03"/>
				<path class="st2" d="M61.78-56.35c0.02,0.07,0.01,0.13-0.03,0.19c-0.05,0.1-0.11,0.06-0.17,0.13c-0.05,0.06-0.1,0.28-0.08,0.36
					c-0.17,0.06-0.01,0.23-0.02,0.35c0,0.05-0.04,0.11-0.04,0.16c-0.01,0.12,0.02,0.27,0.07,0.37c0.1,0.2,0.27,0.41,0.44,0.54
					c0.19,0.15,0.36,0.57,0.61,0.63c0.18,0.04,0.38-0.1,0.54-0.14c0.18-0.04,0.4,0.01,0.57-0.05c0.22-0.08,0.13-0.34,0.29-0.45
					c0.1-0.07,0.29-0.01,0.41-0.05c0.2-0.07,0.34-0.26,0.38-0.46c0.02-0.08,0.01-0.14,0.04-0.22c0.04-0.1,0.11-0.16,0.09-0.29
					c-0.01-0.06-0.05-0.12-0.06-0.19c-0.02-0.11,0-0.22,0-0.34c0-0.2,0.02-0.38-0.08-0.55c-0.38-0.69-1.24-0.93-1.97-0.79
					c-0.18,0.03-0.29,0.13-0.44,0.21c-0.17,0.09-0.14,0.17-0.32,0.22c-0.08,0.03-0.22,0.12-0.21,0.22c0,0.12,0,0.05,0.01,0.17
					c-0.02,0.01-0.02,0-0.03-0.03"/>
				<path class="st2" d="M54.12-56.35c0.02,0.07,0.01,0.13-0.03,0.19c-0.05,0.1-0.11,0.06-0.17,0.13c-0.05,0.06-0.1,0.28-0.08,0.36
					c-0.17,0.06-0.01,0.23-0.02,0.35c0,0.05-0.04,0.11-0.04,0.16c-0.01,0.12,0.02,0.27,0.07,0.37c0.1,0.2,0.27,0.41,0.44,0.54
					c0.19,0.15,0.36,0.57,0.61,0.63c0.18,0.04,0.38-0.1,0.54-0.14c0.18-0.04,0.4,0.01,0.57-0.05c0.22-0.08,0.13-0.34,0.29-0.45
					c0.1-0.07,0.29-0.01,0.41-0.05c0.2-0.07,0.34-0.26,0.38-0.46c0.02-0.08,0.01-0.14,0.04-0.22c0.04-0.1,0.11-0.16,0.09-0.29
					c-0.01-0.06-0.05-0.12-0.06-0.19c-0.02-0.11,0-0.22,0-0.34c0-0.2,0.02-0.38-0.08-0.55c-0.38-0.69-1.24-0.93-1.97-0.79
					c-0.18,0.03-0.29,0.13-0.44,0.21c-0.17,0.09-0.14,0.17-0.32,0.22c-0.08,0.03-0.22,0.12-0.21,0.22c0,0.12,0,0.05,0.01,0.17
					c-0.02,0.01-0.02,0-0.03-0.03"/>
				<path class="st2" d="M46.46-56.35c0.02,0.07,0.01,0.13-0.03,0.19c-0.05,0.1-0.11,0.06-0.17,0.13c-0.05,0.06-0.1,0.28-0.08,0.36
					c-0.17,0.06-0.01,0.23-0.02,0.35c0,0.05-0.04,0.11-0.04,0.16c-0.01,0.12,0.02,0.27,0.07,0.37c0.1,0.2,0.27,0.41,0.44,0.54
					c0.19,0.15,0.36,0.57,0.61,0.63c0.18,0.04,0.38-0.1,0.54-0.14c0.18-0.04,0.4,0.01,0.57-0.05c0.22-0.08,0.13-0.34,0.29-0.45
					c0.1-0.07,0.29-0.01,0.41-0.05c0.2-0.07,0.34-0.26,0.38-0.46c0.02-0.08,0.01-0.14,0.04-0.22c0.04-0.1,0.11-0.16,0.09-0.29
					c-0.01-0.06-0.05-0.12-0.06-0.19c-0.02-0.11,0-0.22,0-0.34c0-0.2,0.02-0.38-0.08-0.55c-0.38-0.69-1.24-0.93-1.97-0.79
					c-0.18,0.03-0.29,0.13-0.44,0.21c-0.17,0.09-0.14,0.17-0.32,0.22c-0.08,0.03-0.22,0.12-0.21,0.22c0,0.12,0,0.05,0.01,0.17
					c-0.02,0.01-0.02,0-0.03-0.03"/>
				<path class="st2" d="M38.8-56.35c0.02,0.07,0.01,0.13-0.03,0.19c-0.05,0.1-0.11,0.06-0.17,0.13c-0.05,0.06-0.1,0.28-0.08,0.36
					c-0.17,0.06-0.01,0.23-0.02,0.35c0,0.05-0.04,0.11-0.04,0.16c-0.01,0.12,0.02,0.27,0.07,0.37c0.1,0.2,0.27,0.41,0.44,0.54
					c0.19,0.15,0.36,0.57,0.61,0.63c0.18,0.04,0.38-0.1,0.54-0.14c0.18-0.04,0.4,0.01,0.57-0.05c0.22-0.08,0.13-0.34,0.29-0.45
					c0.1-0.07,0.29-0.01,0.41-0.05c0.2-0.07,0.34-0.26,0.38-0.46c0.02-0.08,0.01-0.14,0.04-0.22c0.04-0.1,0.11-0.16,0.09-0.29
					c-0.01-0.06-0.05-0.12-0.06-0.19c-0.02-0.11,0-0.22,0-0.34c0-0.2,0.02-0.38-0.08-0.55c-0.38-0.69-1.24-0.93-1.97-0.79
					c-0.18,0.03-0.29,0.13-0.44,0.21c-0.17,0.09-0.14,0.17-0.32,0.22c-0.08,0.03-0.22,0.12-0.21,0.22c0,0.12,0,0.05,0.01,0.17
					c-0.02,0.01-0.02,0-0.03-0.03"/>
				<path class="st2" d="M31.14-56.35c0.02,0.07,0.01,0.13-0.03,0.19c-0.05,0.1-0.11,0.06-0.17,0.13c-0.05,0.06-0.1,0.28-0.08,0.36
					c-0.17,0.06-0.01,0.23-0.02,0.35c0,0.05-0.04,0.11-0.04,0.16c-0.01,0.12,0.02,0.27,0.07,0.37c0.1,0.2,0.27,0.41,0.44,0.54
					c0.19,0.15,0.36,0.57,0.61,0.63c0.18,0.04,0.38-0.1,0.54-0.14c0.18-0.04,0.4,0.01,0.57-0.05c0.22-0.08,0.13-0.34,0.29-0.45
					c0.1-0.07,0.29-0.01,0.41-0.05c0.2-0.07,0.34-0.26,0.38-0.46c0.02-0.08,0.01-0.14,0.04-0.22c0.04-0.1,0.11-0.16,0.09-0.29
					c-0.01-0.06-0.05-0.12-0.06-0.19c-0.02-0.11,0-0.22,0-0.34c0-0.2,0.02-0.38-0.08-0.55c-0.38-0.69-1.24-0.93-1.97-0.79
					c-0.18,0.03-0.29,0.13-0.44,0.21c-0.17,0.09-0.14,0.17-0.32,0.22c-0.08,0.03-0.22,0.12-0.21,0.22c0,0.12,0,0.05,0.01,0.17
					c-0.02,0.01-0.02,0-0.03-0.03"/>
				<path class="st2" d="M23.48-56.35c0.02,0.07,0.01,0.13-0.03,0.19c-0.05,0.1-0.11,0.06-0.17,0.13c-0.05,0.06-0.1,0.28-0.08,0.36
					c-0.17,0.06-0.01,0.23-0.02,0.35c0,0.05-0.04,0.11-0.04,0.16c-0.01,0.12,0.02,0.27,0.07,0.37c0.1,0.2,0.27,0.41,0.44,0.54
					c0.19,0.15,0.36,0.57,0.61,0.63c0.18,0.04,0.38-0.1,0.54-0.14c0.18-0.04,0.4,0.01,0.57-0.05c0.22-0.08,0.13-0.34,0.29-0.45
					c0.1-0.07,0.29-0.01,0.41-0.05c0.2-0.07,0.34-0.26,0.38-0.46c0.02-0.08,0.01-0.14,0.04-0.22c0.04-0.1,0.11-0.16,0.09-0.29
					c-0.01-0.06-0.05-0.12-0.06-0.19c-0.02-0.11,0-0.22,0-0.34c0-0.2,0.02-0.38-0.08-0.55c-0.38-0.69-1.24-0.93-1.97-0.79
					c-0.18,0.03-0.29,0.13-0.44,0.21c-0.17,0.09-0.14,0.17-0.32,0.22c-0.08,0.03-0.22,0.12-0.21,0.22c0,0.12,0,0.05,0.01,0.17
					c-0.02,0.01-0.02,0-0.03-0.03"/>
				<path class="st2" d="M15.82-56.35c0.02,0.07,0.01,0.13-0.03,0.19c-0.05,0.1-0.11,0.06-0.17,0.13c-0.05,0.06-0.1,0.28-0.08,0.36
					c-0.17,0.06-0.01,0.23-0.02,0.35c0,0.05-0.04,0.11-0.04,0.16c-0.01,0.12,0.02,0.27,0.07,0.37c0.1,0.2,0.27,0.41,0.44,0.54
					c0.19,0.15,0.36,0.57,0.61,0.63c0.18,0.04,0.38-0.1,0.54-0.14c0.18-0.04,0.4,0.01,0.57-0.05c0.22-0.08,0.13-0.34,0.29-0.45
					c0.1-0.07,0.29-0.01,0.41-0.05c0.2-0.07,0.34-0.26,0.38-0.46c0.02-0.08,0.01-0.14,0.04-0.22c0.04-0.1,0.11-0.16,0.09-0.29
					c-0.01-0.06-0.05-0.12-0.06-0.19c-0.02-0.11,0-0.22,0-0.34c0-0.2,0.02-0.38-0.08-0.55c-0.38-0.69-1.24-0.93-1.97-0.79
					c-0.18,0.03-0.29,0.13-0.44,0.21c-0.17,0.09-0.14,0.17-0.32,0.22c-0.08,0.03-0.22,0.12-0.21,0.22c0,0.12,0,0.05,0.01,0.17
					c-0.02,0.01-0.02,0-0.03-0.03"/>
				<path class="st2" d="M8.16-56.35c0.02,0.07,0.01,0.13-0.03,0.19c-0.05,0.1-0.11,0.06-0.17,0.13c-0.05,0.06-0.1,0.28-0.08,0.36
					c-0.17,0.06-0.01,0.23-0.02,0.35c0,0.05-0.04,0.11-0.04,0.16c-0.01,0.12,0.02,0.27,0.07,0.37c0.1,0.2,0.27,0.41,0.44,0.54
					c0.19,0.15,0.36,0.57,0.61,0.63c0.18,0.04,0.38-0.1,0.54-0.14c0.18-0.04,0.4,0.01,0.57-0.05c0.22-0.08,0.13-0.34,0.29-0.45
					c0.1-0.07,0.29-0.01,0.41-0.05c0.2-0.07,0.34-0.26,0.38-0.46c0.02-0.08,0.01-0.14,0.04-0.22c0.04-0.1,0.11-0.16,0.09-0.29
					c-0.01-0.06-0.05-0.12-0.06-0.19c-0.02-0.11,0-0.22,0-0.34c0-0.2,0.02-0.38-0.08-0.55c-0.38-0.69-1.24-0.93-1.97-0.79
					c-0.18,0.03-0.29,0.13-0.44,0.21c-0.17,0.09-0.14,0.17-0.32,0.22c-0.08,0.03-0.22,0.12-0.21,0.22c0,0.12,0,0.05,0.01,0.17
					c-0.02,0.01-0.02,0-0.03-0.03"/>
				<path class="st2" d="M0.5-56.35c0.02,0.07,0.01,0.13-0.03,0.19c-0.05,0.1-0.11,0.06-0.17,0.13c-0.05,0.06-0.1,0.28-0.08,0.36
					c-0.17,0.06-0.01,0.23-0.02,0.35c0,0.05-0.04,0.11-0.04,0.16c-0.01,0.12,0.02,0.27,0.07,0.37c0.1,0.2,0.27,0.41,0.44,0.54
					c0.19,0.15,0.36,0.57,0.61,0.63c0.18,0.04,0.38-0.1,0.54-0.14c0.18-0.04,0.4,0.01,0.57-0.05c0.22-0.08,0.13-0.34,0.29-0.45
					c0.1-0.07,0.29-0.01,0.41-0.05c0.2-0.07,0.34-0.26,0.38-0.46c0.02-0.08,0.01-0.14,0.04-0.22c0.04-0.1,0.11-0.16,0.09-0.29
					c-0.01-0.06-0.05-0.12-0.06-0.19c-0.02-0.11,0-0.22,0-0.34c0-0.2,0.02-0.38-0.08-0.55c-0.38-0.69-1.24-0.93-1.97-0.79
					c-0.18,0.03-0.29,0.13-0.44,0.21c-0.17,0.09-0.14,0.17-0.32,0.22c-0.08,0.03-0.22,0.12-0.21,0.22c0,0.12,0,0.05,0.01,0.17
					c-0.02,0.01-0.02,0-0.03-0.03"/>
			</g>
			<g>
				<path class="st2" d="M69.44-48.7c0.02,0.07,0.01,0.13-0.03,0.19c-0.05,0.1-0.11,0.06-0.17,0.13c-0.05,0.06-0.1,0.28-0.08,0.36
					c-0.17,0.06-0.01,0.23-0.02,0.35c0,0.05-0.04,0.11-0.04,0.16c-0.01,0.12,0.02,0.27,0.07,0.37c0.1,0.2,0.27,0.41,0.44,0.54
					c0.19,0.15,0.36,0.57,0.61,0.63c0.18,0.04,0.38-0.1,0.54-0.14c0.18-0.04,0.4,0.01,0.57-0.05c0.22-0.08,0.13-0.34,0.29-0.45
					c0.1-0.07,0.29-0.01,0.41-0.05c0.2-0.07,0.34-0.26,0.38-0.46c0.02-0.08,0.01-0.14,0.04-0.22c0.04-0.1,0.11-0.16,0.09-0.29
					c-0.01-0.06-0.05-0.12-0.06-0.19c-0.02-0.11,0-0.22,0-0.34c0-0.2,0.02-0.38-0.08-0.55c-0.38-0.69-1.24-0.93-1.97-0.79
					c-0.18,0.03-0.29,0.13-0.44,0.21c-0.17,0.09-0.14,0.17-0.32,0.22c-0.08,0.03-0.22,0.12-0.21,0.22c0,0.12,0,0.05,0.01,0.17
					c-0.02,0.01-0.02,0-0.03-0.03"/>
				<path class="st2" d="M61.78-48.7c0.02,0.07,0.01,0.13-0.03,0.19c-0.05,0.1-0.11,0.06-0.17,0.13c-0.05,0.06-0.1,0.28-0.08,0.36
					c-0.17,0.06-0.01,0.23-0.02,0.35c0,0.05-0.04,0.11-0.04,0.16c-0.01,0.12,0.02,0.27,0.07,0.37c0.1,0.2,0.27,0.41,0.44,0.54
					c0.19,0.15,0.36,0.57,0.61,0.63c0.18,0.04,0.38-0.1,0.54-0.14c0.18-0.04,0.4,0.01,0.57-0.05c0.22-0.08,0.13-0.34,0.29-0.45
					c0.1-0.07,0.29-0.01,0.41-0.05c0.2-0.07,0.34-0.26,0.38-0.46c0.02-0.08,0.01-0.14,0.04-0.22c0.04-0.1,0.11-0.16,0.09-0.29
					c-0.01-0.06-0.05-0.12-0.06-0.19c-0.02-0.11,0-0.22,0-0.34c0-0.2,0.02-0.38-0.08-0.55c-0.38-0.69-1.24-0.93-1.97-0.79
					c-0.18,0.03-0.29,0.13-0.44,0.21c-0.17,0.09-0.14,0.17-0.32,0.22c-0.08,0.03-0.22,0.12-0.21,0.22c0,0.12,0,0.05,0.01,0.17
					c-0.02,0.01-0.02,0-0.03-0.03"/>
				<path class="st2" d="M54.12-48.7c0.02,0.07,0.01,0.13-0.03,0.19c-0.05,0.1-0.11,0.06-0.17,0.13c-0.05,0.06-0.1,0.28-0.08,0.36
					c-0.17,0.06-0.01,0.23-0.02,0.35c0,0.05-0.04,0.11-0.04,0.16c-0.01,0.12,0.02,0.27,0.07,0.37c0.1,0.2,0.27,0.41,0.44,0.54
					c0.19,0.15,0.36,0.57,0.61,0.63c0.18,0.04,0.38-0.1,0.54-0.14c0.18-0.04,0.4,0.01,0.57-0.05c0.22-0.08,0.13-0.34,0.29-0.45
					c0.1-0.07,0.29-0.01,0.41-0.05c0.2-0.07,0.34-0.26,0.38-0.46c0.02-0.08,0.01-0.14,0.04-0.22c0.04-0.1,0.11-0.16,0.09-0.29
					c-0.01-0.06-0.05-0.12-0.06-0.19c-0.02-0.11,0-0.22,0-0.34c0-0.2,0.02-0.38-0.08-0.55c-0.38-0.69-1.24-0.93-1.97-0.79
					c-0.18,0.03-0.29,0.13-0.44,0.21c-0.17,0.09-0.14,0.17-0.32,0.22c-0.08,0.03-0.22,0.12-0.21,0.22c0,0.12,0,0.05,0.01,0.17
					c-0.02,0.01-0.02,0-0.03-0.03"/>
				<path class="st2" d="M46.46-48.7c0.02,0.07,0.01,0.13-0.03,0.19c-0.05,0.1-0.11,0.06-0.17,0.13c-0.05,0.06-0.1,0.28-0.08,0.36
					c-0.17,0.06-0.01,0.23-0.02,0.35c0,0.05-0.04,0.11-0.04,0.16c-0.01,0.12,0.02,0.27,0.07,0.37c0.1,0.2,0.27,0.41,0.44,0.54
					c0.19,0.15,0.36,0.57,0.61,0.63c0.18,0.04,0.38-0.1,0.54-0.14c0.18-0.04,0.4,0.01,0.57-0.05c0.22-0.08,0.13-0.34,0.29-0.45
					c0.1-0.07,0.29-0.01,0.41-0.05c0.2-0.07,0.34-0.26,0.38-0.46c0.02-0.08,0.01-0.14,0.04-0.22c0.04-0.1,0.11-0.16,0.09-0.29
					c-0.01-0.06-0.05-0.12-0.06-0.19c-0.02-0.11,0-0.22,0-0.34c0-0.2,0.02-0.38-0.08-0.55c-0.38-0.69-1.24-0.93-1.97-0.79
					c-0.18,0.03-0.29,0.13-0.44,0.21c-0.17,0.09-0.14,0.17-0.32,0.22c-0.08,0.03-0.22,0.12-0.21,0.22c0,0.12,0,0.05,0.01,0.17
					c-0.02,0.01-0.02,0-0.03-0.03"/>
				<path class="st2" d="M38.8-48.7c0.02,0.07,0.01,0.13-0.03,0.19c-0.05,0.1-0.11,0.06-0.17,0.13c-0.05,0.06-0.1,0.28-0.08,0.36
					c-0.17,0.06-0.01,0.23-0.02,0.35c0,0.05-0.04,0.11-0.04,0.16c-0.01,0.12,0.02,0.27,0.07,0.37c0.1,0.2,0.27,0.41,0.44,0.54
					c0.19,0.15,0.36,0.57,0.61,0.63c0.18,0.04,0.38-0.1,0.54-0.14c0.18-0.04,0.4,0.01,0.57-0.05c0.22-0.08,0.13-0.34,0.29-0.45
					c0.1-0.07,0.29-0.01,0.41-0.05c0.2-0.07,0.34-0.26,0.38-0.46c0.02-0.08,0.01-0.14,0.04-0.22c0.04-0.1,0.11-0.16,0.09-0.29
					c-0.01-0.06-0.05-0.12-0.06-0.19c-0.02-0.11,0-0.22,0-0.34c0-0.2,0.02-0.38-0.08-0.55c-0.38-0.69-1.24-0.93-1.97-0.79
					c-0.18,0.03-0.29,0.13-0.44,0.21c-0.17,0.09-0.14,0.17-0.32,0.22c-0.08,0.03-0.22,0.12-0.21,0.22c0,0.12,0,0.05,0.01,0.17
					c-0.02,0.01-0.02,0-0.03-0.03"/>
				<path class="st2" d="M31.14-48.7c0.02,0.07,0.01,0.13-0.03,0.19c-0.05,0.1-0.11,0.06-0.17,0.13c-0.05,0.06-0.1,0.28-0.08,0.36
					c-0.17,0.06-0.01,0.23-0.02,0.35c0,0.05-0.04,0.11-0.04,0.16c-0.01,0.12,0.02,0.27,0.07,0.37c0.1,0.2,0.27,0.41,0.44,0.54
					c0.19,0.15,0.36,0.57,0.61,0.63c0.18,0.04,0.38-0.1,0.54-0.14c0.18-0.04,0.4,0.01,0.57-0.05c0.22-0.08,0.13-0.34,0.29-0.45
					c0.1-0.07,0.29-0.01,0.41-0.05c0.2-0.07,0.34-0.26,0.38-0.46c0.02-0.08,0.01-0.14,0.04-0.22c0.04-0.1,0.11-0.16,0.09-0.29
					c-0.01-0.06-0.05-0.12-0.06-0.19c-0.02-0.11,0-0.22,0-0.34c0-0.2,0.02-0.38-0.08-0.55c-0.38-0.69-1.24-0.93-1.97-0.79
					c-0.18,0.03-0.29,0.13-0.44,0.21c-0.17,0.09-0.14,0.17-0.32,0.22c-0.08,0.03-0.22,0.12-0.21,0.22c0,0.12,0,0.05,0.01,0.17
					c-0.02,0.01-0.02,0-0.03-0.03"/>
				<path class="st2" d="M23.48-48.7c0.02,0.07,0.01,0.13-0.03,0.19c-0.05,0.1-0.11,0.06-0.17,0.13c-0.05,0.06-0.1,0.28-0.08,0.36
					c-0.17,0.06-0.01,0.23-0.02,0.35c0,0.05-0.04,0.11-0.04,0.16c-0.01,0.12,0.02,0.27,0.07,0.37c0.1,0.2,0.27,0.41,0.44,0.54
					c0.19,0.15,0.36,0.57,0.61,0.63c0.18,0.04,0.38-0.1,0.54-0.14c0.18-0.04,0.4,0.01,0.57-0.05c0.22-0.08,0.13-0.34,0.29-0.45
					c0.1-0.07,0.29-0.01,0.41-0.05c0.2-0.07,0.34-0.26,0.38-0.46c0.02-0.08,0.01-0.14,0.04-0.22c0.04-0.1,0.11-0.16,0.09-0.29
					c-0.01-0.06-0.05-0.12-0.06-0.19c-0.02-0.11,0-0.22,0-0.34c0-0.2,0.02-0.38-0.08-0.55c-0.38-0.69-1.24-0.93-1.97-0.79
					c-0.18,0.03-0.29,0.13-0.44,0.21c-0.17,0.09-0.14,0.17-0.32,0.22c-0.08,0.03-0.22,0.12-0.21,0.22c0,0.12,0,0.05,0.01,0.17
					c-0.02,0.01-0.02,0-0.03-0.03"/>
				<path class="st2" d="M15.82-48.7c0.02,0.07,0.01,0.13-0.03,0.19c-0.05,0.1-0.11,0.06-0.17,0.13c-0.05,0.06-0.1,0.28-0.08,0.36
					c-0.17,0.06-0.01,0.23-0.02,0.35c0,0.05-0.04,0.11-0.04,0.16c-0.01,0.12,0.02,0.27,0.07,0.37c0.1,0.2,0.27,0.41,0.44,0.54
					c0.19,0.15,0.36,0.57,0.61,0.63c0.18,0.04,0.38-0.1,0.54-0.14c0.18-0.04,0.4,0.01,0.57-0.05c0.22-0.08,0.13-0.34,0.29-0.45
					c0.1-0.07,0.29-0.01,0.41-0.05c0.2-0.07,0.34-0.26,0.38-0.46c0.02-0.08,0.01-0.14,0.04-0.22c0.04-0.1,0.11-0.16,0.09-0.29
					c-0.01-0.06-0.05-0.12-0.06-0.19c-0.02-0.11,0-0.22,0-0.34c0-0.2,0.02-0.38-0.08-0.55c-0.38-0.69-1.24-0.93-1.97-0.79
					c-0.18,0.03-0.29,0.13-0.44,0.21c-0.17,0.09-0.14,0.17-0.32,0.22c-0.08,0.03-0.22,0.12-0.21,0.22c0,0.12,0,0.05,0.01,0.17
					c-0.02,0.01-0.02,0-0.03-0.03"/>
				<path class="st2" d="M8.16-48.7c0.02,0.07,0.01,0.13-0.03,0.19c-0.05,0.1-0.11,0.06-0.17,0.13c-0.05,0.06-0.1,0.28-0.08,0.36
					c-0.17,0.06-0.01,0.23-0.02,0.35c0,0.05-0.04,0.11-0.04,0.16c-0.01,0.12,0.02,0.27,0.07,0.37c0.1,0.2,0.27,0.41,0.44,0.54
					c0.19,0.15,0.36,0.57,0.61,0.63c0.18,0.04,0.38-0.1,0.54-0.14c0.18-0.04,0.4,0.01,0.57-0.05c0.22-0.08,0.13-0.34,0.29-0.45
					c0.1-0.07,0.29-0.01,0.41-0.05c0.2-0.07,0.34-0.26,0.38-0.46c0.02-0.08,0.01-0.14,0.04-0.22c0.04-0.1,0.11-0.16,0.09-0.29
					c-0.01-0.06-0.05-0.12-0.06-0.19c-0.02-0.11,0-0.22,0-0.34c0-0.2,0.02-0.38-0.08-0.55c-0.38-0.69-1.24-0.93-1.97-0.79
					c-0.18,0.03-0.29,0.13-0.44,0.21c-0.17,0.09-0.14,0.17-0.32,0.22c-0.08,0.03-0.22,0.12-0.21,0.22c0,0.12,0,0.05,0.01,0.17
					c-0.02,0.01-0.02,0-0.03-0.03"/>
				<path class="st2" d="M0.5-48.7c0.02,0.07,0.01,0.13-0.03,0.19c-0.05,0.1-0.11,0.06-0.17,0.13c-0.05,0.06-0.1,0.28-0.08,0.36
					c-0.17,0.06-0.01,0.23-0.02,0.35c0,0.05-0.04,0.11-0.04,0.16c-0.01,0.12,0.02,0.27,0.07,0.37c0.1,0.2,0.27,0.41,0.44,0.54
					c0.19,0.15,0.36,0.57,0.61,0.63c0.18,0.04,0.38-0.1,0.54-0.14c0.18-0.04,0.4,0.01,0.57-0.05c0.22-0.08,0.13-0.34,0.29-0.45
					c0.1-0.07,0.29-0.01,0.41-0.05c0.2-0.07,0.34-0.26,0.38-0.46c0.02-0.08,0.01-0.14,0.04-0.22c0.04-0.1,0.11-0.16,0.09-0.29
					c-0.01-0.06-0.05-0.12-0.06-0.19c-0.02-0.11,0-0.22,0-0.34c0-0.2,0.02-0.38-0.08-0.55c-0.38-0.69-1.24-0.93-1.97-0.79
					c-0.18,0.03-0.29,0.13-0.44,0.21c-0.17,0.09-0.14,0.17-0.32,0.22c-0.08,0.03-0.22,0.12-0.21,0.22c0,0.12,0,0.05,0.01,0.17
					c-0.02,0.01-0.02,0-0.03-0.03"/>
			</g>
			<g>
				<path class="st2" d="M69.44-41.04c0.02,0.07,0.01,0.13-0.03,0.19c-0.05,0.1-0.11,0.06-0.17,0.13c-0.05,0.06-0.1,0.28-0.08,0.36
					c-0.17,0.06-0.01,0.23-0.02,0.35c0,0.05-0.04,0.11-0.04,0.16c-0.01,0.12,0.02,0.27,0.07,0.37c0.1,0.2,0.27,0.41,0.44,0.54
					c0.19,0.15,0.36,0.57,0.61,0.63c0.18,0.04,0.38-0.1,0.54-0.14c0.18-0.04,0.4,0.01,0.57-0.05c0.22-0.08,0.13-0.34,0.29-0.45
					c0.1-0.07,0.29-0.01,0.41-0.05c0.2-0.07,0.34-0.26,0.38-0.46c0.02-0.08,0.01-0.14,0.04-0.22c0.04-0.1,0.11-0.16,0.09-0.29
					c-0.01-0.06-0.05-0.12-0.06-0.19c-0.02-0.11,0-0.22,0-0.34c0-0.2,0.02-0.38-0.08-0.55c-0.38-0.69-1.24-0.93-1.97-0.79
					c-0.18,0.03-0.29,0.13-0.44,0.21c-0.17,0.09-0.14,0.17-0.32,0.22c-0.08,0.03-0.22,0.12-0.21,0.22c0,0.12,0,0.05,0.01,0.17
					c-0.02,0.01-0.02,0-0.03-0.03"/>
				<path class="st2" d="M61.78-41.04c0.02,0.07,0.01,0.13-0.03,0.19c-0.05,0.1-0.11,0.06-0.17,0.13c-0.05,0.06-0.1,0.28-0.08,0.36
					c-0.17,0.06-0.01,0.23-0.02,0.35c0,0.05-0.04,0.11-0.04,0.16c-0.01,0.12,0.02,0.27,0.07,0.37c0.1,0.2,0.27,0.41,0.44,0.54
					c0.19,0.15,0.36,0.57,0.61,0.63c0.18,0.04,0.38-0.1,0.54-0.14c0.18-0.04,0.4,0.01,0.57-0.05c0.22-0.08,0.13-0.34,0.29-0.45
					c0.1-0.07,0.29-0.01,0.41-0.05c0.2-0.07,0.34-0.26,0.38-0.46c0.02-0.08,0.01-0.14,0.04-0.22c0.04-0.1,0.11-0.16,0.09-0.29
					c-0.01-0.06-0.05-0.12-0.06-0.19c-0.02-0.11,0-0.22,0-0.34c0-0.2,0.02-0.38-0.08-0.55c-0.38-0.69-1.24-0.93-1.97-0.79
					c-0.18,0.03-0.29,0.13-0.44,0.21c-0.17,0.09-0.14,0.17-0.32,0.22c-0.08,0.03-0.22,0.12-0.21,0.22c0,0.12,0,0.05,0.01,0.17
					c-0.02,0.01-0.02,0-0.03-0.03"/>
				<path class="st2" d="M54.12-41.04c0.02,0.07,0.01,0.13-0.03,0.19c-0.05,0.1-0.11,0.06-0.17,0.13c-0.05,0.06-0.1,0.28-0.08,0.36
					c-0.17,0.06-0.01,0.23-0.02,0.35c0,0.05-0.04,0.11-0.04,0.16c-0.01,0.12,0.02,0.27,0.07,0.37c0.1,0.2,0.27,0.41,0.44,0.54
					c0.19,0.15,0.36,0.57,0.61,0.63c0.18,0.04,0.38-0.1,0.54-0.14c0.18-0.04,0.4,0.01,0.57-0.05c0.22-0.08,0.13-0.34,0.29-0.45
					c0.1-0.07,0.29-0.01,0.41-0.05c0.2-0.07,0.34-0.26,0.38-0.46c0.02-0.08,0.01-0.14,0.04-0.22c0.04-0.1,0.11-0.16,0.09-0.29
					c-0.01-0.06-0.05-0.12-0.06-0.19c-0.02-0.11,0-0.22,0-0.34c0-0.2,0.02-0.38-0.08-0.55c-0.38-0.69-1.24-0.93-1.97-0.79
					c-0.18,0.03-0.29,0.13-0.44,0.21c-0.17,0.09-0.14,0.17-0.32,0.22c-0.08,0.03-0.22,0.12-0.21,0.22c0,0.12,0,0.05,0.01,0.17
					c-0.02,0.01-0.02,0-0.03-0.03"/>
				<path class="st2" d="M46.46-41.04c0.02,0.07,0.01,0.13-0.03,0.19c-0.05,0.1-0.11,0.06-0.17,0.13c-0.05,0.06-0.1,0.28-0.08,0.36
					c-0.17,0.06-0.01,0.23-0.02,0.35c0,0.05-0.04,0.11-0.04,0.16c-0.01,0.12,0.02,0.27,0.07,0.37c0.1,0.2,0.27,0.41,0.44,0.54
					c0.19,0.15,0.36,0.57,0.61,0.63c0.18,0.04,0.38-0.1,0.54-0.14c0.18-0.04,0.4,0.01,0.57-0.05c0.22-0.08,0.13-0.34,0.29-0.45
					c0.1-0.07,0.29-0.01,0.41-0.05c0.2-0.07,0.34-0.26,0.38-0.46c0.02-0.08,0.01-0.14,0.04-0.22c0.04-0.1,0.11-0.16,0.09-0.29
					c-0.01-0.06-0.05-0.12-0.06-0.19c-0.02-0.11,0-0.22,0-0.34c0-0.2,0.02-0.38-0.08-0.55c-0.38-0.69-1.24-0.93-1.97-0.79
					c-0.18,0.03-0.29,0.13-0.44,0.21c-0.17,0.09-0.14,0.17-0.32,0.22c-0.08,0.03-0.22,0.12-0.21,0.22c0,0.12,0,0.05,0.01,0.17
					c-0.02,0.01-0.02,0-0.03-0.03"/>
				<path class="st2" d="M38.8-41.04c0.02,0.07,0.01,0.13-0.03,0.19c-0.05,0.1-0.11,0.06-0.17,0.13c-0.05,0.06-0.1,0.28-0.08,0.36
					c-0.17,0.06-0.01,0.23-0.02,0.35c0,0.05-0.04,0.11-0.04,0.16c-0.01,0.12,0.02,0.27,0.07,0.37c0.1,0.2,0.27,0.41,0.44,0.54
					c0.19,0.15,0.36,0.57,0.61,0.63c0.18,0.04,0.38-0.1,0.54-0.14c0.18-0.04,0.4,0.01,0.57-0.05c0.22-0.08,0.13-0.34,0.29-0.45
					c0.1-0.07,0.29-0.01,0.41-0.05c0.2-0.07,0.34-0.26,0.38-0.46c0.02-0.08,0.01-0.14,0.04-0.22c0.04-0.1,0.11-0.16,0.09-0.29
					c-0.01-0.06-0.05-0.12-0.06-0.19c-0.02-0.11,0-0.22,0-0.34c0-0.2,0.02-0.38-0.08-0.55c-0.38-0.69-1.24-0.93-1.97-0.79
					c-0.18,0.03-0.29,0.13-0.44,0.21c-0.17,0.09-0.14,0.17-0.32,0.22c-0.08,0.03-0.22,0.12-0.21,0.22c0,0.12,0,0.05,0.01,0.17
					c-0.02,0.01-0.02,0-0.03-0.03"/>
				<path class="st2" d="M31.14-41.04c0.02,0.07,0.01,0.13-0.03,0.19c-0.05,0.1-0.11,0.06-0.17,0.13c-0.05,0.06-0.1,0.28-0.08,0.36
					c-0.17,0.06-0.01,0.23-0.02,0.35c0,0.05-0.04,0.11-0.04,0.16c-0.01,0.12,0.02,0.27,0.07,0.37c0.1,0.2,0.27,0.41,0.44,0.54
					c0.19,0.15,0.36,0.57,0.61,0.63c0.18,0.04,0.38-0.1,0.54-0.14c0.18-0.04,0.4,0.01,0.57-0.05c0.22-0.08,0.13-0.34,0.29-0.45
					c0.1-0.07,0.29-0.01,0.41-0.05c0.2-0.07,0.34-0.26,0.38-0.46c0.02-0.08,0.01-0.14,0.04-0.22c0.04-0.1,0.11-0.16,0.09-0.29
					c-0.01-0.06-0.05-0.12-0.06-0.19c-0.02-0.11,0-0.22,0-0.34c0-0.2,0.02-0.38-0.08-0.55c-0.38-0.69-1.24-0.93-1.97-0.79
					c-0.18,0.03-0.29,0.13-0.44,0.21c-0.17,0.09-0.14,0.17-0.32,0.22c-0.08,0.03-0.22,0.12-0.21,0.22c0,0.12,0,0.05,0.01,0.17
					c-0.02,0.01-0.02,0-0.03-0.03"/>
				<path class="st2" d="M23.48-41.04c0.02,0.07,0.01,0.13-0.03,0.19c-0.05,0.1-0.11,0.06-0.17,0.13c-0.05,0.06-0.1,0.28-0.08,0.36
					c-0.17,0.06-0.01,0.23-0.02,0.35c0,0.05-0.04,0.11-0.04,0.16c-0.01,0.12,0.02,0.27,0.07,0.37c0.1,0.2,0.27,0.41,0.44,0.54
					c0.19,0.15,0.36,0.57,0.61,0.63c0.18,0.04,0.38-0.1,0.54-0.14c0.18-0.04,0.4,0.01,0.57-0.05c0.22-0.08,0.13-0.34,0.29-0.45
					c0.1-0.07,0.29-0.01,0.41-0.05c0.2-0.07,0.34-0.26,0.38-0.46c0.02-0.08,0.01-0.14,0.04-0.22c0.04-0.1,0.11-0.16,0.09-0.29
					c-0.01-0.06-0.05-0.12-0.06-0.19c-0.02-0.11,0-0.22,0-0.34c0-0.2,0.02-0.38-0.08-0.55c-0.38-0.69-1.24-0.93-1.97-0.79
					c-0.18,0.03-0.29,0.13-0.44,0.21c-0.17,0.09-0.14,0.17-0.32,0.22c-0.08,0.03-0.22,0.12-0.21,0.22c0,0.12,0,0.05,0.01,0.17
					c-0.02,0.01-0.02,0-0.03-0.03"/>
				<path class="st2" d="M15.82-41.04c0.02,0.07,0.01,0.13-0.03,0.19c-0.05,0.1-0.11,0.06-0.17,0.13c-0.05,0.06-0.1,0.28-0.08,0.36
					c-0.17,0.06-0.01,0.23-0.02,0.35c0,0.05-0.04,0.11-0.04,0.16c-0.01,0.12,0.02,0.27,0.07,0.37c0.1,0.2,0.27,0.41,0.44,0.54
					c0.19,0.15,0.36,0.57,0.61,0.63c0.18,0.04,0.38-0.1,0.54-0.14c0.18-0.04,0.4,0.01,0.57-0.05c0.22-0.08,0.13-0.34,0.29-0.45
					c0.1-0.07,0.29-0.01,0.41-0.05c0.2-0.07,0.34-0.26,0.38-0.46c0.02-0.08,0.01-0.14,0.04-0.22c0.04-0.1,0.11-0.16,0.09-0.29
					c-0.01-0.06-0.05-0.12-0.06-0.19c-0.02-0.11,0-0.22,0-0.34c0-0.2,0.02-0.38-0.08-0.55c-0.38-0.69-1.24-0.93-1.97-0.79
					c-0.18,0.03-0.29,0.13-0.44,0.21c-0.17,0.09-0.14,0.17-0.32,0.22c-0.08,0.03-0.22,0.12-0.21,0.22c0,0.12,0,0.05,0.01,0.17
					c-0.02,0.01-0.02,0-0.03-0.03"/>
				<path class="st2" d="M8.16-41.04c0.02,0.07,0.01,0.13-0.03,0.19c-0.05,0.1-0.11,0.06-0.17,0.13c-0.05,0.06-0.1,0.28-0.08,0.36
					c-0.17,0.06-0.01,0.23-0.02,0.35c0,0.05-0.04,0.11-0.04,0.16c-0.01,0.12,0.02,0.27,0.07,0.37c0.1,0.2,0.27,0.41,0.44,0.54
					c0.19,0.15,0.36,0.57,0.61,0.63c0.18,0.04,0.38-0.1,0.54-0.14c0.18-0.04,0.4,0.01,0.57-0.05c0.22-0.08,0.13-0.34,0.29-0.45
					c0.1-0.07,0.29-0.01,0.41-0.05c0.2-0.07,0.34-0.26,0.38-0.46c0.02-0.08,0.01-0.14,0.04-0.22c0.04-0.1,0.11-0.16,0.09-0.29
					c-0.01-0.06-0.05-0.12-0.06-0.19c-0.02-0.11,0-0.22,0-0.34c0-0.2,0.02-0.38-0.08-0.55c-0.38-0.69-1.24-0.93-1.97-0.79
					c-0.18,0.03-0.29,0.13-0.44,0.21c-0.17,0.09-0.14,0.17-0.32,0.22c-0.08,0.03-0.22,0.12-0.21,0.22c0,0.12,0,0.05,0.01,0.17
					c-0.02,0.01-0.02,0-0.03-0.03"/>
				<path class="st2" d="M0.5-41.04c0.02,0.07,0.01,0.13-0.03,0.19c-0.05,0.1-0.11,0.06-0.17,0.13c-0.05,0.06-0.1,0.28-0.08,0.36
					c-0.17,0.06-0.01,0.23-0.02,0.35c0,0.05-0.04,0.11-0.04,0.16c-0.01,0.12,0.02,0.27,0.07,0.37c0.1,0.2,0.27,0.41,0.44,0.54
					c0.19,0.15,0.36,0.57,0.61,0.63c0.18,0.04,0.38-0.1,0.54-0.14c0.18-0.04,0.4,0.01,0.57-0.05c0.22-0.08,0.13-0.34,0.29-0.45
					c0.1-0.07,0.29-0.01,0.41-0.05c0.2-0.07,0.34-0.26,0.38-0.46c0.02-0.08,0.01-0.14,0.04-0.22c0.04-0.1,0.11-0.16,0.09-0.29
					c-0.01-0.06-0.05-0.12-0.06-0.19c-0.02-0.11,0-0.22,0-0.34c0-0.2,0.02-0.38-0.08-0.55c-0.38-0.69-1.24-0.93-1.97-0.79
					c-0.18,0.03-0.29,0.13-0.44,0.21c-0.17,0.09-0.14,0.17-0.32,0.22c-0.08,0.03-0.22,0.12-0.21,0.22c0,0.12,0,0.05,0.01,0.17
					c-0.02,0.01-0.02,0-0.03-0.03"/>
			</g>
			<g>
				<path class="st2" d="M69.44-33.39c0.02,0.07,0.01,0.13-0.03,0.19c-0.05,0.1-0.11,0.06-0.17,0.13c-0.05,0.06-0.1,0.28-0.08,0.36
					c-0.17,0.06-0.01,0.23-0.02,0.35c0,0.05-0.04,0.11-0.04,0.16c-0.01,0.12,0.02,0.27,0.07,0.37c0.1,0.2,0.27,0.41,0.44,0.54
					c0.19,0.15,0.36,0.57,0.61,0.63c0.18,0.04,0.38-0.1,0.54-0.14c0.18-0.04,0.4,0.01,0.57-0.05c0.22-0.08,0.13-0.34,0.29-0.45
					c0.1-0.07,0.29-0.01,0.41-0.05c0.2-0.07,0.34-0.26,0.38-0.46c0.02-0.08,0.01-0.14,0.04-0.22c0.04-0.1,0.11-0.16,0.09-0.29
					c-0.01-0.06-0.05-0.12-0.06-0.19c-0.02-0.11,0-0.22,0-0.34c0-0.2,0.02-0.38-0.08-0.55c-0.38-0.69-1.24-0.93-1.97-0.79
					c-0.18,0.03-0.29,0.13-0.44,0.21c-0.17,0.09-0.14,0.17-0.32,0.22c-0.08,0.03-0.22,0.12-0.21,0.22c0,0.12,0,0.05,0.01,0.17
					c-0.02,0.01-0.02,0-0.03-0.03"/>
				<path class="st2" d="M61.78-33.39c0.02,0.07,0.01,0.13-0.03,0.19c-0.05,0.1-0.11,0.06-0.17,0.13c-0.05,0.06-0.1,0.28-0.08,0.36
					c-0.17,0.06-0.01,0.23-0.02,0.35c0,0.05-0.04,0.11-0.04,0.16c-0.01,0.12,0.02,0.27,0.07,0.37c0.1,0.2,0.27,0.41,0.44,0.54
					c0.19,0.15,0.36,0.57,0.61,0.63c0.18,0.04,0.38-0.1,0.54-0.14c0.18-0.04,0.4,0.01,0.57-0.05c0.22-0.08,0.13-0.34,0.29-0.45
					c0.1-0.07,0.29-0.01,0.41-0.05c0.2-0.07,0.34-0.26,0.38-0.46c0.02-0.08,0.01-0.14,0.04-0.22c0.04-0.1,0.11-0.16,0.09-0.29
					c-0.01-0.06-0.05-0.12-0.06-0.19c-0.02-0.11,0-0.22,0-0.34c0-0.2,0.02-0.38-0.08-0.55c-0.38-0.69-1.24-0.93-1.97-0.79
					c-0.18,0.03-0.29,0.13-0.44,0.21c-0.17,0.09-0.14,0.17-0.32,0.22c-0.08,0.03-0.22,0.12-0.21,0.22c0,0.12,0,0.05,0.01,0.17
					c-0.02,0.01-0.02,0-0.03-0.03"/>
				<path class="st2" d="M54.12-33.39c0.02,0.07,0.01,0.13-0.03,0.19c-0.05,0.1-0.11,0.06-0.17,0.13c-0.05,0.06-0.1,0.28-0.08,0.36
					c-0.17,0.06-0.01,0.23-0.02,0.35c0,0.05-0.04,0.11-0.04,0.16c-0.01,0.12,0.02,0.27,0.07,0.37c0.1,0.2,0.27,0.41,0.44,0.54
					c0.19,0.15,0.36,0.57,0.61,0.63c0.18,0.04,0.38-0.1,0.54-0.14c0.18-0.04,0.4,0.01,0.57-0.05c0.22-0.08,0.13-0.34,0.29-0.45
					c0.1-0.07,0.29-0.01,0.41-0.05c0.2-0.07,0.34-0.26,0.38-0.46c0.02-0.08,0.01-0.14,0.04-0.22c0.04-0.1,0.11-0.16,0.09-0.29
					c-0.01-0.06-0.05-0.12-0.06-0.19c-0.02-0.11,0-0.22,0-0.34c0-0.2,0.02-0.38-0.08-0.55c-0.38-0.69-1.24-0.93-1.97-0.79
					c-0.18,0.03-0.29,0.13-0.44,0.21c-0.17,0.09-0.14,0.17-0.32,0.22c-0.08,0.03-0.22,0.12-0.21,0.22c0,0.12,0,0.05,0.01,0.17
					c-0.02,0.01-0.02,0-0.03-0.03"/>
				<path class="st2" d="M46.46-33.39c0.02,0.07,0.01,0.13-0.03,0.19c-0.05,0.1-0.11,0.06-0.17,0.13c-0.05,0.06-0.1,0.28-0.08,0.36
					c-0.17,0.06-0.01,0.23-0.02,0.35c0,0.05-0.04,0.11-0.04,0.16c-0.01,0.12,0.02,0.27,0.07,0.37c0.1,0.2,0.27,0.41,0.44,0.54
					c0.19,0.15,0.36,0.57,0.61,0.63c0.18,0.04,0.38-0.1,0.54-0.14c0.18-0.04,0.4,0.01,0.57-0.05c0.22-0.08,0.13-0.34,0.29-0.45
					c0.1-0.07,0.29-0.01,0.41-0.05c0.2-0.07,0.34-0.26,0.38-0.46c0.02-0.08,0.01-0.14,0.04-0.22c0.04-0.1,0.11-0.16,0.09-0.29
					c-0.01-0.06-0.05-0.12-0.06-0.19c-0.02-0.11,0-0.22,0-0.34c0-0.2,0.02-0.38-0.08-0.55c-0.38-0.69-1.24-0.93-1.97-0.79
					c-0.18,0.03-0.29,0.13-0.44,0.21c-0.17,0.09-0.14,0.17-0.32,0.22c-0.08,0.03-0.22,0.12-0.21,0.22c0,0.12,0,0.05,0.01,0.17
					c-0.02,0.01-0.02,0-0.03-0.03"/>
				<path class="st2" d="M38.8-33.39c0.02,0.07,0.01,0.13-0.03,0.19c-0.05,0.1-0.11,0.06-0.17,0.13c-0.05,0.06-0.1,0.28-0.08,0.36
					c-0.17,0.06-0.01,0.23-0.02,0.35c0,0.05-0.04,0.11-0.04,0.16c-0.01,0.12,0.02,0.27,0.07,0.37c0.1,0.2,0.27,0.41,0.44,0.54
					c0.19,0.15,0.36,0.57,0.61,0.63c0.18,0.04,0.38-0.1,0.54-0.14c0.18-0.04,0.4,0.01,0.57-0.05c0.22-0.08,0.13-0.34,0.29-0.45
					c0.1-0.07,0.29-0.01,0.41-0.05c0.2-0.07,0.34-0.26,0.38-0.46c0.02-0.08,0.01-0.14,0.04-0.22c0.04-0.1,0.11-0.16,0.09-0.29
					c-0.01-0.06-0.05-0.12-0.06-0.19c-0.02-0.11,0-0.22,0-0.34c0-0.2,0.02-0.38-0.08-0.55c-0.38-0.69-1.24-0.93-1.97-0.79
					c-0.18,0.03-0.29,0.13-0.44,0.21c-0.17,0.09-0.14,0.17-0.32,0.22c-0.08,0.03-0.22,0.12-0.21,0.22c0,0.12,0,0.05,0.01,0.17
					c-0.02,0.01-0.02,0-0.03-0.03"/>
				<path class="st2" d="M31.14-33.39c0.02,0.07,0.01,0.13-0.03,0.19c-0.05,0.1-0.11,0.06-0.17,0.13c-0.05,0.06-0.1,0.28-0.08,0.36
					c-0.17,0.06-0.01,0.23-0.02,0.35c0,0.05-0.04,0.11-0.04,0.16c-0.01,0.12,0.02,0.27,0.07,0.37c0.1,0.2,0.27,0.41,0.44,0.54
					c0.19,0.15,0.36,0.57,0.61,0.63c0.18,0.04,0.38-0.1,0.54-0.14c0.18-0.04,0.4,0.01,0.57-0.05c0.22-0.08,0.13-0.34,0.29-0.45
					c0.1-0.07,0.29-0.01,0.41-0.05c0.2-0.07,0.34-0.26,0.38-0.46c0.02-0.08,0.01-0.14,0.04-0.22c0.04-0.1,0.11-0.16,0.09-0.29
					c-0.01-0.06-0.05-0.12-0.06-0.19c-0.02-0.11,0-0.22,0-0.34c0-0.2,0.02-0.38-0.08-0.55c-0.38-0.69-1.24-0.93-1.97-0.79
					c-0.18,0.03-0.29,0.13-0.44,0.21c-0.17,0.09-0.14,0.17-0.32,0.22c-0.08,0.03-0.22,0.12-0.21,0.22c0,0.12,0,0.05,0.01,0.17
					c-0.02,0.01-0.02,0-0.03-0.03"/>
				<path class="st2" d="M23.48-33.39c0.02,0.07,0.01,0.13-0.03,0.19c-0.05,0.1-0.11,0.06-0.17,0.13c-0.05,0.06-0.1,0.28-0.08,0.36
					c-0.17,0.06-0.01,0.23-0.02,0.35c0,0.05-0.04,0.11-0.04,0.16c-0.01,0.12,0.02,0.27,0.07,0.37c0.1,0.2,0.27,0.41,0.44,0.54
					c0.19,0.15,0.36,0.57,0.61,0.63c0.18,0.04,0.38-0.1,0.54-0.14c0.18-0.04,0.4,0.01,0.57-0.05c0.22-0.08,0.13-0.34,0.29-0.45
					c0.1-0.07,0.29-0.01,0.41-0.05c0.2-0.07,0.34-0.26,0.38-0.46c0.02-0.08,0.01-0.14,0.04-0.22c0.04-0.1,0.11-0.16,0.09-0.29
					c-0.01-0.06-0.05-0.12-0.06-0.19c-0.02-0.11,0-0.22,0-0.34c0-0.2,0.02-0.38-0.08-0.55c-0.38-0.69-1.24-0.93-1.97-0.79
					c-0.18,0.03-0.29,0.13-0.44,0.21c-0.17,0.09-0.14,0.17-0.32,0.22c-0.08,0.03-0.22,0.12-0.21,0.22c0,0.12,0,0.05,0.01,0.17
					c-0.02,0.01-0.02,0-0.03-0.03"/>
				<path class="st2" d="M15.82-33.39c0.02,0.07,0.01,0.13-0.03,0.19c-0.05,0.1-0.11,0.06-0.17,0.13c-0.05,0.06-0.1,0.28-0.08,0.36
					c-0.17,0.06-0.01,0.23-0.02,0.35c0,0.05-0.04,0.11-0.04,0.16c-0.01,0.12,0.02,0.27,0.07,0.37c0.1,0.2,0.27,0.41,0.44,0.54
					c0.19,0.15,0.36,0.57,0.61,0.63c0.18,0.04,0.38-0.1,0.54-0.14c0.18-0.04,0.4,0.01,0.57-0.05c0.22-0.08,0.13-0.34,0.29-0.45
					c0.1-0.07,0.29-0.01,0.41-0.05c0.2-0.07,0.34-0.26,0.38-0.46c0.02-0.08,0.01-0.14,0.04-0.22c0.04-0.1,0.11-0.16,0.09-0.29
					c-0.01-0.06-0.05-0.12-0.06-0.19c-0.02-0.11,0-0.22,0-0.34c0-0.2,0.02-0.38-0.08-0.55c-0.38-0.69-1.24-0.93-1.97-0.79
					c-0.18,0.03-0.29,0.13-0.44,0.21c-0.17,0.09-0.14,0.17-0.32,0.22c-0.08,0.03-0.22,0.12-0.21,0.22c0,0.12,0,0.05,0.01,0.17
					c-0.02,0.01-0.02,0-0.03-0.03"/>
				<path class="st2" d="M8.16-33.39c0.02,0.07,0.01,0.13-0.03,0.19c-0.05,0.1-0.11,0.06-0.17,0.13c-0.05,0.06-0.1,0.28-0.08,0.36
					c-0.17,0.06-0.01,0.23-0.02,0.35c0,0.05-0.04,0.11-0.04,0.16c-0.01,0.12,0.02,0.27,0.07,0.37c0.1,0.2,0.27,0.41,0.44,0.54
					c0.19,0.15,0.36,0.57,0.61,0.63c0.18,0.04,0.38-0.1,0.54-0.14c0.18-0.04,0.4,0.01,0.57-0.05c0.22-0.08,0.13-0.34,0.29-0.45
					c0.1-0.07,0.29-0.01,0.41-0.05c0.2-0.07,0.34-0.26,0.38-0.46c0.02-0.08,0.01-0.14,0.04-0.22c0.04-0.1,0.11-0.16,0.09-0.29
					c-0.01-0.06-0.05-0.12-0.06-0.19c-0.02-0.11,0-0.22,0-0.34c0-0.2,0.02-0.38-0.08-0.55c-0.38-0.69-1.24-0.93-1.97-0.79
					c-0.18,0.03-0.29,0.13-0.44,0.21c-0.17,0.09-0.14,0.17-0.32,0.22c-0.08,0.03-0.22,0.12-0.21,0.22c0,0.12,0,0.05,0.01,0.17
					c-0.02,0.01-0.02,0-0.03-0.03"/>
				<path class="st2" d="M0.5-33.39c0.02,0.07,0.01,0.13-0.03,0.19c-0.05,0.1-0.11,0.06-0.17,0.13c-0.05,0.06-0.1,0.28-0.08,0.36
					c-0.17,0.06-0.01,0.23-0.02,0.35c0,0.05-0.04,0.11-0.04,0.16c-0.01,0.12,0.02,0.27,0.07,0.37c0.1,0.2,0.27,0.41,0.44,0.54
					c0.19,0.15,0.36,0.57,0.61,0.63c0.18,0.04,0.38-0.1,0.54-0.14c0.18-0.04,0.4,0.01,0.57-0.05c0.22-0.08,0.13-0.34,0.29-0.45
					c0.1-0.07,0.29-0.01,0.41-0.05c0.2-0.07,0.34-0.26,0.38-0.46c0.02-0.08,0.01-0.14,0.04-0.22c0.04-0.1,0.11-0.16,0.09-0.29
					c-0.01-0.06-0.05-0.12-0.06-0.19c-0.02-0.11,0-0.22,0-0.34c0-0.2,0.02-0.38-0.08-0.55c-0.38-0.69-1.24-0.93-1.97-0.79
					c-0.18,0.03-0.29,0.13-0.44,0.21c-0.17,0.09-0.14,0.17-0.32,0.22c-0.08,0.03-0.22,0.12-0.21,0.22c0,0.12,0,0.05,0.01,0.17
					c-0.02,0.01-0.02,0-0.03-0.03"/>
			</g>
			<g>
				<path class="st2" d="M69.44-25.74c0.02,0.07,0.01,0.13-0.03,0.19c-0.05,0.1-0.11,0.06-0.17,0.13c-0.05,0.06-0.1,0.28-0.08,0.36
					C69-25,69.16-24.83,69.15-24.71c0,0.05-0.04,0.11-0.04,0.16c-0.01,0.12,0.02,0.27,0.07,0.37c0.1,0.2,0.27,0.41,0.44,0.54
					c0.19,0.15,0.36,0.57,0.61,0.63c0.18,0.04,0.38-0.1,0.54-0.14c0.18-0.04,0.4,0.01,0.57-0.05c0.22-0.08,0.13-0.34,0.29-0.45
					c0.1-0.07,0.29-0.01,0.41-0.05c0.2-0.07,0.34-0.26,0.38-0.46c0.02-0.08,0.01-0.14,0.04-0.22c0.04-0.1,0.11-0.16,0.09-0.29
					c-0.01-0.06-0.05-0.12-0.06-0.19c-0.02-0.11,0-0.22,0-0.34c0-0.2,0.02-0.38-0.08-0.55c-0.38-0.69-1.24-0.93-1.97-0.79
					c-0.18,0.03-0.29,0.13-0.44,0.21c-0.17,0.09-0.14,0.17-0.32,0.22c-0.08,0.03-0.22,0.12-0.21,0.22c0,0.12,0,0.05,0.01,0.17
					c-0.02,0.01-0.02,0-0.03-0.03"/>
				<path class="st2" d="M61.78-25.74c0.02,0.07,0.01,0.13-0.03,0.19c-0.05,0.1-0.11,0.06-0.17,0.13c-0.05,0.06-0.1,0.28-0.08,0.36
					c-0.17,0.06-0.01,0.23-0.02,0.35c0,0.05-0.04,0.11-0.04,0.16c-0.01,0.12,0.02,0.27,0.07,0.37c0.1,0.2,0.27,0.41,0.44,0.54
					c0.19,0.15,0.36,0.57,0.61,0.63c0.18,0.04,0.38-0.1,0.54-0.14c0.18-0.04,0.4,0.01,0.57-0.05c0.22-0.08,0.13-0.34,0.29-0.45
					c0.1-0.07,0.29-0.01,0.41-0.05c0.2-0.07,0.34-0.26,0.38-0.46c0.02-0.08,0.01-0.14,0.04-0.22c0.04-0.1,0.11-0.16,0.09-0.29
					c-0.01-0.06-0.05-0.12-0.06-0.19c-0.02-0.11,0-0.22,0-0.34c0-0.2,0.02-0.38-0.08-0.55c-0.38-0.69-1.24-0.93-1.97-0.79
					c-0.18,0.03-0.29,0.13-0.44,0.21c-0.17,0.09-0.14,0.17-0.32,0.22c-0.08,0.03-0.22,0.12-0.21,0.22c0,0.12,0,0.05,0.01,0.17
					c-0.02,0.01-0.02,0-0.03-0.03"/>
				<path class="st2" d="M54.12-25.74c0.02,0.07,0.01,0.13-0.03,0.19c-0.05,0.1-0.11,0.06-0.17,0.13c-0.05,0.06-0.1,0.28-0.08,0.36
					c-0.17,0.06-0.01,0.23-0.02,0.35c0,0.05-0.04,0.11-0.04,0.16c-0.01,0.12,0.02,0.27,0.07,0.37c0.1,0.2,0.27,0.41,0.44,0.54
					c0.19,0.15,0.36,0.57,0.61,0.63c0.18,0.04,0.38-0.1,0.54-0.14c0.18-0.04,0.4,0.01,0.57-0.05c0.22-0.08,0.13-0.34,0.29-0.45
					c0.1-0.07,0.29-0.01,0.41-0.05c0.2-0.07,0.34-0.26,0.38-0.46c0.02-0.08,0.01-0.14,0.04-0.22c0.04-0.1,0.11-0.16,0.09-0.29
					c-0.01-0.06-0.05-0.12-0.06-0.19c-0.02-0.11,0-0.22,0-0.34c0-0.2,0.02-0.38-0.08-0.55c-0.38-0.69-1.24-0.93-1.97-0.79
					c-0.18,0.03-0.29,0.13-0.44,0.21c-0.17,0.09-0.14,0.17-0.32,0.22c-0.08,0.03-0.22,0.12-0.21,0.22c0,0.12,0,0.05,0.01,0.17
					c-0.02,0.01-0.02,0-0.03-0.03"/>
				<path class="st2" d="M46.46-25.74c0.02,0.07,0.01,0.13-0.03,0.19c-0.05,0.1-0.11,0.06-0.17,0.13c-0.05,0.06-0.1,0.28-0.08,0.36
					c-0.17,0.06-0.01,0.23-0.02,0.35c0,0.05-0.04,0.11-0.04,0.16c-0.01,0.12,0.02,0.27,0.07,0.37c0.1,0.2,0.27,0.41,0.44,0.54
					c0.19,0.15,0.36,0.57,0.61,0.63c0.18,0.04,0.38-0.1,0.54-0.14c0.18-0.04,0.4,0.01,0.57-0.05c0.22-0.08,0.13-0.34,0.29-0.45
					c0.1-0.07,0.29-0.01,0.41-0.05c0.2-0.07,0.34-0.26,0.38-0.46c0.02-0.08,0.01-0.14,0.04-0.22c0.04-0.1,0.11-0.16,0.09-0.29
					c-0.01-0.06-0.05-0.12-0.06-0.19c-0.02-0.11,0-0.22,0-0.34c0-0.2,0.02-0.38-0.08-0.55c-0.38-0.69-1.24-0.93-1.97-0.79
					c-0.18,0.03-0.29,0.13-0.44,0.21c-0.17,0.09-0.14,0.17-0.32,0.22c-0.08,0.03-0.22,0.12-0.21,0.22c0,0.12,0,0.05,0.01,0.17
					c-0.02,0.01-0.02,0-0.03-0.03"/>
				<path class="st2" d="M38.8-25.74c0.02,0.07,0.01,0.13-0.03,0.19c-0.05,0.1-0.11,0.06-0.17,0.13c-0.05,0.06-0.1,0.28-0.08,0.36
					c-0.17,0.06-0.01,0.23-0.02,0.35c0,0.05-0.04,0.11-0.04,0.16c-0.01,0.12,0.02,0.27,0.07,0.37c0.1,0.2,0.27,0.41,0.44,0.54
					c0.19,0.15,0.36,0.57,0.61,0.63c0.18,0.04,0.38-0.1,0.54-0.14c0.18-0.04,0.4,0.01,0.57-0.05c0.22-0.08,0.13-0.34,0.29-0.45
					c0.1-0.07,0.29-0.01,0.41-0.05c0.2-0.07,0.34-0.26,0.38-0.46c0.02-0.08,0.01-0.14,0.04-0.22c0.04-0.1,0.11-0.16,0.09-0.29
					c-0.01-0.06-0.05-0.12-0.06-0.19c-0.02-0.11,0-0.22,0-0.34c0-0.2,0.02-0.38-0.08-0.55c-0.38-0.69-1.24-0.93-1.97-0.79
					c-0.18,0.03-0.29,0.13-0.44,0.21c-0.17,0.09-0.14,0.17-0.32,0.22c-0.08,0.03-0.22,0.12-0.21,0.22c0,0.12,0,0.05,0.01,0.17
					c-0.02,0.01-0.02,0-0.03-0.03"/>
				<path class="st2" d="M31.14-25.74c0.02,0.07,0.01,0.13-0.03,0.19c-0.05,0.1-0.11,0.06-0.17,0.13c-0.05,0.06-0.1,0.28-0.08,0.36
					c-0.17,0.06-0.01,0.23-0.02,0.35c0,0.05-0.04,0.11-0.04,0.16c-0.01,0.12,0.02,0.27,0.07,0.37c0.1,0.2,0.27,0.41,0.44,0.54
					c0.19,0.15,0.36,0.57,0.61,0.63c0.18,0.04,0.38-0.1,0.54-0.14c0.18-0.04,0.4,0.01,0.57-0.05c0.22-0.08,0.13-0.34,0.29-0.45
					c0.1-0.07,0.29-0.01,0.41-0.05c0.2-0.07,0.34-0.26,0.38-0.46c0.02-0.08,0.01-0.14,0.04-0.22c0.04-0.1,0.11-0.16,0.09-0.29
					c-0.01-0.06-0.05-0.12-0.06-0.19c-0.02-0.11,0-0.22,0-0.34c0-0.2,0.02-0.38-0.08-0.55c-0.38-0.69-1.24-0.93-1.97-0.79
					c-0.18,0.03-0.29,0.13-0.44,0.21c-0.17,0.09-0.14,0.17-0.32,0.22c-0.08,0.03-0.22,0.12-0.21,0.22c0,0.12,0,0.05,0.01,0.17
					c-0.02,0.01-0.02,0-0.03-0.03"/>
				<path class="st2" d="M23.48-25.74c0.02,0.07,0.01,0.13-0.03,0.19c-0.05,0.1-0.11,0.06-0.17,0.13c-0.05,0.06-0.1,0.28-0.08,0.36
					c-0.17,0.06-0.01,0.23-0.02,0.35c0,0.05-0.04,0.11-0.04,0.16c-0.01,0.12,0.02,0.27,0.07,0.37c0.1,0.2,0.27,0.41,0.44,0.54
					c0.19,0.15,0.36,0.57,0.61,0.63c0.18,0.04,0.38-0.1,0.54-0.14c0.18-0.04,0.4,0.01,0.57-0.05c0.22-0.08,0.13-0.34,0.29-0.45
					c0.1-0.07,0.29-0.01,0.41-0.05c0.2-0.07,0.34-0.26,0.38-0.46c0.02-0.08,0.01-0.14,0.04-0.22c0.04-0.1,0.11-0.16,0.09-0.29
					c-0.01-0.06-0.05-0.12-0.06-0.19c-0.02-0.11,0-0.22,0-0.34c0-0.2,0.02-0.38-0.08-0.55c-0.38-0.69-1.24-0.93-1.97-0.79
					c-0.18,0.03-0.29,0.13-0.44,0.21c-0.17,0.09-0.14,0.17-0.32,0.22c-0.08,0.03-0.22,0.12-0.21,0.22c0,0.12,0,0.05,0.01,0.17
					c-0.02,0.01-0.02,0-0.03-0.03"/>
				<path class="st2" d="M15.82-25.74c0.02,0.07,0.01,0.13-0.03,0.19c-0.05,0.1-0.11,0.06-0.17,0.13c-0.05,0.06-0.1,0.28-0.08,0.36
					c-0.17,0.06-0.01,0.23-0.02,0.35c0,0.05-0.04,0.11-0.04,0.16c-0.01,0.12,0.02,0.27,0.07,0.37c0.1,0.2,0.27,0.41,0.44,0.54
					c0.19,0.15,0.36,0.57,0.61,0.63c0.18,0.04,0.38-0.1,0.54-0.14c0.18-0.04,0.4,0.01,0.57-0.05c0.22-0.08,0.13-0.34,0.29-0.45
					c0.1-0.07,0.29-0.01,0.41-0.05c0.2-0.07,0.34-0.26,0.38-0.46c0.02-0.08,0.01-0.14,0.04-0.22c0.04-0.1,0.11-0.16,0.09-0.29
					c-0.01-0.06-0.05-0.12-0.06-0.19c-0.02-0.11,0-0.22,0-0.34c0-0.2,0.02-0.38-0.08-0.55c-0.38-0.69-1.24-0.93-1.97-0.79
					c-0.18,0.03-0.29,0.13-0.44,0.21c-0.17,0.09-0.14,0.17-0.32,0.22c-0.08,0.03-0.22,0.12-0.21,0.22c0,0.12,0,0.05,0.01,0.17
					c-0.02,0.01-0.02,0-0.03-0.03"/>
				<path class="st2" d="M8.16-25.74c0.02,0.07,0.01,0.13-0.03,0.19c-0.05,0.1-0.11,0.06-0.17,0.13c-0.05,0.06-0.1,0.28-0.08,0.36
					C7.72-25,7.88-24.83,7.87-24.71c0,0.05-0.04,0.11-0.04,0.16c-0.01,0.12,0.02,0.27,0.07,0.37c0.1,0.2,0.27,0.41,0.44,0.54
					c0.19,0.15,0.36,0.57,0.61,0.63c0.18,0.04,0.38-0.1,0.54-0.14c0.18-0.04,0.4,0.01,0.57-0.05c0.22-0.08,0.13-0.34,0.29-0.45
					c0.1-0.07,0.29-0.01,0.41-0.05c0.2-0.07,0.34-0.26,0.38-0.46c0.02-0.08,0.01-0.14,0.04-0.22c0.04-0.1,0.11-0.16,0.09-0.29
					c-0.01-0.06-0.05-0.12-0.06-0.19c-0.02-0.11,0-0.22,0-0.34c0-0.2,0.02-0.38-0.08-0.55c-0.38-0.69-1.24-0.93-1.97-0.79
					c-0.18,0.03-0.29,0.13-0.44,0.21c-0.17,0.09-0.14,0.17-0.32,0.22c-0.08,0.03-0.22,0.12-0.21,0.22c0,0.12,0,0.05,0.01,0.17
					c-0.02,0.01-0.02,0-0.03-0.03"/>
				<path class="st2" d="M0.5-25.74c0.02,0.07,0.01,0.13-0.03,0.19c-0.05,0.1-0.11,0.06-0.17,0.13c-0.05,0.06-0.1,0.28-0.08,0.36
					C0.06-25,0.22-24.83,0.21-24.71c0,0.05-0.04,0.11-0.04,0.16c-0.01,0.12,0.02,0.27,0.07,0.37c0.1,0.2,0.27,0.41,0.44,0.54
					c0.19,0.15,0.36,0.57,0.61,0.63c0.18,0.04,0.38-0.1,0.54-0.14c0.18-0.04,0.4,0.01,0.57-0.05c0.22-0.08,0.13-0.34,0.29-0.45
					c0.1-0.07,0.29-0.01,0.41-0.05c0.2-0.07,0.34-0.26,0.38-0.46c0.02-0.08,0.01-0.14,0.04-0.22c0.04-0.1,0.11-0.16,0.09-0.29
					c-0.01-0.06-0.05-0.12-0.06-0.19c-0.02-0.11,0-0.22,0-0.34c0-0.2,0.02-0.38-0.08-0.55c-0.38-0.69-1.24-0.93-1.97-0.79
					c-0.18,0.03-0.29,0.13-0.44,0.21c-0.17,0.09-0.14,0.17-0.32,0.22c-0.08,0.03-0.22,0.12-0.21,0.22c0,0.12,0,0.05,0.01,0.17
					c-0.02,0.01-0.02,0-0.03-0.03"/>
			</g>
			<g>
				<path class="st2" d="M69.44-18.08c0.02,0.07,0.01,0.13-0.03,0.19c-0.05,0.1-0.11,0.06-0.17,0.13c-0.05,0.06-0.1,0.28-0.08,0.36
					c-0.17,0.06-0.01,0.23-0.02,0.35c0,0.05-0.04,0.11-0.04,0.16c-0.01,0.12,0.02,0.27,0.07,0.37c0.1,0.2,0.27,0.41,0.44,0.54
					c0.19,0.15,0.36,0.57,0.61,0.63c0.18,0.04,0.38-0.1,0.54-0.14c0.18-0.04,0.4,0.01,0.57-0.05c0.22-0.08,0.13-0.34,0.29-0.45
					c0.1-0.07,0.29-0.01,0.41-0.05c0.2-0.07,0.34-0.26,0.38-0.46c0.02-0.08,0.01-0.14,0.04-0.22c0.04-0.1,0.11-0.16,0.09-0.29
					c-0.01-0.06-0.05-0.12-0.06-0.19c-0.02-0.11,0-0.22,0-0.34c0-0.2,0.02-0.38-0.08-0.55c-0.38-0.69-1.24-0.93-1.97-0.79
					c-0.18,0.03-0.29,0.13-0.44,0.21c-0.17,0.09-0.14,0.17-0.32,0.22c-0.08,0.03-0.22,0.12-0.21,0.22c0,0.12,0,0.05,0.01,0.17
					c-0.02,0.01-0.02,0-0.03-0.03"/>
				<path class="st2" d="M61.78-18.08c0.02,0.07,0.01,0.13-0.03,0.19c-0.05,0.1-0.11,0.06-0.17,0.13c-0.05,0.06-0.1,0.28-0.08,0.36
					c-0.17,0.06-0.01,0.23-0.02,0.35c0,0.05-0.04,0.11-0.04,0.16c-0.01,0.12,0.02,0.27,0.07,0.37c0.1,0.2,0.27,0.41,0.44,0.54
					c0.19,0.15,0.36,0.57,0.61,0.63c0.18,0.04,0.38-0.1,0.54-0.14c0.18-0.04,0.4,0.01,0.57-0.05c0.22-0.08,0.13-0.34,0.29-0.45
					c0.1-0.07,0.29-0.01,0.41-0.05c0.2-0.07,0.34-0.26,0.38-0.46c0.02-0.08,0.01-0.14,0.04-0.22c0.04-0.1,0.11-0.16,0.09-0.29
					c-0.01-0.06-0.05-0.12-0.06-0.19c-0.02-0.11,0-0.22,0-0.34c0-0.2,0.02-0.38-0.08-0.55c-0.38-0.69-1.24-0.93-1.97-0.79
					c-0.18,0.03-0.29,0.13-0.44,0.21c-0.17,0.09-0.14,0.17-0.32,0.22c-0.08,0.03-0.22,0.12-0.21,0.22c0,0.12,0,0.05,0.01,0.17
					c-0.02,0.01-0.02,0-0.03-0.03"/>
				<path class="st2" d="M54.12-18.08c0.02,0.07,0.01,0.13-0.03,0.19c-0.05,0.1-0.11,0.06-0.17,0.13c-0.05,0.06-0.1,0.28-0.08,0.36
					c-0.17,0.06-0.01,0.23-0.02,0.35c0,0.05-0.04,0.11-0.04,0.16c-0.01,0.12,0.02,0.27,0.07,0.37c0.1,0.2,0.27,0.41,0.44,0.54
					c0.19,0.15,0.36,0.57,0.61,0.63c0.18,0.04,0.38-0.1,0.54-0.14c0.18-0.04,0.4,0.01,0.57-0.05c0.22-0.08,0.13-0.34,0.29-0.45
					c0.1-0.07,0.29-0.01,0.41-0.05c0.2-0.07,0.34-0.26,0.38-0.46c0.02-0.08,0.01-0.14,0.04-0.22c0.04-0.1,0.11-0.16,0.09-0.29
					c-0.01-0.06-0.05-0.12-0.06-0.19c-0.02-0.11,0-0.22,0-0.34c0-0.2,0.02-0.38-0.08-0.55c-0.38-0.69-1.24-0.93-1.97-0.79
					c-0.18,0.03-0.29,0.13-0.44,0.21c-0.17,0.09-0.14,0.17-0.32,0.22c-0.08,0.03-0.22,0.12-0.21,0.22c0,0.12,0,0.05,0.01,0.17
					c-0.02,0.01-0.02,0-0.03-0.03"/>
				<path class="st2" d="M46.46-18.08c0.02,0.07,0.01,0.13-0.03,0.19c-0.05,0.1-0.11,0.06-0.17,0.13c-0.05,0.06-0.1,0.28-0.08,0.36
					c-0.17,0.06-0.01,0.23-0.02,0.35c0,0.05-0.04,0.11-0.04,0.16c-0.01,0.12,0.02,0.27,0.07,0.37c0.1,0.2,0.27,0.41,0.44,0.54
					c0.19,0.15,0.36,0.57,0.61,0.63c0.18,0.04,0.38-0.1,0.54-0.14c0.18-0.04,0.4,0.01,0.57-0.05c0.22-0.08,0.13-0.34,0.29-0.45
					c0.1-0.07,0.29-0.01,0.41-0.05c0.2-0.07,0.34-0.26,0.38-0.46c0.02-0.08,0.01-0.14,0.04-0.22c0.04-0.1,0.11-0.16,0.09-0.29
					c-0.01-0.06-0.05-0.12-0.06-0.19c-0.02-0.11,0-0.22,0-0.34c0-0.2,0.02-0.38-0.08-0.55c-0.38-0.69-1.24-0.93-1.97-0.79
					c-0.18,0.03-0.29,0.13-0.44,0.21c-0.17,0.09-0.14,0.17-0.32,0.22c-0.08,0.03-0.22,0.12-0.21,0.22c0,0.12,0,0.05,0.01,0.17
					c-0.02,0.01-0.02,0-0.03-0.03"/>
				<path class="st2" d="M38.8-18.08c0.02,0.07,0.01,0.13-0.03,0.19c-0.05,0.1-0.11,0.06-0.17,0.13c-0.05,0.06-0.1,0.28-0.08,0.36
					c-0.17,0.06-0.01,0.23-0.02,0.35c0,0.05-0.04,0.11-0.04,0.16c-0.01,0.12,0.02,0.27,0.07,0.37c0.1,0.2,0.27,0.41,0.44,0.54
					c0.19,0.15,0.36,0.57,0.61,0.63c0.18,0.04,0.38-0.1,0.54-0.14c0.18-0.04,0.4,0.01,0.57-0.05c0.22-0.08,0.13-0.34,0.29-0.45
					c0.1-0.07,0.29-0.01,0.41-0.05c0.2-0.07,0.34-0.26,0.38-0.46c0.02-0.08,0.01-0.14,0.04-0.22c0.04-0.1,0.11-0.16,0.09-0.29
					c-0.01-0.06-0.05-0.12-0.06-0.19c-0.02-0.11,0-0.22,0-0.34c0-0.2,0.02-0.38-0.08-0.55c-0.38-0.69-1.24-0.93-1.97-0.79
					c-0.18,0.03-0.29,0.13-0.44,0.21c-0.17,0.09-0.14,0.17-0.32,0.22c-0.08,0.03-0.22,0.12-0.21,0.22c0,0.12,0,0.05,0.01,0.17
					c-0.02,0.01-0.02,0-0.03-0.03"/>
				<path class="st2" d="M31.14-18.08c0.02,0.07,0.01,0.13-0.03,0.19c-0.05,0.1-0.11,0.06-0.17,0.13c-0.05,0.06-0.1,0.28-0.08,0.36
					c-0.17,0.06-0.01,0.23-0.02,0.35c0,0.05-0.04,0.11-0.04,0.16c-0.01,0.12,0.02,0.27,0.07,0.37c0.1,0.2,0.27,0.41,0.44,0.54
					c0.19,0.15,0.36,0.57,0.61,0.63c0.18,0.04,0.38-0.1,0.54-0.14c0.18-0.04,0.4,0.01,0.57-0.05c0.22-0.08,0.13-0.34,0.29-0.45
					c0.1-0.07,0.29-0.01,0.41-0.05c0.2-0.07,0.34-0.26,0.38-0.46c0.02-0.08,0.01-0.14,0.04-0.22c0.04-0.1,0.11-0.16,0.09-0.29
					c-0.01-0.06-0.05-0.12-0.06-0.19c-0.02-0.11,0-0.22,0-0.34c0-0.2,0.02-0.38-0.08-0.55c-0.38-0.69-1.24-0.93-1.97-0.79
					c-0.18,0.03-0.29,0.13-0.44,0.21c-0.17,0.09-0.14,0.17-0.32,0.22c-0.08,0.03-0.22,0.12-0.21,0.22c0,0.12,0,0.05,0.01,0.17
					c-0.02,0.01-0.02,0-0.03-0.03"/>
				<path class="st2" d="M23.48-18.08c0.02,0.07,0.01,0.13-0.03,0.19c-0.05,0.1-0.11,0.06-0.17,0.13c-0.05,0.06-0.1,0.28-0.08,0.36
					c-0.17,0.06-0.01,0.23-0.02,0.35c0,0.05-0.04,0.11-0.04,0.16c-0.01,0.12,0.02,0.27,0.07,0.37c0.1,0.2,0.27,0.41,0.44,0.54
					c0.19,0.15,0.36,0.57,0.61,0.63c0.18,0.04,0.38-0.1,0.54-0.14c0.18-0.04,0.4,0.01,0.57-0.05c0.22-0.08,0.13-0.34,0.29-0.45
					c0.1-0.07,0.29-0.01,0.41-0.05c0.2-0.07,0.34-0.26,0.38-0.46c0.02-0.08,0.01-0.14,0.04-0.22c0.04-0.1,0.11-0.16,0.09-0.29
					c-0.01-0.06-0.05-0.12-0.06-0.19c-0.02-0.11,0-0.22,0-0.34c0-0.2,0.02-0.38-0.08-0.55c-0.38-0.69-1.24-0.93-1.97-0.79
					c-0.18,0.03-0.29,0.13-0.44,0.21c-0.17,0.09-0.14,0.17-0.32,0.22c-0.08,0.03-0.22,0.12-0.21,0.22c0,0.12,0,0.05,0.01,0.17
					c-0.02,0.01-0.02,0-0.03-0.03"/>
				<path class="st2" d="M15.82-18.08c0.02,0.07,0.01,0.13-0.03,0.19c-0.05,0.1-0.11,0.06-0.17,0.13c-0.05,0.06-0.1,0.28-0.08,0.36
					c-0.17,0.06-0.01,0.23-0.02,0.35c0,0.05-0.04,0.11-0.04,0.16c-0.01,0.12,0.02,0.27,0.07,0.37c0.1,0.2,0.27,0.41,0.44,0.54
					c0.19,0.15,0.36,0.57,0.61,0.63c0.18,0.04,0.38-0.1,0.54-0.14c0.18-0.04,0.4,0.01,0.57-0.05c0.22-0.08,0.13-0.34,0.29-0.45
					c0.1-0.07,0.29-0.01,0.41-0.05c0.2-0.07,0.34-0.26,0.38-0.46c0.02-0.08,0.01-0.14,0.04-0.22c0.04-0.1,0.11-0.16,0.09-0.29
					c-0.01-0.06-0.05-0.12-0.06-0.19c-0.02-0.11,0-0.22,0-0.34c0-0.2,0.02-0.38-0.08-0.55c-0.38-0.69-1.24-0.93-1.97-0.79
					c-0.18,0.03-0.29,0.13-0.44,0.21c-0.17,0.09-0.14,0.17-0.32,0.22c-0.08,0.03-0.22,0.12-0.21,0.22c0,0.12,0,0.05,0.01,0.17
					c-0.02,0.01-0.02,0-0.03-0.03"/>
				<path class="st2" d="M8.16-18.08c0.02,0.07,0.01,0.13-0.03,0.19c-0.05,0.1-0.11,0.06-0.17,0.13c-0.05,0.06-0.1,0.28-0.08,0.36
					c-0.17,0.06-0.01,0.23-0.02,0.35c0,0.05-0.04,0.11-0.04,0.16c-0.01,0.12,0.02,0.27,0.07,0.37c0.1,0.2,0.27,0.41,0.44,0.54
					c0.19,0.15,0.36,0.57,0.61,0.63c0.18,0.04,0.38-0.1,0.54-0.14c0.18-0.04,0.4,0.01,0.57-0.05c0.22-0.08,0.13-0.34,0.29-0.45
					c0.1-0.07,0.29-0.01,0.41-0.05c0.2-0.07,0.34-0.26,0.38-0.46c0.02-0.08,0.01-0.14,0.04-0.22c0.04-0.1,0.11-0.16,0.09-0.29
					c-0.01-0.06-0.05-0.12-0.06-0.19c-0.02-0.11,0-0.22,0-0.34c0-0.2,0.02-0.38-0.08-0.55c-0.38-0.69-1.24-0.93-1.97-0.79
					c-0.18,0.03-0.29,0.13-0.44,0.21c-0.17,0.09-0.14,0.17-0.32,0.22c-0.08,0.03-0.22,0.12-0.21,0.22c0,0.12,0,0.05,0.01,0.17
					c-0.02,0.01-0.02,0-0.03-0.03"/>
				<path class="st2" d="M0.5-18.08c0.02,0.07,0.01,0.13-0.03,0.19c-0.05,0.1-0.11,0.06-0.17,0.13c-0.05,0.06-0.1,0.28-0.08,0.36
					c-0.17,0.06-0.01,0.23-0.02,0.35c0,0.05-0.04,0.11-0.04,0.16c-0.01,0.12,0.02,0.27,0.07,0.37c0.1,0.2,0.27,0.41,0.44,0.54
					c0.19,0.15,0.36,0.57,0.61,0.63c0.18,0.04,0.38-0.1,0.54-0.14c0.18-0.04,0.4,0.01,0.57-0.05c0.22-0.08,0.13-0.34,0.29-0.45
					c0.1-0.07,0.29-0.01,0.41-0.05c0.2-0.07,0.34-0.26,0.38-0.46c0.02-0.08,0.01-0.14,0.04-0.22c0.04-0.1,0.11-0.16,0.09-0.29
					c-0.01-0.06-0.05-0.12-0.06-0.19c-0.02-0.11,0-0.22,0-0.34c0-0.2,0.02-0.38-0.08-0.55c-0.38-0.69-1.24-0.93-1.97-0.79
					c-0.18,0.03-0.29,0.13-0.44,0.21c-0.17,0.09-0.14,0.17-0.32,0.22c-0.08,0.03-0.22,0.12-0.21,0.22c0,0.12,0,0.05,0.01,0.17
					c-0.02,0.01-0.02,0-0.03-0.03"/>
			</g>
			<g>
				<path class="st2" d="M69.44-10.43c0.02,0.07,0.01,0.13-0.03,0.19c-0.05,0.1-0.11,0.06-0.17,0.13c-0.05,0.06-0.1,0.28-0.08,0.36
					C69-9.69,69.16-9.52,69.15-9.4c0,0.05-0.04,0.11-0.04,0.16c-0.01,0.12,0.02,0.27,0.07,0.37c0.1,0.2,0.27,0.41,0.44,0.54
					c0.19,0.15,0.36,0.57,0.61,0.63c0.18,0.04,0.38-0.1,0.54-0.14c0.18-0.04,0.4,0.01,0.57-0.05c0.22-0.08,0.13-0.34,0.29-0.45
					c0.1-0.07,0.29-0.01,0.41-0.05c0.2-0.07,0.34-0.26,0.38-0.46c0.02-0.08,0.01-0.14,0.04-0.22c0.04-0.1,0.11-0.16,0.09-0.29
					c-0.01-0.06-0.05-0.12-0.06-0.19c-0.02-0.11,0-0.22,0-0.34c0-0.2,0.02-0.38-0.08-0.55c-0.38-0.69-1.24-0.93-1.97-0.79
					c-0.18,0.03-0.29,0.13-0.44,0.21c-0.17,0.09-0.14,0.17-0.32,0.22c-0.08,0.03-0.22,0.12-0.21,0.22c0,0.12,0,0.05,0.01,0.17
					c-0.02,0.01-0.02,0-0.03-0.03"/>
				<path class="st2" d="M61.78-10.43c0.02,0.07,0.01,0.13-0.03,0.19c-0.05,0.1-0.11,0.06-0.17,0.13c-0.05,0.06-0.1,0.28-0.08,0.36
					c-0.17,0.06-0.01,0.23-0.02,0.35c0,0.05-0.04,0.11-0.04,0.16c-0.01,0.12,0.02,0.27,0.07,0.37c0.1,0.2,0.27,0.41,0.44,0.54
					c0.19,0.15,0.36,0.57,0.61,0.63c0.18,0.04,0.38-0.1,0.54-0.14c0.18-0.04,0.4,0.01,0.57-0.05c0.22-0.08,0.13-0.34,0.29-0.45
					c0.1-0.07,0.29-0.01,0.41-0.05c0.2-0.07,0.34-0.26,0.38-0.46c0.02-0.08,0.01-0.14,0.04-0.22c0.04-0.1,0.11-0.16,0.09-0.29
					c-0.01-0.06-0.05-0.12-0.06-0.19c-0.02-0.11,0-0.22,0-0.34c0-0.2,0.02-0.38-0.08-0.55c-0.38-0.69-1.24-0.93-1.97-0.79
					c-0.18,0.03-0.29,0.13-0.44,0.21c-0.17,0.09-0.14,0.17-0.32,0.22c-0.08,0.03-0.22,0.12-0.21,0.22c0,0.12,0,0.05,0.01,0.17
					c-0.02,0.01-0.02,0-0.03-0.03"/>
				<path class="st2" d="M54.12-10.43c0.02,0.07,0.01,0.13-0.03,0.19c-0.05,0.1-0.11,0.06-0.17,0.13c-0.05,0.06-0.1,0.28-0.08,0.36
					c-0.17,0.06-0.01,0.23-0.02,0.35c0,0.05-0.04,0.11-0.04,0.16c-0.01,0.12,0.02,0.27,0.07,0.37c0.1,0.2,0.27,0.41,0.44,0.54
					c0.19,0.15,0.36,0.57,0.61,0.63c0.18,0.04,0.38-0.1,0.54-0.14c0.18-0.04,0.4,0.01,0.57-0.05c0.22-0.08,0.13-0.34,0.29-0.45
					c0.1-0.07,0.29-0.01,0.41-0.05c0.2-0.07,0.34-0.26,0.38-0.46C57.1-8.93,57.09-9,57.12-9.07c0.04-0.1,0.11-0.16,0.09-0.29
					c-0.01-0.06-0.05-0.12-0.06-0.19c-0.02-0.11,0-0.22,0-0.34c0-0.2,0.02-0.38-0.08-0.55c-0.38-0.69-1.24-0.93-1.97-0.79
					c-0.18,0.03-0.29,0.13-0.44,0.21c-0.17,0.09-0.14,0.17-0.32,0.22c-0.08,0.03-0.22,0.12-0.21,0.22c0,0.12,0,0.05,0.01,0.17
					c-0.02,0.01-0.02,0-0.03-0.03"/>
				<path class="st2" d="M46.46-10.43c0.02,0.07,0.01,0.13-0.03,0.19c-0.05,0.1-0.11,0.06-0.17,0.13c-0.05,0.06-0.1,0.28-0.08,0.36
					c-0.17,0.06-0.01,0.23-0.02,0.35c0,0.05-0.04,0.11-0.04,0.16c-0.01,0.12,0.02,0.27,0.07,0.37c0.1,0.2,0.27,0.41,0.44,0.54
					c0.19,0.15,0.36,0.57,0.61,0.63c0.18,0.04,0.38-0.1,0.54-0.14c0.18-0.04,0.4,0.01,0.57-0.05c0.22-0.08,0.13-0.34,0.29-0.45
					c0.1-0.07,0.29-0.01,0.41-0.05c0.2-0.07,0.34-0.26,0.38-0.46c0.02-0.08,0.01-0.14,0.04-0.22c0.04-0.1,0.11-0.16,0.09-0.29
					c-0.01-0.06-0.05-0.12-0.06-0.19c-0.02-0.11,0-0.22,0-0.34c0-0.2,0.02-0.38-0.08-0.55c-0.38-0.69-1.24-0.93-1.97-0.79
					c-0.18,0.03-0.29,0.13-0.44,0.21c-0.17,0.09-0.14,0.17-0.32,0.22c-0.08,0.03-0.22,0.12-0.21,0.22c0,0.12,0,0.05,0.01,0.17
					c-0.02,0.01-0.02,0-0.03-0.03"/>
				<path class="st2" d="M38.8-10.43c0.02,0.07,0.01,0.13-0.03,0.19c-0.05,0.1-0.11,0.06-0.17,0.13c-0.05,0.06-0.1,0.28-0.08,0.36
					c-0.17,0.06-0.01,0.23-0.02,0.35c0,0.05-0.04,0.11-0.04,0.16c-0.01,0.12,0.02,0.27,0.07,0.37c0.1,0.2,0.27,0.41,0.44,0.54
					c0.19,0.15,0.36,0.57,0.61,0.63c0.18,0.04,0.38-0.1,0.54-0.14c0.18-0.04,0.4,0.01,0.57-0.05c0.22-0.08,0.13-0.34,0.29-0.45
					c0.1-0.07,0.29-0.01,0.41-0.05c0.2-0.07,0.34-0.26,0.38-0.46C41.78-8.93,41.77-9,41.8-9.07c0.04-0.1,0.11-0.16,0.09-0.29
					c-0.01-0.06-0.05-0.12-0.06-0.19c-0.02-0.11,0-0.22,0-0.34c0-0.2,0.02-0.38-0.08-0.55c-0.38-0.69-1.24-0.93-1.97-0.79
					c-0.18,0.03-0.29,0.13-0.44,0.21c-0.17,0.09-0.14,0.17-0.32,0.22c-0.08,0.03-0.22,0.12-0.21,0.22c0,0.12,0,0.05,0.01,0.17
					c-0.02,0.01-0.02,0-0.03-0.03"/>
				<path class="st2" d="M31.14-10.43c0.02,0.07,0.01,0.13-0.03,0.19c-0.05,0.1-0.11,0.06-0.17,0.13c-0.05,0.06-0.1,0.28-0.08,0.36
					c-0.17,0.06-0.01,0.23-0.02,0.35c0,0.05-0.04,0.11-0.04,0.16c-0.01,0.12,0.02,0.27,0.07,0.37c0.1,0.2,0.27,0.41,0.44,0.54
					c0.19,0.15,0.36,0.57,0.61,0.63c0.18,0.04,0.38-0.1,0.54-0.14c0.18-0.04,0.4,0.01,0.57-0.05c0.22-0.08,0.13-0.34,0.29-0.45
					c0.1-0.07,0.29-0.01,0.41-0.05c0.2-0.07,0.34-0.26,0.38-0.46c0.02-0.08,0.01-0.14,0.04-0.22c0.04-0.1,0.11-0.16,0.09-0.29
					c-0.01-0.06-0.05-0.12-0.06-0.19c-0.02-0.11,0-0.22,0-0.34c0-0.2,0.02-0.38-0.08-0.55c-0.38-0.69-1.24-0.93-1.97-0.79
					c-0.18,0.03-0.29,0.13-0.44,0.21c-0.17,0.09-0.14,0.17-0.32,0.22c-0.08,0.03-0.22,0.12-0.21,0.22c0,0.12,0,0.05,0.01,0.17
					c-0.02,0.01-0.02,0-0.03-0.03"/>
				<path class="st2" d="M23.48-10.43c0.02,0.07,0.01,0.13-0.03,0.19c-0.05,0.1-0.11,0.06-0.17,0.13c-0.05,0.06-0.1,0.28-0.08,0.36
					c-0.17,0.06-0.01,0.23-0.02,0.35c0,0.05-0.04,0.11-0.04,0.16c-0.01,0.12,0.02,0.27,0.07,0.37c0.1,0.2,0.27,0.41,0.44,0.54
					c0.19,0.15,0.36,0.57,0.61,0.63c0.18,0.04,0.38-0.1,0.54-0.14c0.18-0.04,0.4,0.01,0.57-0.05c0.22-0.08,0.13-0.34,0.29-0.45
					c0.1-0.07,0.29-0.01,0.41-0.05c0.2-0.07,0.34-0.26,0.38-0.46c0.02-0.08,0.01-0.14,0.04-0.22c0.04-0.1,0.11-0.16,0.09-0.29
					c-0.01-0.06-0.05-0.12-0.06-0.19c-0.02-0.11,0-0.22,0-0.34c0-0.2,0.02-0.38-0.08-0.55c-0.38-0.69-1.24-0.93-1.97-0.79
					c-0.18,0.03-0.29,0.13-0.44,0.21c-0.17,0.09-0.14,0.17-0.32,0.22c-0.08,0.03-0.22,0.12-0.21,0.22c0,0.12,0,0.05,0.01,0.17
					c-0.02,0.01-0.02,0-0.03-0.03"/>
				<path class="st2" d="M15.82-10.43c0.02,0.07,0.01,0.13-0.03,0.19c-0.05,0.1-0.11,0.06-0.17,0.13c-0.05,0.06-0.1,0.28-0.08,0.36
					c-0.17,0.06-0.01,0.23-0.02,0.35c0,0.05-0.04,0.11-0.04,0.16c-0.01,0.12,0.02,0.27,0.07,0.37c0.1,0.2,0.27,0.41,0.44,0.54
					c0.19,0.15,0.36,0.57,0.61,0.63c0.18,0.04,0.38-0.1,0.54-0.14c0.18-0.04,0.4,0.01,0.57-0.05c0.22-0.08,0.13-0.34,0.29-0.45
					c0.1-0.07,0.29-0.01,0.41-0.05c0.2-0.07,0.34-0.26,0.38-0.46C18.8-8.93,18.79-9,18.82-9.07c0.04-0.1,0.11-0.16,0.09-0.29
					c-0.01-0.06-0.05-0.12-0.06-0.19c-0.02-0.11,0-0.22,0-0.34c0-0.2,0.02-0.38-0.08-0.55c-0.38-0.69-1.24-0.93-1.97-0.79
					c-0.18,0.03-0.29,0.13-0.44,0.21c-0.17,0.09-0.14,0.17-0.32,0.22c-0.08,0.03-0.22,0.12-0.21,0.22c0,0.12,0,0.05,0.01,0.17
					c-0.02,0.01-0.02,0-0.03-0.03"/>
				<path class="st2" d="M8.16-10.43c0.02,0.07,0.01,0.13-0.03,0.19c-0.05,0.1-0.11,0.06-0.17,0.13c-0.05,0.06-0.1,0.28-0.08,0.36
					C7.72-9.69,7.88-9.52,7.87-9.4c0,0.05-0.04,0.11-0.04,0.16C7.82-9.12,7.84-8.97,7.89-8.87c0.1,0.2,0.27,0.41,0.44,0.54
					c0.19,0.15,0.36,0.57,0.61,0.63c0.18,0.04,0.38-0.1,0.54-0.14c0.18-0.04,0.4,0.01,0.57-0.05c0.22-0.08,0.13-0.34,0.29-0.45
					c0.1-0.07,0.29-0.01,0.41-0.05c0.2-0.07,0.34-0.26,0.38-0.46c0.02-0.08,0.01-0.14,0.04-0.22c0.04-0.1,0.11-0.16,0.09-0.29
					c-0.01-0.06-0.05-0.12-0.06-0.19c-0.02-0.11,0-0.22,0-0.34c0-0.2,0.02-0.38-0.08-0.55c-0.38-0.69-1.24-0.93-1.97-0.79
					c-0.18,0.03-0.29,0.13-0.44,0.21c-0.17,0.09-0.14,0.17-0.32,0.22c-0.08,0.03-0.22,0.12-0.21,0.22c0,0.12,0,0.05,0.01,0.17
					c-0.02,0.01-0.02,0-0.03-0.03"/>
				<path class="st2" d="M0.5-10.43c0.02,0.07,0.01,0.13-0.03,0.19c-0.05,0.1-0.11,0.06-0.17,0.13c-0.05,0.06-0.1,0.28-0.08,0.36
					C0.06-9.69,0.22-9.52,0.21-9.4c0,0.05-0.04,0.11-0.04,0.16C0.16-9.12,0.18-8.97,0.23-8.87c0.1,0.2,0.27,0.41,0.44,0.54
					c0.19,0.15,0.36,0.57,0.61,0.63c0.18,0.04,0.38-0.1,0.54-0.14C2-7.88,2.22-7.83,2.39-7.89c0.22-0.08,0.13-0.34,0.29-0.45
					c0.1-0.07,0.29-0.01,0.41-0.05c0.2-0.07,0.34-0.26,0.38-0.46C3.48-8.93,3.47-9,3.5-9.07c0.04-0.1,0.11-0.16,0.09-0.29
					C3.58-9.43,3.54-9.48,3.53-9.55c-0.02-0.11,0-0.22,0-0.34c0-0.2,0.02-0.38-0.08-0.55c-0.38-0.69-1.24-0.93-1.97-0.79
					c-0.18,0.03-0.29,0.13-0.44,0.21c-0.17,0.09-0.14,0.17-0.32,0.22c-0.08,0.03-0.22,0.12-0.21,0.22c0,0.12,0,0.05,0.01,0.17
					c-0.02,0.01-0.02,0-0.03-0.03"/>
			</g>
		</g>
		<g>
			<path class="st2" d="M69.44-2.78c0.02,0.07,0.01,0.13-0.03,0.19c-0.05,0.1-0.11,0.06-0.17,0.13c-0.05,0.06-0.1,0.28-0.08,0.36
				C69-2.04,69.16-1.87,69.15-1.75c0,0.05-0.04,0.11-0.04,0.16c-0.01,0.12,0.02,0.27,0.07,0.37c0.1,0.2,0.27,0.41,0.44,0.54
				c0.19,0.15,0.36,0.57,0.61,0.63C70.4,0,70.6-0.15,70.76-0.18c0.18-0.04,0.4,0.01,0.57-0.05c0.22-0.08,0.13-0.34,0.29-0.45
				c0.1-0.07,0.29-0.01,0.41-0.05C72.23-0.81,72.37-1,72.4-1.2c0.02-0.08,0.01-0.14,0.04-0.22c0.04-0.1,0.11-0.16,0.09-0.29
				c-0.01-0.06-0.05-0.12-0.06-0.19c-0.02-0.11,0-0.22,0-0.34c0-0.2,0.02-0.38-0.08-0.55c-0.38-0.69-1.24-0.93-1.97-0.79
				c-0.18,0.03-0.29,0.13-0.44,0.21c-0.17,0.09-0.14,0.17-0.32,0.22c-0.08,0.03-0.22,0.12-0.21,0.22c0,0.12,0,0.05,0.01,0.17
				c-0.02,0.01-0.02,0-0.03-0.03"/>
			<path class="st2" d="M61.78-2.78c0.02,0.07,0.01,0.13-0.03,0.19c-0.05,0.1-0.11,0.06-0.17,0.13c-0.05,0.06-0.1,0.28-0.08,0.36
				c-0.17,0.06-0.01,0.23-0.02,0.35c0,0.05-0.04,0.11-0.04,0.16c-0.01,0.12,0.02,0.27,0.07,0.37c0.1,0.2,0.27,0.41,0.44,0.54
				c0.19,0.15,0.36,0.57,0.61,0.63c0.18,0.04,0.38-0.1,0.54-0.14c0.18-0.04,0.4,0.01,0.57-0.05c0.22-0.08,0.13-0.34,0.29-0.45
				c0.1-0.07,0.29-0.01,0.41-0.05c0.2-0.07,0.34-0.26,0.38-0.46c0.02-0.08,0.01-0.14,0.04-0.22c0.04-0.1,0.11-0.16,0.09-0.29
				c-0.01-0.06-0.05-0.12-0.06-0.19c-0.02-0.11,0-0.22,0-0.34c0-0.2,0.02-0.38-0.08-0.55c-0.38-0.69-1.24-0.93-1.97-0.79
				c-0.18,0.03-0.29,0.13-0.44,0.21C62.14-3.28,62.18-3.2,62-3.14c-0.08,0.03-0.22,0.12-0.21,0.22c0,0.12,0,0.05,0.01,0.17
				c-0.02,0.01-0.02,0-0.03-0.03"/>
			<path class="st2" d="M54.12-2.78c0.02,0.07,0.01,0.13-0.03,0.19c-0.05,0.1-0.11,0.06-0.17,0.13c-0.05,0.06-0.1,0.28-0.08,0.36
				c-0.17,0.06-0.01,0.23-0.02,0.35c0,0.05-0.04,0.11-0.04,0.16c-0.01,0.12,0.02,0.27,0.07,0.37c0.1,0.2,0.27,0.41,0.44,0.54
				c0.19,0.15,0.36,0.57,0.61,0.63c0.18,0.04,0.38-0.1,0.54-0.14c0.18-0.04,0.4,0.01,0.57-0.05c0.22-0.08,0.13-0.34,0.29-0.45
				c0.1-0.07,0.29-0.01,0.41-0.05c0.2-0.07,0.34-0.26,0.38-0.46c0.02-0.08,0.01-0.14,0.04-0.22c0.04-0.1,0.11-0.16,0.09-0.29
				c-0.01-0.06-0.05-0.12-0.06-0.19c-0.02-0.11,0-0.22,0-0.34c0-0.2,0.02-0.38-0.08-0.55c-0.38-0.69-1.24-0.93-1.97-0.79
				c-0.18,0.03-0.29,0.13-0.44,0.21c-0.17,0.09-0.14,0.17-0.32,0.22c-0.08,0.03-0.22,0.12-0.21,0.22c0,0.12,0,0.05,0.01,0.17
				c-0.02,0.01-0.02,0-0.03-0.03"/>
			<path class="st2" d="M46.46-2.78c0.02,0.07,0.01,0.13-0.03,0.19c-0.05,0.1-0.11,0.06-0.17,0.13c-0.05,0.06-0.1,0.28-0.08,0.36
				c-0.17,0.06-0.01,0.23-0.02,0.35c0,0.05-0.04,0.11-0.04,0.16c-0.01,0.12,0.02,0.27,0.07,0.37c0.1,0.2,0.27,0.41,0.44,0.54
				C46.82-0.52,47-0.1,47.24-0.04c0.18,0.04,0.38-0.1,0.54-0.14c0.18-0.04,0.4,0.01,0.57-0.05c0.22-0.08,0.13-0.34,0.29-0.45
				c0.1-0.07,0.29-0.01,0.41-0.05c0.2-0.07,0.34-0.26,0.38-0.46c0.02-0.08,0.01-0.14,0.04-0.22c0.04-0.1,0.11-0.16,0.09-0.29
				c-0.01-0.06-0.05-0.12-0.06-0.19c-0.02-0.11,0-0.22,0-0.34c0-0.2,0.02-0.38-0.08-0.55c-0.38-0.69-1.24-0.93-1.97-0.79
				c-0.18,0.03-0.29,0.13-0.44,0.21c-0.17,0.09-0.14,0.17-0.32,0.22c-0.08,0.03-0.22,0.12-0.21,0.22c0,0.12,0,0.05,0.01,0.17
				c-0.02,0.01-0.02,0-0.03-0.03"/>
			<path class="st2" d="M38.8-2.78c0.02,0.07,0.01,0.13-0.03,0.19c-0.05,0.1-0.11,0.06-0.17,0.13c-0.05,0.06-0.1,0.28-0.08,0.36
				c-0.17,0.06-0.01,0.23-0.02,0.35c0,0.05-0.04,0.11-0.04,0.16c-0.01,0.12,0.02,0.27,0.07,0.37c0.1,0.2,0.27,0.41,0.44,0.54
				c0.19,0.15,0.36,0.57,0.61,0.63c0.18,0.04,0.38-0.1,0.54-0.14c0.18-0.04,0.4,0.01,0.57-0.05c0.22-0.08,0.13-0.34,0.29-0.45
				c0.1-0.07,0.29-0.01,0.41-0.05c0.2-0.07,0.34-0.26,0.38-0.46c0.02-0.08,0.01-0.14,0.04-0.22c0.04-0.1,0.11-0.16,0.09-0.29
				c-0.01-0.06-0.05-0.12-0.06-0.19c-0.02-0.11,0-0.22,0-0.34c0-0.2,0.02-0.38-0.08-0.55c-0.38-0.69-1.24-0.93-1.97-0.79
				c-0.18,0.03-0.29,0.13-0.44,0.21c-0.17,0.09-0.14,0.17-0.32,0.22c-0.08,0.03-0.22,0.12-0.21,0.22c0,0.12,0,0.05,0.01,0.17
				c-0.02,0.01-0.02,0-0.03-0.03"/>
			<path class="st2" d="M31.14-2.78c0.02,0.07,0.01,0.13-0.03,0.19c-0.05,0.1-0.11,0.06-0.17,0.13c-0.05,0.06-0.1,0.28-0.08,0.36
				c-0.17,0.06-0.01,0.23-0.02,0.35c0,0.05-0.04,0.11-0.04,0.16c-0.01,0.12,0.02,0.27,0.07,0.37c0.1,0.2,0.27,0.41,0.44,0.54
				c0.19,0.15,0.36,0.57,0.61,0.63C32.1,0,32.3-0.15,32.46-0.18c0.18-0.04,0.4,0.01,0.57-0.05c0.22-0.08,0.13-0.34,0.29-0.45
				c0.1-0.07,0.29-0.01,0.41-0.05C33.93-0.81,34.07-1,34.1-1.2c0.02-0.08,0.01-0.14,0.04-0.22c0.04-0.1,0.11-0.16,0.09-0.29
				c-0.01-0.06-0.05-0.12-0.06-0.19c-0.02-0.11,0-0.22,0-0.34c0-0.2,0.02-0.38-0.08-0.55c-0.38-0.69-1.24-0.93-1.97-0.79
				c-0.18,0.03-0.29,0.13-0.44,0.21c-0.17,0.09-0.14,0.17-0.32,0.22c-0.08,0.03-0.22,0.12-0.21,0.22c0,0.12,0,0.05,0.01,0.17
				c-0.02,0.01-0.02,0-0.03-0.03"/>
			<path class="st2" d="M23.48-2.78c0.02,0.07,0.01,0.13-0.03,0.19c-0.05,0.1-0.11,0.06-0.17,0.13c-0.05,0.06-0.1,0.28-0.08,0.36
				c-0.17,0.06-0.01,0.23-0.02,0.35c0,0.05-0.04,0.11-0.04,0.16c-0.01,0.12,0.02,0.27,0.07,0.37c0.1,0.2,0.27,0.41,0.44,0.54
				c0.19,0.15,0.36,0.57,0.61,0.63c0.18,0.04,0.38-0.1,0.54-0.14c0.18-0.04,0.4,0.01,0.57-0.05c0.22-0.08,0.13-0.34,0.29-0.45
				c0.1-0.07,0.29-0.01,0.41-0.05c0.2-0.07,0.34-0.26,0.38-0.46c0.02-0.08,0.01-0.14,0.04-0.22c0.04-0.1,0.11-0.16,0.09-0.29
				c-0.01-0.06-0.05-0.12-0.06-0.19c-0.02-0.11,0-0.22,0-0.34c0-0.2,0.02-0.38-0.08-0.55c-0.38-0.69-1.24-0.93-1.97-0.79
				c-0.18,0.03-0.29,0.13-0.44,0.21c-0.17,0.09-0.14,0.17-0.32,0.22c-0.08,0.03-0.22,0.12-0.21,0.22c0,0.12,0,0.05,0.01,0.17
				c-0.02,0.01-0.02,0-0.03-0.03"/>
			<path class="st2" d="M15.82-2.78c0.02,0.07,0.01,0.13-0.03,0.19c-0.05,0.1-0.11,0.06-0.17,0.13c-0.05,0.06-0.1,0.28-0.08,0.36
				c-0.17,0.06-0.01,0.23-0.02,0.35c0,0.05-0.04,0.11-0.04,0.16c-0.01,0.12,0.02,0.27,0.07,0.37c0.1,0.2,0.27,0.41,0.44,0.54
				c0.19,0.15,0.36,0.57,0.61,0.63c0.18,0.04,0.38-0.1,0.54-0.14c0.18-0.04,0.4,0.01,0.57-0.05c0.22-0.08,0.13-0.34,0.29-0.45
				c0.1-0.07,0.29-0.01,0.41-0.05c0.2-0.07,0.34-0.26,0.38-0.46c0.02-0.08,0.01-0.14,0.04-0.22c0.04-0.1,0.11-0.16,0.09-0.29
				c-0.01-0.06-0.05-0.12-0.06-0.19c-0.02-0.11,0-0.22,0-0.34c0-0.2,0.02-0.38-0.08-0.55c-0.38-0.69-1.24-0.93-1.97-0.79
				c-0.18,0.03-0.29,0.13-0.44,0.21c-0.17,0.09-0.14,0.17-0.32,0.22c-0.08,0.03-0.22,0.12-0.21,0.22c0,0.12,0,0.05,0.01,0.17
				c-0.02,0.01-0.02,0-0.03-0.03"/>
			<path class="st2" d="M8.16-2.78c0.02,0.07,0.01,0.13-0.03,0.19c-0.05,0.1-0.11,0.06-0.17,0.13C7.91-2.4,7.87-2.18,7.89-2.1
				C7.72-2.04,7.88-1.87,7.87-1.75c0,0.05-0.04,0.11-0.04,0.16C7.82-1.47,7.84-1.32,7.89-1.22c0.1,0.2,0.27,0.41,0.44,0.54
				C8.52-0.52,8.69-0.1,8.94-0.04C9.11,0,9.32-0.15,9.48-0.18c0.18-0.04,0.4,0.01,0.57-0.05c0.22-0.08,0.13-0.34,0.29-0.45
				c0.1-0.07,0.29-0.01,0.41-0.05c0.2-0.07,0.34-0.26,0.38-0.46c0.02-0.08,0.01-0.14,0.04-0.22c0.04-0.1,0.11-0.16,0.09-0.29
				c-0.01-0.06-0.05-0.12-0.06-0.19c-0.02-0.11,0-0.22,0-0.34c0-0.2,0.02-0.38-0.08-0.55c-0.38-0.69-1.24-0.93-1.97-0.79
				C8.95-3.54,8.85-3.45,8.69-3.37C8.52-3.28,8.55-3.2,8.37-3.14C8.29-3.12,8.16-3.02,8.16-2.92c0,0.12,0,0.05,0.01,0.17
				c-0.02,0.01-0.02,0-0.03-0.03"/>
			<path class="st2" d="M0.5-2.78C0.51-2.71,0.5-2.65,0.47-2.59C0.42-2.49,0.36-2.53,0.3-2.46C0.25-2.4,0.21-2.18,0.23-2.1
				C0.06-2.04,0.21-1.87,0.21-1.75c0,0.05-0.04,0.11-0.04,0.16C0.15-1.47,0.18-1.32,0.23-1.22c0.1,0.2,0.27,0.41,0.44,0.54
				C0.86-0.52,1.03-0.1,1.28-0.04C1.45,0,1.66-0.15,1.82-0.18C2-0.23,2.22-0.17,2.39-0.24c0.22-0.08,0.13-0.34,0.29-0.45
				c0.1-0.07,0.29-0.01,0.41-0.05C3.28-0.81,3.42-1,3.46-1.2C3.48-1.28,3.47-1.34,3.5-1.42c0.04-0.1,0.11-0.16,0.09-0.29
				C3.58-1.77,3.54-1.83,3.53-1.9c-0.02-0.11,0-0.22,0-0.34c0-0.2,0.02-0.38-0.08-0.55C3.07-3.47,2.21-3.71,1.47-3.57
				C1.29-3.54,1.19-3.45,1.03-3.37C0.86-3.28,0.89-3.2,0.71-3.14C0.63-3.12,0.5-3.02,0.5-2.92c0,0.12,0,0.05,0.01,0.17
				c-0.02,0.01-0.02,0-0.03-0.03"/>
		</g>
	</g>
</pattern>
<path class="st0" d="M187.83,161.63l-17.21-17.21l-4.92,4.92c-16.8,16.79-39.13,26.04-62.88,26.04c-23.75,0-46.08-9.25-62.88-26.04
	C23.15,132.54,13.9,110.21,13.9,86.45c0-23.75,9.25-46.08,26.04-62.88l4.92-4.92L28.24,2.04C26.92,0.72,25.18,0,23.32,0
	c-1.86,0-3.6,0.72-4.92,2.04c-1.31,1.31-2.04,3.06-2.04,4.91c0,1.86,0.72,3.6,2.04,4.92l6.96,6.96
	c-7.93,9.06-14.14,19.28-18.45,30.42C2.33,61.08,0,73.6,0,86.45c0,27.47,10.7,53.29,30.12,72.71
	c19.42,19.42,45.24,30.12,72.71,30.12c12.86,0,25.38-2.33,37.21-6.91c11.14-4.32,21.36-10.52,30.42-18.45l7.54,7.54
	c2.71,2.71,7.12,2.71,9.83,0C190.53,168.75,190.54,164.34,187.83,161.63"/>
<path class="st0" d="M31.75,86.17c0,9.57,1.88,18.86,5.58,27.6c3.57,8.45,8.68,16.03,15.19,22.54c6.51,6.51,14.09,11.62,22.54,15.19
	c8.75,3.7,18.03,5.58,27.6,5.58c9.57,0,18.86-1.88,27.6-5.58c8.44-3.57,16.03-8.68,22.54-15.19c6.51-6.51,11.62-14.09,15.19-22.54
	c3.7-8.75,5.58-18.03,5.58-27.6c0-9.57-1.88-18.86-5.58-27.6c-3.57-8.44-8.68-16.03-15.19-22.54c-6.51-6.51-14.09-11.62-22.54-15.19
	c-8.75-3.7-18.03-5.58-27.6-5.58c-9.57,0-18.86,1.88-27.6,5.58c-8.45,3.57-16.03,8.68-22.54,15.19
	c-6.51,6.51-11.62,14.09-15.19,22.54C33.63,67.31,31.75,76.6,31.75,86.17 M62.74,46.24C73.4,35.57,87.58,29.7,102.67,29.7
	s29.26,5.87,39.93,16.54c10.67,10.67,16.54,24.85,16.54,39.93s-5.87,29.26-16.54,39.93c-10.67,10.67-24.85,16.54-39.93,16.54
	s-29.26-5.87-39.93-16.54C52.07,115.43,46.2,101.25,46.2,86.17S52.07,56.9,62.74,46.24"/>
<path d="M236.81,46.88c0,2.98,1.81,4.21,4.53,4.21c2.72,0,3.95-1.23,3.95-4.21V17.22c0-1.36,0.52-1.94,1.88-1.94h6.99
	c1.36,0,1.81,0.58,1.81,1.94v31.54c0,5.57-3.24,11.07-14.64,11.07c-11.4,0-15.02-5.51-15.02-11.07v-4.27c0-1.36,0.52-1.94,1.88-1.94
	h6.8c1.36,0,1.81,0.58,1.81,1.94V46.88z"/>
<path d="M276.51,30.11c0.52,1.49,1.04,3.63,1.1,3.89c0.06-0.26,0.71-2.59,1.3-3.89l5.44-12.89c0.45-1.1,0.91-1.94,2.27-1.94h6.86
	c1.36,0,2.01,0.71,1.42,1.94l-11.92,25.77v14.38c0,1.36-0.45,1.94-1.81,1.94h-6.99c-1.36,0-1.88-0.58-1.88-1.94V44.29l-11.98-27.07
	c-0.52-1.17,0-1.94,1.36-1.94h7.9c1.36,0,1.94,0.78,2.33,1.94L276.51,30.11z"/>
<path d="M318.47,27.26c0-2.98-2.07-4.08-5.05-4.08c-2.98,0-5.12,1.1-5.12,4.08v0.65c0,1.75,1.36,2.53,2.07,2.79l10.88,3.69
	c4.79,1.62,8.09,4.99,8.09,9.78v4.6c0,5.57-3.95,11.07-16.13,11.07c-12.18,0-16.25-5.5-16.25-11.07v-4.34
	c0-1.36,0.52-1.94,1.88-1.94h6.74c1.36,0,1.81,0.58,1.81,1.94v2.91c0,2.98,2.53,4.08,5.7,4.08s5.76-1.1,5.76-4.08v-1.3
	c0-2.33-3.11-3.43-5.57-4.34l-9.32-3.5c-3.3-1.23-6.02-4.86-6.02-8.61v-3.76c0-5.57,3.37-11.07,15.35-11.07
	c11.98,0,15.61,5.5,15.61,11.07v2.4c0,1.36-0.52,1.94-1.88,1.94h-6.74c-1.36,0-1.81-0.58-1.81-1.94V27.26z"/>
<path d="M369.76,57.37c0.65,0.97,0.39,1.94-0.97,1.94h-8.94c-1.36,0-2.07-0.97-2.72-1.94L346.9,41.5h-0.71v15.87
	c0,1.36-0.45,1.94-1.81,1.94h-6.99c-1.36,0-1.88-0.58-1.88-1.94V17.22c0-1.36,0.52-1.94,1.88-1.94h6.99c1.36,0,1.81,0.58,1.81,1.94
	v16.51h0.65l9.91-16.51c0.65-1.04,1.68-1.94,3.04-1.94h7.45c1.36,0,1.55,0.91,0.91,1.94l-12.3,19.69L369.76,57.37z"/>
<path d="M255.14,97.85l6.35,15.93c0.45,1.17-0.39,1.94-1.81,1.94h-6.99c-1.23,0-1.49-1.04-1.88-1.94l-5.7-14.31h-4.86v14.31
	c0,1.36-0.45,1.94-1.81,1.94h-6.99c-1.36,0-1.88-0.58-1.88-1.94V73.63c0-1.36,0.52-1.94,1.88-1.94h13.99
	c12.17,0,16.45,5.5,16.45,11.07v5.63C261.87,92.08,259.99,95.77,255.14,97.85 M240.24,80.43v10.3h5.18c3.17,0,5.89-1.23,5.89-4.21
	v-1.88c0-2.98-2.72-4.21-5.89-4.21H240.24z"/>
<path d="M270.55,115.72c-1.36,0-1.88-0.58-1.88-1.94V73.63c0-1.36,0.52-1.94,1.88-1.94h22.15c1.36,0,1.94,0.45,1.94,1.81v5.05
	c0,1.36-0.58,1.88-1.94,1.88h-13.34v8.42h12.3c1.36,0,1.94,0.45,1.94,1.81v4.73c0,1.36-0.58,1.88-1.94,1.88h-12.3v9.71h13.99
	c1.36,0,1.94,0.45,1.94,1.81v5.05c0,1.36-0.58,1.88-1.94,1.88H270.55z"/>
<path d="M308.69,103.29c0,2.98,1.81,4.21,4.53,4.21c2.72,0,3.95-1.23,3.95-4.21V73.63c0-1.36,0.52-1.94,1.88-1.94h6.99
	c1.36,0,1.81,0.58,1.81,1.94v31.54c0,5.57-3.24,11.07-14.63,11.07c-11.4,0-15.02-5.5-15.02-11.07v-4.27c0-1.36,0.52-1.94,1.88-1.94
	h6.8c1.36,0,1.81,0.58,1.81,1.94V103.29z"/>
<path d="M355.51,83.66c0-2.98-2.07-4.08-5.05-4.08s-5.12,1.1-5.12,4.08v0.65c0,1.75,1.36,2.53,2.07,2.78l10.88,3.69
	c4.79,1.62,8.09,4.99,8.09,9.78v4.6c0,5.57-3.95,11.07-16.13,11.07s-16.25-5.5-16.25-11.07v-4.34c0-1.36,0.52-1.94,1.88-1.94h6.73
	c1.36,0,1.81,0.58,1.81,1.94v2.91c0,2.98,2.53,4.08,5.7,4.08c3.17,0,5.76-1.1,5.76-4.08v-1.29c0-2.33-3.11-3.43-5.57-4.34l-9.33-3.5
	c-3.3-1.23-6.02-4.86-6.02-8.61v-3.76c0-5.57,3.37-11.07,15.35-11.07s15.61,5.5,15.61,11.07v2.4c0,1.36-0.52,1.94-1.88,1.94h-6.74
	c-1.36,0-1.81-0.58-1.81-1.94V83.66z"/>
<path d="M374.42,115.72c-1.36,0-1.88-0.58-1.88-1.94V73.63c0-1.36,0.52-1.94,1.88-1.94h22.15c1.36,0,1.94,0.45,1.94,1.81v5.05
	c0,1.36-0.58,1.88-1.94,1.88h-13.34v8.42h12.3c1.36,0,1.94,0.45,1.94,1.81v4.73c0,1.36-0.58,1.88-1.94,1.88h-12.3v9.71h13.99
	c1.36,0,1.94,0.45,1.94,1.81v5.05c0,1.36-0.58,1.88-1.94,1.88H374.42z"/>
<path d="M407.19,115.72c-1.36,0-1.88-0.58-1.88-1.94V73.63c0-1.36,0.52-1.94,1.88-1.94h12.17c12.17,0,16.45,4.53,16.45,10.1v3.56
	c0,3.11-1.49,5.5-4.4,7.19c4.01,1.62,6.54,4.34,6.54,7.77v4.79c0,5.57-4.27,10.62-16.45,10.62H407.19z M415.99,80.1v9.33h3.37
	c3.17,0,5.89-1.23,5.89-4.27v-1.68c0-2.98-2.72-3.37-5.89-3.37H415.99z M415.99,97.33v9.97h5.5c3.17,0,5.89-1.17,5.89-4.15v-2.07
	c0-2.46-2.72-3.75-5.89-3.75H415.99z"/>
<path d="M454.46,103.29c0,2.98,2.65,4.21,5.83,4.21c3.17,0,5.89-1.23,5.89-4.21V73.63c0-1.36,0.52-1.94,1.88-1.94h6.99
	c1.36,0,1.81,0.58,1.81,1.94v31.54c0,5.57-4.4,11.07-16.58,11.07c-12.18,0-16.51-5.5-16.51-11.07V73.63c0-1.36,0.52-1.94,1.88-1.94
	h7c1.36,0,1.81,0.58,1.81,1.94V103.29z"/>
<path d="M509.89,97.85l6.35,15.93c0.45,1.17-0.39,1.94-1.81,1.94h-6.99c-1.23,0-1.49-1.04-1.88-1.94l-5.7-14.31H495v14.31
	c0,1.36-0.45,1.94-1.81,1.94h-7c-1.36,0-1.88-0.58-1.88-1.94V73.63c0-1.36,0.52-1.94,1.88-1.94h13.99c12.17,0,16.45,5.5,16.45,11.07
	v5.63C516.63,92.08,514.75,95.77,509.89,97.85 M495,80.43v10.3h5.18c3.17,0,5.89-1.23,5.89-4.21v-1.88c0-2.98-2.72-4.21-5.89-4.21
	H495z"/>
<path d="M525.3,115.72c-1.36,0-1.88-0.58-1.88-1.94V73.63c0-1.36,0.52-1.94,1.88-1.94h22.15c1.36,0,1.94,0.45,1.94,1.81v5.05
	c0,1.36-0.58,1.88-1.94,1.88h-13.34v8.42h12.3c1.36,0,1.94,0.45,1.94,1.81v4.73c0,1.36-0.58,1.88-1.94,1.88h-12.3v9.71h13.99
	c1.36,0,1.94,0.45,1.94,1.81v5.05c0,1.36-0.58,1.88-1.94,1.88H525.3z"/>
<path d="M576.53,73.63l11.72,40.15c0.39,1.23-0.06,1.94-1.42,1.94h-7.19c-1.36,0-1.94-0.71-2.27-1.94l-1.68-6.22h-10.75l-1.68,6.22
	c-0.33,1.23-0.91,1.94-2.27,1.94h-6.54c-1.36,0-1.81-0.71-1.42-1.94l11.72-40.15c0.39-1.29,1.04-1.94,2.4-1.94h6.99
	C575.49,71.68,576.14,72.33,576.53,73.63 M572.45,95.64c-1.04-3.95-1.94-12.95-2.01-13.53c-0.13,0.91-1.17,9.78-2.2,13.53l-0.97,3.5
	h6.09L572.45,95.64z"/>
<path d="M602.56,103.29c0,2.98,2.66,4.21,5.83,4.21s5.89-1.23,5.89-4.21V73.63c0-1.36,0.52-1.94,1.88-1.94h6.99
	c1.36,0,1.81,0.58,1.81,1.94v31.54c0,5.57-4.4,11.07-16.58,11.07c-12.18,0-16.51-5.5-16.51-11.07V73.63c0-1.36,0.52-1.94,1.88-1.94
	h7c1.36,0,1.81,0.58,1.81,1.94V103.29z"/>
<path d="M254.9,175.44c0,0.73-0.26,1.08-1.04,1.08h-3.58c-0.78,0-1.04-0.35-1.04-1.08v-16.4c-0.04,0.13-0.82,2.76-1.25,3.93
	l-3.28,8.03c-0.3,0.69-0.69,1.08-1.42,1.08h-3.06c-0.73,0-1.12-0.43-1.38-1.08l-3.67-8.68c-0.43-0.91-0.95-2.89-0.99-3.19v16.32
	c0,0.73-0.26,1.08-1.04,1.08h-3.41c-0.78,0-1.04-0.35-1.04-1.08v-27.19c0-0.74,0.26-1.08,1.04-1.08h3.41c0.56,0,0.78,0.21,0.95,0.6
	l6.6,15.07c0.52,1.17,1.08,3.02,1.08,3.02s0.56-1.68,1.12-2.98l6.39-15.2c0.17-0.39,0.48-0.52,0.99-0.52h3.58
	c0.78,0,1.04,0.34,1.04,1.08V175.44z"/>
<path d="M290.64,147.16c0.78,0,1.08,0.26,1.08,1.04v2.63c0,0.78-0.3,1.04-1.08,1.04h-9.97v7.17h9.24c0.78,0,1.12,0.26,1.12,1.04
	v2.46c0,0.78-0.35,1.08-1.12,1.08h-9.24v8.2h10.45c0.73,0,1.08,0.26,1.08,0.99v2.68c0,0.73-0.35,1.04-1.08,1.04h-14.89
	c-0.73,0-1.08-0.3-1.08-1.08v-5.27h-7.9l-3.06,5.27c-0.3,0.52-0.65,1.08-1.25,1.08h-3.54c-0.73,0-1.17-0.43-0.78-1.08l16.19-27.24
	c0.21-0.34,0.65-1.04,1.51-1.04H290.64z M270.01,165.55h5.14v-9.11c-0.52,1.08-1.04,2.07-1.47,2.8L270.01,165.55z"/>
<path d="M302.78,165.34v10.06c0,0.78-0.26,1.12-1.04,1.12h-3.76c-0.78,0-1.04-0.35-1.04-1.12v-27.11c0-0.78,0.26-1.12,1.04-1.12
	h9.07c7.81,0,10.45,3.41,10.45,7.04v4.1c0,2.55-1.29,4.96-4.75,6.22l4.66,10.88c0.3,0.69-0.22,1.12-0.99,1.12h-3.8
	c-0.6,0-0.78-0.43-1.08-1.12l-4.23-10.06h-0.26H302.78z M302.78,152v8.5h4.27c2.89,0,4.66-1.08,4.66-3.24v-2.03
	c0-2.16-1.77-3.24-4.66-3.24H302.78z"/>
<path d="M344.43,175.44c0.39,0.52,0.22,1.08-0.56,1.08h-4.79c-0.73,0-1.17-0.56-1.55-1.08l-8.12-11.31h-0.73v11.31
	c0,0.73-0.26,1.08-1.04,1.08h-3.75c-0.78,0-1.04-0.35-1.04-1.08v-27.19c0-0.74,0.26-1.08,1.04-1.08h3.75c0.78,0,1.04,0.34,1.04,1.08
	v11.61h0.69l7.68-11.61c0.39-0.61,0.95-1.08,1.73-1.08h4.01c0.78,0,0.91,0.52,0.52,1.08l-9.02,13.34L344.43,175.44z"/>
<path d="M363.47,176.52c-0.78,0-1.12-0.35-1.34-1.08l-8.07-27.2c-0.22-0.69,0.04-1.08,0.82-1.08h4.1c0.73,0,1.04,0.39,1.25,1.08
	l4.19,14.68c0.65,2.33,1.04,6.26,1.04,6.26s0.52-3.93,1.17-6.22l4.19-14.72c0.22-0.69,0.52-1.08,1.29-1.08h3.76
	c0.73,0,0.99,0.39,0.78,1.08l-8.03,27.2c-0.22,0.73-0.6,1.08-1.38,1.08H363.47z"/>
<path d="M381.35,176.52c-0.78,0-1.04-0.35-1.04-1.12v-27.11c0-0.78,0.26-1.12,1.04-1.12h14.76c0.73,0,1.08,0.26,1.08,1.04v2.72
	c0,0.78-0.35,1.08-1.08,1.08h-9.97v6.99h9.24c0.78,0,1.12,0.26,1.12,1.04v2.59c0,0.73-0.34,1.04-1.12,1.04h-9.24v8.03h10.4
	c0.78,0,1.08,0.26,1.08,1.04v2.72c0,0.78-0.3,1.08-1.08,1.08H381.35z"/>
<path d="M408.24,165.34v10.06c0,0.78-0.26,1.12-1.04,1.12h-3.76c-0.78,0-1.04-0.35-1.04-1.12v-27.11c0-0.78,0.26-1.12,1.04-1.12
	h9.06c7.81,0,10.45,3.41,10.45,7.04v4.1c0,2.55-1.29,4.96-4.75,6.22l4.66,10.88c0.3,0.69-0.22,1.12-0.99,1.12h-3.8
	c-0.6,0-0.78-0.43-1.08-1.12l-4.23-10.06h-0.26H408.24z M408.24,152v8.5h4.27c2.89,0,4.66-1.08,4.66-3.24v-2.03
	c0-2.16-1.77-3.24-4.66-3.24H408.24z"/>
<path d="M429.22,176.52c-0.69,0-0.91-0.39-0.91-1.12v-27.11c0-0.78,0.26-1.12,1.04-1.12h9.41c7.81,0,10.53,3.41,10.53,7.04v15.28
	c0,3.63-2.72,7.04-10.53,7.04H429.22z M434.15,152v19.68h4.62c2.94,0,4.71-1.08,4.71-3.24v-13.21c0-2.16-1.77-3.24-4.71-3.24H434.15
	z"/>
<path d="M455.9,176.52c-0.78,0-1.04-0.35-1.04-1.12v-27.11c0-0.78,0.26-1.12,1.04-1.12h14.76c0.73,0,1.08,0.26,1.08,1.04v2.72
	c0,0.78-0.35,1.08-1.08,1.08h-9.97v6.99h9.24c0.78,0,1.12,0.26,1.12,1.04v2.59c0,0.73-0.34,1.04-1.12,1.04h-9.24v8.03h10.4
	c0.78,0,1.08,0.26,1.08,1.04v2.72c0,0.78-0.3,1.08-1.08,1.08H455.9z"/>
<path d="M497.95,175.44c0,0.73-0.26,1.08-1.04,1.08h-3.41c-0.56,0-0.78-0.13-0.99-0.52l-8.33-14.29c-1.17-1.94-1.68-3.37-1.73-3.5
	v17.22c0,0.73-0.26,1.08-1.04,1.08h-3.41c-0.78,0-1.04-0.35-1.04-1.08v-27.19c0-0.74,0.26-1.08,1.04-1.08h3.41
	c0.47,0,0.73,0.13,0.91,0.43l8.68,14.89c0.73,1.25,1.47,3.02,1.47,3.02v-17.27c0-0.74,0.26-1.08,1.04-1.08h3.41
	c0.78,0,1.04,0.34,1.04,1.08V175.44z"/>
</svg>
