<?xml version="1.0" encoding="UTF-8"?>
<svg id="Layer_1" xmlns="http://www.w3.org/2000/svg" viewBox="0 0 24 24">
  <defs>
    <style>
      .cls-1 {
        fill: #92321a;
      }
    </style>
  </defs>
  <path class="cls-1" d="M20,4c2.76,2.72,3.8,6.52,3.15,10.07.55.96.85,2.08.85,3.27,0,1.77-.7,3.46-1.95,4.71-1.25,1.25-2.95,1.95-4.71,1.95-1.19,0-2.31-.31-3.27-.85-3.55.65-7.35-.39-10.07-3.15C1.24,17.28.2,13.48.85,9.93c-.55-.96-.85-2.08-.85-3.27,0-1.77.7-3.46,1.95-4.71C3.2.7,4.9,0,6.67,0c1.19,0,2.31.31,3.27.85,3.55-.65,7.35.39,10.07,3.15ZM12.05,18.88c3.83,0,5.73-1.84,5.73-4.32,0-1.59-.75-3.28-3.64-3.93l-2.65-.59c-1.01-.23-2.16-.53-2.16-1.48s.8-1.63,2.27-1.63c2.97,0,2.69,2.04,4.17,2.04.77,0,1.44-.45,1.44-1.24,0-1.83-2.92-3.2-5.4-3.2-2.68,0-5.55,1.15-5.55,4.19,0,1.47.52,3.03,3.4,3.75l3.59.91c1.08.27,1.35.87,1.35,1.43,0,.91-.91,1.8-2.55,1.8-3.21,0-2.77-2.47-4.49-2.47-.77,0-1.33.53-1.33,1.29,0,1.48,1.77,3.45,5.83,3.45Z"/>
</svg>