<?xml version="1.0" encoding="UTF-8"?>
<svg id="Layer_1" xmlns="http://www.w3.org/2000/svg" viewBox="0 0 20.91 24">
  <defs>
    <style>
      .cls-1 {
        fill: rgba(254, 246, 238, 1);
      }
    </style>
  </defs>
  <path class="cls-1" d="M16.59,3.76c-.91-1.04-1.41-2.38-1.41-3.76h-4.12v16.53c-.03.9-.41,1.74-1.05,2.36-.64.62-1.5.97-2.4.97-1.89,0-3.47-1.55-3.47-3.47,0-2.29,2.21-4.01,4.49-3.31v-4.21c-4.6-.61-8.63,2.96-8.63,7.52s3.68,7.6,7.59,7.6c4.19,0,7.59-3.4,7.59-7.6v-8.39c1.67,1.2,3.68,1.84,5.73,1.84v-4.12s-2.51.12-4.32-1.97Z"/>
</svg>