<svg width="323" height="162" viewBox="0 0 323 162" fill="none" xmlns="http://www.w3.org/2000/svg">
<rect width="323" height="162" rx="30" fill="#FCEBD8"/>
<path d="M34.4382 122.165V118.532L43.5469 104.182H46.679V109.21H44.8253L39.0831 118.298V118.468H52.027V122.165H34.4382ZM44.9105 126V121.057L44.9957 119.448V104.182H49.321V126H44.9105ZM57.3857 126.277C56.6825 126.277 56.0788 126.028 55.5746 125.531C55.0774 125.027 54.8288 124.423 54.8288 123.72C54.8288 123.024 55.0774 122.428 55.5746 121.93C56.0788 121.433 56.6825 121.185 57.3857 121.185C58.0675 121.185 58.6641 121.433 59.1754 121.93C59.6868 122.428 59.9425 123.024 59.9425 123.72C59.9425 124.189 59.8217 124.619 59.5803 125.009C59.3459 125.393 59.0369 125.702 58.6534 125.936C58.2699 126.163 57.8473 126.277 57.3857 126.277ZM70.8862 126.298C69.2456 126.298 67.786 126.032 66.5076 125.499C65.2363 124.96 64.2385 124.224 63.514 123.294C62.7896 122.364 62.4274 121.309 62.4274 120.13C62.4274 119.221 62.6333 118.386 63.0453 117.626C63.4643 116.859 64.0325 116.224 64.7498 115.719C65.4672 115.208 66.2697 114.881 67.1575 114.739V114.59C65.9927 114.356 65.0481 113.791 64.3237 112.896C63.5993 111.994 63.237 110.947 63.237 109.754C63.237 108.624 63.5673 107.619 64.2278 106.739C64.8883 105.851 65.7939 105.155 66.9444 104.651C68.1021 104.139 69.416 103.884 70.8862 103.884C72.3564 103.884 73.6667 104.139 74.8173 104.651C75.975 105.162 76.8841 105.862 77.5446 106.749C78.2051 107.63 78.5389 108.631 78.546 109.754C78.5389 110.954 78.1696 112.001 77.438 112.896C76.7065 113.791 75.769 114.356 74.6255 114.59V114.739C75.4991 114.881 76.291 115.208 77.0012 115.719C77.7186 116.224 78.2868 116.859 78.7058 117.626C79.1319 118.386 79.3485 119.221 79.3556 120.13C79.3485 121.309 78.9828 122.364 78.2583 123.294C77.5339 124.224 76.5325 124.96 75.2541 125.499C73.9828 126.032 72.5268 126.298 70.8862 126.298ZM70.8862 122.911C71.6177 122.911 72.2569 122.779 72.8038 122.516C73.3507 122.246 73.7768 121.877 74.0822 121.408C74.3947 120.933 74.551 120.386 74.551 119.768C74.551 119.136 74.3912 118.578 74.0716 118.095C73.752 117.605 73.3187 117.222 72.7718 116.945C72.225 116.661 71.5964 116.518 70.8862 116.518C70.1831 116.518 69.5545 116.661 69.0005 116.945C68.4466 117.222 68.0098 117.605 67.6902 118.095C67.3777 118.578 67.2214 119.136 67.2214 119.768C67.2214 120.386 67.3741 120.933 67.6795 121.408C67.9849 121.877 68.4146 122.246 68.9686 122.516C69.5225 122.779 70.1618 122.911 70.8862 122.911ZM70.8862 113.163C71.497 113.163 72.0403 113.038 72.5162 112.79C72.992 112.541 73.3649 112.197 73.6348 111.756C73.9047 111.316 74.0396 110.808 74.0396 110.233C74.0396 109.665 73.9047 109.168 73.6348 108.741C73.3649 108.308 72.9956 107.971 72.5268 107.729C72.0581 107.481 71.5112 107.357 70.8862 107.357C70.2683 107.357 69.7214 107.481 69.2456 107.729C68.7697 107.971 68.3968 108.308 68.127 108.741C67.8642 109.168 67.7328 109.665 67.7328 110.233C67.7328 110.808 67.8677 111.316 68.1376 111.756C68.4075 112.197 68.7804 112.541 69.2562 112.79C69.7321 113.038 70.2754 113.163 70.8862 113.163Z" fill="#0C0F1E"/>
<path d="M100.834 46.1436H123.095V50.2877H114.33V73.6487H109.526V50.2877H100.798L100.834 46.1436ZM122.142 53.735H126.249V57.5857H126.322C126.469 57.0356 126.726 56.5222 127.093 56.0087C127.459 55.4953 127.899 55.0185 128.45 54.6151C128.963 54.175 129.55 53.845 130.21 53.5883C130.833 53.3316 131.493 53.1849 132.154 53.1849C132.667 53.1849 133.034 53.2215 133.217 53.2215C133.4 53.2582 133.621 53.2949 133.804 53.2949V57.5123C133.51 57.439 133.18 57.4023 132.85 57.3656C132.52 57.329 132.227 57.2923 131.897 57.2923C131.163 57.2923 130.467 57.439 129.806 57.7324C129.146 58.0258 128.596 58.4658 128.083 59.0159C127.606 59.6027 127.203 60.2995 126.909 61.143C126.616 61.9865 126.469 62.9767 126.469 64.0769V73.5387H122.068L122.142 53.735ZM153.974 73.6487H149.647V70.8615H149.573C149.023 71.8883 148.217 72.6585 147.153 73.2819C146.09 73.9054 144.989 74.1988 143.889 74.1988C141.285 74.1988 139.378 73.5753 138.205 72.2551C137.031 70.9715 136.444 68.9911 136.444 66.3873V53.735H140.845V65.9472C140.845 67.7076 141.175 68.9545 141.872 69.6513C142.532 70.3847 143.486 70.7515 144.696 70.7515C145.613 70.7515 146.383 70.6048 147.006 70.3114C147.63 70.018 148.143 69.6513 148.51 69.1745C148.913 68.6978 149.17 68.111 149.353 67.4508C149.537 66.7907 149.61 66.0573 149.61 65.2871V53.735H154.011V73.6487H153.974ZM161.456 67.2675C161.602 68.5511 162.079 69.4312 162.923 69.9813C163.766 70.4948 164.793 70.7515 165.967 70.7515C166.37 70.7515 166.847 70.7148 167.36 70.6414C167.874 70.5681 168.387 70.4581 168.827 70.2747C169.304 70.0913 169.671 69.8346 169.964 69.4679C170.257 69.1012 170.404 68.6611 170.367 68.111C170.331 67.5609 170.147 67.0841 169.744 66.7174C169.34 66.3506 168.864 66.0939 168.277 65.8372C167.69 65.6172 166.993 65.4338 166.223 65.2871C165.453 65.1404 164.683 64.9571 163.876 64.7737C163.069 64.5903 162.263 64.3703 161.492 64.1136C160.722 63.8569 160.062 63.5268 159.439 63.05C158.852 62.6099 158.338 62.0599 158.008 61.3631C157.642 60.6663 157.458 59.8594 157.458 58.8326C157.458 57.7324 157.715 56.8522 158.265 56.1187C158.779 55.3853 159.475 54.7985 160.282 54.3584C161.089 53.9183 162.006 53.5883 162.996 53.4049C163.986 53.2215 164.94 53.1482 165.82 53.1482C166.847 53.1482 167.837 53.2582 168.754 53.4783C169.671 53.6983 170.551 54.0284 171.284 54.5418C172.054 55.0185 172.678 55.6787 173.155 56.4488C173.668 57.2189 173.961 58.1725 174.108 59.2727H169.524C169.304 58.2091 168.827 57.5123 168.094 57.1456C167.323 56.7789 166.48 56.5955 165.49 56.5955C165.196 56.5955 164.793 56.6322 164.39 56.6688C163.949 56.7422 163.583 56.8155 163.179 56.9622C162.813 57.1089 162.483 57.329 162.226 57.5857C161.969 57.8424 161.822 58.2091 161.822 58.6492C161.822 59.1993 162.006 59.6027 162.373 59.9328C162.739 60.2628 163.216 60.5196 163.839 60.7763C164.426 60.9963 165.123 61.1797 165.893 61.3264C166.663 61.4731 167.47 61.6564 168.277 61.8398C169.084 62.0232 169.854 62.2432 170.624 62.4999C171.394 62.7566 172.091 63.0867 172.678 63.5635C173.265 64.0035 173.778 64.5536 174.145 65.2138C174.511 65.8739 174.695 66.7174 174.695 67.6709C174.695 68.8444 174.438 69.8346 173.888 70.6781C173.338 71.4849 172.641 72.1817 171.798 72.6952C170.954 73.2086 169.964 73.5753 168.937 73.832C167.874 74.0521 166.847 74.1988 165.82 74.1988C164.573 74.1988 163.399 74.0521 162.336 73.7587C161.272 73.4653 160.319 73.0252 159.549 72.4751C158.779 71.8883 158.155 71.1916 157.715 70.3114C157.275 69.4679 157.018 68.441 156.982 67.2308H161.419V67.2675H161.456ZM175.942 53.735H179.279V47.7205H183.68V53.6983H187.641V56.9622H183.68V67.5976C183.68 68.0743 183.717 68.441 183.753 68.8078C183.79 69.1378 183.9 69.4312 184.01 69.6513C184.157 69.8713 184.377 70.0547 184.633 70.1647C184.927 70.2747 185.293 70.3481 185.807 70.3481C186.1 70.3481 186.43 70.3481 186.724 70.3114C187.017 70.2747 187.347 70.238 187.641 70.1647V73.5753C187.164 73.6487 186.687 73.6853 186.21 73.722C185.734 73.7954 185.293 73.7954 184.78 73.7954C183.606 73.7954 182.69 73.6854 181.993 73.4653C181.296 73.2453 180.746 72.9152 180.343 72.5118C179.939 72.0717 179.682 71.5583 179.536 70.9348C179.389 70.3114 179.316 69.5412 179.279 68.7344V56.9989H175.942V53.6616V53.735ZM190.721 53.735H194.865V56.4488H194.939C195.562 55.2752 196.406 54.4684 197.506 53.955C198.606 53.4416 199.78 53.1849 201.1 53.1849C202.677 53.1849 204.034 53.4416 205.207 54.0284C206.381 54.5785 207.334 55.3119 208.104 56.3021C208.875 57.2556 209.461 58.3925 209.828 59.6761C210.195 60.9596 210.415 62.3532 210.415 63.7835C210.415 65.1404 210.231 66.424 209.901 67.6709C209.535 68.9178 209.021 70.0547 208.324 71.0082C207.628 71.9617 206.747 72.7318 205.647 73.3186C204.547 73.9054 203.3 74.1988 201.833 74.1988C201.21 74.1988 200.55 74.1254 199.926 74.0154C199.303 73.9054 198.679 73.722 198.093 73.4653C197.506 73.2086 196.956 72.8785 196.479 72.4751C195.965 72.0717 195.562 71.595 195.232 71.0815H195.159V81.02H190.758V53.735H190.721ZM206.087 63.7102C206.087 62.83 205.977 61.9498 205.721 61.1063C205.501 60.2628 205.134 59.5294 204.657 58.8693C204.18 58.2091 203.594 57.6957 202.933 57.2923C202.237 56.8889 201.43 56.7055 200.55 56.7055C198.716 56.7055 197.322 57.329 196.369 58.6125C195.452 59.8961 194.975 61.6198 194.975 63.7468C194.975 64.7737 195.085 65.6905 195.342 66.534C195.599 67.3775 195.929 68.111 196.442 68.7344C196.919 69.3579 197.506 69.8346 198.203 70.2014C198.899 70.5681 199.669 70.7515 200.586 70.7515C201.613 70.7515 202.42 70.5314 203.117 70.128C203.814 69.7246 204.364 69.1745 204.84 68.5511C205.281 67.8909 205.611 67.1575 205.794 66.314C205.977 65.4338 206.087 64.5903 206.087 63.7102ZM213.825 46.1436H218.226V50.2877H213.825V46.1436ZM213.825 53.735H218.226V73.6487H213.825V53.735ZM222.15 46.1436H226.551V73.6487H222.15V46.1436ZM239.974 74.1988C238.397 74.1988 236.966 73.9421 235.72 73.392C234.473 72.8419 233.446 72.1451 232.566 71.2282C231.722 70.3114 231.062 69.1745 230.622 67.8909C230.182 66.6074 229.925 65.1771 229.925 63.6735C229.925 62.1699 230.145 60.7763 230.622 59.4927C231.062 58.2091 231.722 57.1089 232.566 56.1554C233.409 55.2386 234.473 54.5051 235.72 53.9917C236.966 53.4783 238.397 53.1849 239.974 53.1849C241.551 53.1849 242.981 53.4416 244.228 53.9917C245.475 54.5051 246.502 55.2386 247.382 56.1554C248.225 57.0723 248.885 58.2091 249.325 59.4927C249.765 60.7763 250.022 62.1699 250.022 63.6735C250.022 65.2138 249.802 66.6074 249.325 67.8909C248.849 69.1745 248.225 70.2747 247.382 71.2282C246.538 72.1451 245.475 72.8785 244.228 73.392C242.981 73.9054 241.587 74.1988 239.974 74.1988ZM239.974 70.7148C240.927 70.7148 241.807 70.4948 242.504 70.0913C243.238 69.6879 243.788 69.1378 244.264 68.4777C244.741 67.8176 245.071 67.0474 245.291 66.2406C245.511 65.3971 245.621 64.5536 245.621 63.6735C245.621 62.83 245.511 61.9865 245.291 61.143C245.071 60.2995 244.741 59.5661 244.264 58.9059C243.788 58.2458 243.201 57.7324 242.504 57.329C241.771 56.9256 240.927 56.7055 239.974 56.7055C239.02 56.7055 238.14 56.9256 237.443 57.329C236.71 57.7324 236.16 58.2825 235.683 58.9059C235.206 59.5661 234.876 60.2995 234.656 61.143C234.436 61.9865 234.326 62.83 234.326 63.6735C234.326 64.5536 234.436 65.3971 234.656 66.2406C234.876 67.0841 235.206 67.8176 235.683 68.4777C236.16 69.1378 236.746 69.6879 237.443 70.0913C238.177 70.5314 239.02 70.7148 239.974 70.7148ZM251.342 53.735H254.68V47.7205H259.081V53.6983H263.041V56.9622H259.081V67.5976C259.081 68.0743 259.117 68.441 259.154 68.8078C259.191 69.1378 259.301 69.4312 259.411 69.6513C259.557 69.8713 259.777 70.0547 260.034 70.1647C260.327 70.2747 260.694 70.3481 261.208 70.3481C261.501 70.3481 261.831 70.3481 262.124 70.3114C262.418 70.2747 262.748 70.238 263.041 70.1647V73.5753C262.565 73.6487 262.088 73.6853 261.611 73.722C261.134 73.7954 260.694 73.7954 260.181 73.7954C259.007 73.7954 258.09 73.6854 257.394 73.4653C256.697 73.2453 256.147 72.9152 255.743 72.5118C255.34 72.0717 255.083 71.5583 254.936 70.9348C254.79 70.3114 254.716 69.5412 254.68 68.7344V56.9989H251.342V53.6616V53.735Z" fill="#0C0F1E"/>
<path d="M95.6998 46.1436H75.5661L69.3682 27L63.1338 46.1436L43 46.1069L59.283 57.9524L53.0485 77.096L69.3316 65.2505L85.6146 77.096L79.4168 57.9524L95.6998 46.1436Z" fill="#00B67A"/>
<path d="M80.8104 62.2799L79.4168 57.9524L69.3683 65.2504L80.8104 62.2799Z" fill="#00B67A"/>
<path d="M118 100H89V129H118V100Z" fill="#00B67A"/>
<path d="M103.5 119.334L108.031 118.125L109.844 123.865L103.5 119.334ZM113.771 112.084H105.917L103.5 104.834L101.083 112.084H93.2291L99.5729 116.615L97.1562 123.865L103.5 119.334L107.427 116.615L113.771 112.084Z" fill="#FEF6EE"/>
<path d="M153.042 100H124.042V129H153.042V100Z" fill="#00B67A"/>
<path d="M138.542 119.334L143.073 118.125L144.886 123.865L138.542 119.334ZM148.813 112.084H140.958L138.542 104.834L136.125 112.084H128.271L134.615 116.615L132.198 123.865L138.542 119.334L142.469 116.615L148.813 112.084Z" fill="#FEF6EE"/>
<path d="M188.083 100H159.083V129H188.083V100Z" fill="#00B67A"/>
<path d="M173.582 119.334L178.114 118.125L179.926 123.865L173.582 119.334ZM183.853 112.084H175.999L173.582 104.834L171.166 112.084H163.312L169.655 116.615L167.239 123.865L173.582 119.334L177.51 116.615L183.853 112.084Z" fill="#FEF6EE"/>
<path d="M223.125 100H194.125V129H223.125V100Z" fill="#00B67A"/>
<path d="M208.625 119.334L213.156 118.125L214.969 123.865L208.625 119.334ZM218.896 112.084H211.042L208.625 104.834L206.208 112.084H198.354L204.698 116.615L202.281 123.865L208.625 119.334L212.552 116.615L218.896 112.084Z" fill="#FEF6EE"/>
<path d="M258.167 100H229.167V129H258.167V100Z" fill="#00B67A"/>
<path d="M243.666 119.334L248.198 118.125L250.01 123.865L243.666 119.334ZM253.937 112.084H246.083L243.666 104.834L241.25 112.084H233.396L239.739 116.615L237.323 123.865L243.666 119.334L247.594 116.615L253.937 112.084Z" fill="#FEF6EE"/>
<path d="M263.938 97.3636C263.938 96.483 264.055 95.6721 264.289 94.9311C264.526 94.1901 264.887 93.5036 265.372 92.8714H266.817C266.633 93.1058 266.461 93.3923 266.303 93.7308C266.144 94.067 266.005 94.4363 265.887 94.8388C265.769 95.2412 265.676 95.6579 265.61 96.0888C265.544 96.5173 265.511 96.9422 265.511 97.3636C265.511 97.9247 265.567 98.4917 265.681 99.0646C265.797 99.6352 265.953 100.165 266.15 100.656C266.349 101.146 266.571 101.547 266.817 101.859H265.372C264.887 101.227 264.526 100.541 264.289 99.7997C264.055 99.0587 263.938 98.2467 263.938 97.3636ZM270.845 93.7273V101H269.308V95.1868H269.265L267.6 96.2308V94.8672L269.4 93.7273H270.845ZM275.425 101.16C274.815 101.157 274.289 101.007 273.849 100.709C273.411 100.411 273.073 99.9785 272.837 99.4126C272.602 98.8468 272.486 98.1662 272.489 97.3707C272.489 96.5777 272.606 95.9018 272.84 95.343C273.077 94.7843 273.414 94.3594 273.852 94.0682C274.293 93.7746 274.817 93.6278 275.425 93.6278C276.034 93.6278 276.557 93.7746 276.995 94.0682C277.435 94.3617 277.774 94.7879 278.011 95.3466C278.247 95.9029 278.365 96.5777 278.362 97.3707C278.362 98.1686 278.244 98.8504 278.007 99.4162C277.773 99.982 277.437 100.414 276.999 100.712C276.561 101.011 276.036 101.16 275.425 101.16ZM275.425 99.8849C275.842 99.8849 276.175 99.6754 276.423 99.2564C276.672 98.8374 276.795 98.2088 276.793 97.3707C276.793 96.8191 276.736 96.3598 276.622 95.9929C276.511 95.6259 276.352 95.3501 276.146 95.1655C275.943 94.9808 275.702 94.8885 275.425 94.8885C275.011 94.8885 274.68 95.0956 274.431 95.5099C274.183 95.9242 274.057 96.5445 274.055 97.3707C274.055 97.9295 274.11 98.3958 274.222 98.7699C274.335 99.1416 274.495 99.4209 274.701 99.608C274.907 99.7926 275.148 99.8849 275.425 99.8849ZM282.31 101.16C281.699 101.157 281.174 101.007 280.733 100.709C280.296 100.411 279.958 99.9785 279.721 99.4126C279.487 98.8468 279.371 98.1662 279.373 97.3707C279.373 96.5777 279.491 95.9018 279.725 95.343C279.962 94.7843 280.299 94.3594 280.737 94.0682C281.177 93.7746 281.702 93.6278 282.31 93.6278C282.919 93.6278 283.442 93.7746 283.88 94.0682C284.32 94.3617 284.659 94.7879 284.895 95.3466C285.132 95.9029 285.249 96.5777 285.247 97.3707C285.247 98.1686 285.129 98.8504 284.892 99.4162C284.657 99.982 284.321 100.414 283.883 100.712C283.445 101.011 282.921 101.16 282.31 101.16ZM282.31 99.8849C282.727 99.8849 283.059 99.6754 283.308 99.2564C283.557 98.8374 283.68 98.2088 283.677 97.3707C283.677 96.8191 283.621 96.3598 283.507 95.9929C283.396 95.6259 283.237 95.3501 283.031 95.1655C282.827 94.9808 282.587 94.8885 282.31 94.8885C281.896 94.8885 281.564 95.0956 281.316 95.5099C281.067 95.9242 280.942 96.5445 280.939 97.3707C280.939 97.9295 280.995 98.3958 281.106 98.7699C281.22 99.1416 281.38 99.4209 281.586 99.608C281.792 99.7926 282.033 99.8849 282.31 99.8849ZM288.907 97.3636C288.907 98.2467 288.789 99.0587 288.552 99.7997C288.318 100.541 287.958 101.227 287.473 101.859H286.027C286.212 101.625 286.384 101.339 286.542 101C286.701 100.661 286.839 100.292 286.958 99.892C287.076 99.4896 287.168 99.0729 287.235 98.642C287.301 98.2112 287.334 97.785 287.334 97.3636C287.334 96.8026 287.276 96.2367 287.16 95.6662C287.047 95.0933 286.89 94.563 286.691 94.0753C286.495 93.5852 286.274 93.1839 286.027 92.8714H287.473C287.958 93.5036 288.318 94.1901 288.552 94.9311C288.789 95.6721 288.907 96.483 288.907 97.3636Z" fill="#0C0F1E"/>
</svg>
