<svg width="1304" height="162" viewBox="0 0 1304 162" fill="none" xmlns="http://www.w3.org/2000/svg">
<rect width="1304" height="162" rx="30" fill="#FCEBD8"/>
<path d="M524.438 122.165V118.532L533.547 104.182H536.679V109.21H534.825L529.083 118.298V118.468H542.027V122.165H524.438ZM534.911 126V121.057L534.996 119.448V104.182H539.321V126H534.911ZM547.386 126.277C546.683 126.277 546.079 126.028 545.575 125.531C545.077 125.027 544.829 124.423 544.829 123.72C544.829 123.024 545.077 122.428 545.575 121.93C546.079 121.433 546.683 121.185 547.386 121.185C548.067 121.185 548.664 121.433 549.175 121.93C549.687 122.428 549.942 123.024 549.942 123.72C549.942 124.189 549.822 124.619 549.58 125.009C549.346 125.393 549.037 125.702 548.653 125.936C548.27 126.163 547.847 126.277 547.386 126.277ZM560.886 126.298C559.246 126.298 557.786 126.032 556.508 125.499C555.236 124.96 554.238 124.224 553.514 123.294C552.79 122.364 552.427 121.309 552.427 120.13C552.427 119.221 552.633 118.386 553.045 117.626C553.464 116.859 554.032 116.224 554.75 115.719C555.467 115.208 556.27 114.881 557.157 114.739V114.59C555.993 114.356 555.048 113.791 554.324 112.896C553.599 111.994 553.237 110.947 553.237 109.754C553.237 108.624 553.567 107.619 554.228 106.739C554.888 105.851 555.794 105.155 556.944 104.651C558.102 104.139 559.416 103.884 560.886 103.884C562.356 103.884 563.667 104.139 564.817 104.651C565.975 105.162 566.884 105.862 567.545 106.749C568.205 107.63 568.539 108.631 568.546 109.754C568.539 110.954 568.17 112.001 567.438 112.896C566.706 113.791 565.769 114.356 564.626 114.59V114.739C565.499 114.881 566.291 115.208 567.001 115.719C567.719 116.224 568.287 116.859 568.706 117.626C569.132 118.386 569.349 119.221 569.356 120.13C569.349 121.309 568.983 122.364 568.258 123.294C567.534 124.224 566.532 124.96 565.254 125.499C563.983 126.032 562.527 126.298 560.886 126.298ZM560.886 122.911C561.618 122.911 562.257 122.779 562.804 122.516C563.351 122.246 563.777 121.877 564.082 121.408C564.395 120.933 564.551 120.386 564.551 119.768C564.551 119.136 564.391 118.578 564.072 118.095C563.752 117.605 563.319 117.222 562.772 116.945C562.225 116.661 561.596 116.518 560.886 116.518C560.183 116.518 559.555 116.661 559.001 116.945C558.447 117.222 558.01 117.605 557.69 118.095C557.378 118.578 557.221 119.136 557.221 119.768C557.221 120.386 557.374 120.933 557.68 121.408C557.985 121.877 558.415 122.246 558.969 122.516C559.523 122.779 560.162 122.911 560.886 122.911ZM560.886 113.163C561.497 113.163 562.04 113.038 562.516 112.79C562.992 112.541 563.365 112.197 563.635 111.756C563.905 111.316 564.04 110.808 564.04 110.233C564.04 109.665 563.905 109.168 563.635 108.741C563.365 108.308 562.996 107.971 562.527 107.729C562.058 107.481 561.511 107.357 560.886 107.357C560.268 107.357 559.721 107.481 559.246 107.729C558.77 107.971 558.397 108.308 558.127 108.741C557.864 109.168 557.733 109.665 557.733 110.233C557.733 110.808 557.868 111.316 558.138 111.756C558.407 112.197 558.78 112.541 559.256 112.79C559.732 113.038 560.275 113.163 560.886 113.163Z" fill="#0C0F1E"/>
<path d="M590.834 46.1436H613.095V50.2877H604.33V73.6487H599.526V50.2877H590.798L590.834 46.1436ZM612.142 53.735H616.249V57.5857H616.322C616.469 57.0356 616.726 56.5222 617.093 56.0087C617.459 55.4953 617.899 55.0185 618.45 54.6151C618.963 54.175 619.55 53.845 620.21 53.5883C620.833 53.3316 621.493 53.1849 622.154 53.1849C622.667 53.1849 623.034 53.2215 623.217 53.2215C623.4 53.2582 623.621 53.2949 623.804 53.2949V57.5123C623.51 57.439 623.18 57.4023 622.85 57.3656C622.52 57.329 622.227 57.2923 621.897 57.2923C621.163 57.2923 620.467 57.439 619.806 57.7324C619.146 58.0258 618.596 58.4658 618.083 59.0159C617.606 59.6027 617.203 60.2995 616.909 61.143C616.616 61.9865 616.469 62.9767 616.469 64.0769V73.5387H612.068L612.142 53.735ZM643.974 73.6487H639.647V70.8615H639.573C639.023 71.8883 638.217 72.6585 637.153 73.2819C636.09 73.9054 634.989 74.1988 633.889 74.1988C631.285 74.1988 629.378 73.5753 628.205 72.2551C627.031 70.9715 626.444 68.9911 626.444 66.3873V53.735H630.845V65.9472C630.845 67.7076 631.175 68.9545 631.872 69.6513C632.532 70.3847 633.486 70.7515 634.696 70.7515C635.613 70.7515 636.383 70.6048 637.006 70.3114C637.63 70.018 638.143 69.6513 638.51 69.1745C638.913 68.6978 639.17 68.111 639.353 67.4508C639.537 66.7907 639.61 66.0573 639.61 65.2871V53.735H644.011V73.6487H643.974ZM651.456 67.2675C651.602 68.5511 652.079 69.4312 652.923 69.9813C653.766 70.4948 654.793 70.7515 655.967 70.7515C656.37 70.7515 656.847 70.7148 657.36 70.6414C657.874 70.5681 658.387 70.4581 658.827 70.2747C659.304 70.0913 659.671 69.8346 659.964 69.4679C660.257 69.1012 660.404 68.6611 660.367 68.111C660.331 67.5609 660.147 67.0841 659.744 66.7174C659.34 66.3506 658.864 66.0939 658.277 65.8372C657.69 65.6172 656.993 65.4338 656.223 65.2871C655.453 65.1404 654.683 64.9571 653.876 64.7737C653.069 64.5903 652.263 64.3703 651.492 64.1136C650.722 63.8569 650.062 63.5268 649.439 63.05C648.852 62.6099 648.338 62.0599 648.008 61.3631C647.642 60.6663 647.458 59.8594 647.458 58.8326C647.458 57.7324 647.715 56.8522 648.265 56.1187C648.779 55.3853 649.475 54.7985 650.282 54.3584C651.089 53.9183 652.006 53.5883 652.996 53.4049C653.986 53.2215 654.94 53.1482 655.82 53.1482C656.847 53.1482 657.837 53.2582 658.754 53.4783C659.671 53.6983 660.551 54.0284 661.284 54.5418C662.054 55.0185 662.678 55.6787 663.155 56.4488C663.668 57.2189 663.961 58.1725 664.108 59.2727H659.524C659.304 58.2091 658.827 57.5123 658.094 57.1456C657.323 56.7789 656.48 56.5955 655.49 56.5955C655.196 56.5955 654.793 56.6322 654.39 56.6688C653.949 56.7422 653.583 56.8155 653.179 56.9622C652.813 57.1089 652.483 57.329 652.226 57.5857C651.969 57.8424 651.822 58.2091 651.822 58.6492C651.822 59.1993 652.006 59.6027 652.373 59.9328C652.739 60.2628 653.216 60.5196 653.839 60.7763C654.426 60.9963 655.123 61.1797 655.893 61.3264C656.663 61.4731 657.47 61.6564 658.277 61.8398C659.084 62.0232 659.854 62.2432 660.624 62.4999C661.394 62.7566 662.091 63.0867 662.678 63.5635C663.265 64.0035 663.778 64.5536 664.145 65.2138C664.511 65.8739 664.695 66.7174 664.695 67.6709C664.695 68.8444 664.438 69.8346 663.888 70.6781C663.338 71.4849 662.641 72.1817 661.798 72.6952C660.954 73.2086 659.964 73.5753 658.937 73.832C657.874 74.0521 656.847 74.1988 655.82 74.1988C654.573 74.1988 653.399 74.0521 652.336 73.7587C651.272 73.4653 650.319 73.0252 649.549 72.4751C648.779 71.8883 648.155 71.1916 647.715 70.3114C647.275 69.4679 647.018 68.441 646.982 67.2308H651.419V67.2675H651.456ZM665.942 53.735H669.279V47.7205H673.68V53.6983H677.641V56.9622H673.68V67.5976C673.68 68.0743 673.717 68.441 673.753 68.8078C673.79 69.1378 673.9 69.4312 674.01 69.6513C674.157 69.8713 674.377 70.0547 674.633 70.1647C674.927 70.2747 675.293 70.3481 675.807 70.3481C676.1 70.3481 676.43 70.3481 676.724 70.3114C677.017 70.2747 677.347 70.238 677.641 70.1647V73.5753C677.164 73.6487 676.687 73.6853 676.21 73.722C675.734 73.7954 675.293 73.7954 674.78 73.7954C673.606 73.7954 672.69 73.6854 671.993 73.4653C671.296 73.2453 670.746 72.9152 670.343 72.5118C669.939 72.0717 669.682 71.5583 669.536 70.9348C669.389 70.3114 669.316 69.5412 669.279 68.7344V56.9989H665.942V53.6616V53.735ZM680.721 53.735H684.865V56.4488H684.939C685.562 55.2752 686.406 54.4684 687.506 53.955C688.606 53.4416 689.78 53.1849 691.1 53.1849C692.677 53.1849 694.034 53.4416 695.207 54.0284C696.381 54.5785 697.334 55.3119 698.104 56.3021C698.875 57.2556 699.461 58.3925 699.828 59.6761C700.195 60.9596 700.415 62.3532 700.415 63.7835C700.415 65.1404 700.231 66.424 699.901 67.6709C699.535 68.9178 699.021 70.0547 698.324 71.0082C697.628 71.9617 696.747 72.7318 695.647 73.3186C694.547 73.9054 693.3 74.1988 691.833 74.1988C691.21 74.1988 690.55 74.1254 689.926 74.0154C689.303 73.9054 688.679 73.722 688.093 73.4653C687.506 73.2086 686.956 72.8785 686.479 72.4751C685.965 72.0717 685.562 71.595 685.232 71.0815H685.159V81.02H680.758V53.735H680.721ZM696.087 63.7102C696.087 62.83 695.977 61.9498 695.721 61.1063C695.501 60.2628 695.134 59.5294 694.657 58.8693C694.18 58.2091 693.594 57.6957 692.933 57.2923C692.237 56.8889 691.43 56.7055 690.55 56.7055C688.716 56.7055 687.322 57.329 686.369 58.6125C685.452 59.8961 684.975 61.6198 684.975 63.7468C684.975 64.7737 685.085 65.6905 685.342 66.534C685.599 67.3775 685.929 68.111 686.442 68.7344C686.919 69.3579 687.506 69.8346 688.203 70.2014C688.899 70.5681 689.669 70.7515 690.586 70.7515C691.613 70.7515 692.42 70.5314 693.117 70.128C693.814 69.7246 694.364 69.1745 694.84 68.5511C695.281 67.8909 695.611 67.1575 695.794 66.314C695.977 65.4338 696.087 64.5903 696.087 63.7102ZM703.825 46.1436H708.226V50.2877H703.825V46.1436ZM703.825 53.735H708.226V73.6487H703.825V53.735ZM712.15 46.1436H716.551V73.6487H712.15V46.1436ZM729.974 74.1988C728.397 74.1988 726.966 73.9421 725.72 73.392C724.473 72.8419 723.446 72.1451 722.566 71.2282C721.722 70.3114 721.062 69.1745 720.622 67.8909C720.182 66.6074 719.925 65.1771 719.925 63.6735C719.925 62.1699 720.145 60.7763 720.622 59.4927C721.062 58.2091 721.722 57.1089 722.566 56.1554C723.409 55.2386 724.473 54.5051 725.72 53.9917C726.966 53.4783 728.397 53.1849 729.974 53.1849C731.551 53.1849 732.981 53.4416 734.228 53.9917C735.475 54.5051 736.502 55.2386 737.382 56.1554C738.225 57.0723 738.885 58.2091 739.325 59.4927C739.765 60.7763 740.022 62.1699 740.022 63.6735C740.022 65.2138 739.802 66.6074 739.325 67.8909C738.849 69.1745 738.225 70.2747 737.382 71.2282C736.538 72.1451 735.475 72.8785 734.228 73.392C732.981 73.9054 731.587 74.1988 729.974 74.1988ZM729.974 70.7148C730.927 70.7148 731.807 70.4948 732.504 70.0913C733.238 69.6879 733.788 69.1378 734.264 68.4777C734.741 67.8176 735.071 67.0474 735.291 66.2406C735.511 65.3971 735.621 64.5536 735.621 63.6735C735.621 62.83 735.511 61.9865 735.291 61.143C735.071 60.2995 734.741 59.5661 734.264 58.9059C733.788 58.2458 733.201 57.7324 732.504 57.329C731.771 56.9256 730.927 56.7055 729.974 56.7055C729.02 56.7055 728.14 56.9256 727.443 57.329C726.71 57.7324 726.16 58.2825 725.683 58.9059C725.206 59.5661 724.876 60.2995 724.656 61.143C724.436 61.9865 724.326 62.83 724.326 63.6735C724.326 64.5536 724.436 65.3971 724.656 66.2406C724.876 67.0841 725.206 67.8176 725.683 68.4777C726.16 69.1378 726.746 69.6879 727.443 70.0913C728.177 70.5314 729.02 70.7148 729.974 70.7148ZM741.342 53.735H744.68V47.7205H749.081V53.6983H753.041V56.9622H749.081V67.5976C749.081 68.0743 749.117 68.441 749.154 68.8078C749.191 69.1378 749.301 69.4312 749.411 69.6513C749.557 69.8713 749.777 70.0547 750.034 70.1647C750.327 70.2747 750.694 70.3481 751.208 70.3481C751.501 70.3481 751.831 70.3481 752.124 70.3114C752.418 70.2747 752.748 70.238 753.041 70.1647V73.5753C752.565 73.6487 752.088 73.6853 751.611 73.722C751.134 73.7954 750.694 73.7954 750.181 73.7954C749.007 73.7954 748.09 73.6854 747.394 73.4653C746.697 73.2453 746.147 72.9152 745.743 72.5118C745.34 72.0717 745.083 71.5583 744.936 70.9348C744.79 70.3114 744.716 69.5412 744.68 68.7344V56.9989H741.342V53.6616V53.735Z" fill="#0C0F1E"/>
<path d="M585.7 46.1436H565.566L559.368 27L553.134 46.1436L533 46.1069L549.283 57.9524L543.049 77.096L559.332 65.2505L575.615 77.096L569.417 57.9524L585.7 46.1436Z" fill="#00B67A"/>
<path d="M570.81 62.2799L569.417 57.9524L559.368 65.2504L570.81 62.2799Z" fill="#00B67A"/>
<path d="M608 100H579V129H608V100Z" fill="#00B67A"/>
<path d="M593.5 119.334L598.031 118.125L599.844 123.865L593.5 119.334ZM603.771 112.084H595.917L593.5 104.834L591.083 112.084H583.229L589.573 116.615L587.156 123.865L593.5 119.334L597.427 116.615L603.771 112.084Z" fill="#FEF6EE"/>
<path d="M643.042 100H614.042V129H643.042V100Z" fill="#00B67A"/>
<path d="M628.542 119.334L633.073 118.125L634.886 123.865L628.542 119.334ZM638.813 112.084H630.958L628.542 104.834L626.125 112.084H618.271L624.615 116.615L622.198 123.865L628.542 119.334L632.469 116.615L638.813 112.084Z" fill="#FEF6EE"/>
<path d="M678.083 100H649.083V129H678.083V100Z" fill="#00B67A"/>
<path d="M663.582 119.334L668.114 118.125L669.926 123.865L663.582 119.334ZM673.853 112.084H665.999L663.582 104.834L661.166 112.084H653.312L659.655 116.615L657.239 123.865L663.582 119.334L667.51 116.615L673.853 112.084Z" fill="#FEF6EE"/>
<path d="M713.125 100H684.125V129H713.125V100Z" fill="#00B67A"/>
<path d="M698.625 119.334L703.156 118.125L704.969 123.865L698.625 119.334ZM708.896 112.084H701.042L698.625 104.834L696.208 112.084H688.354L694.698 116.615L692.281 123.865L698.625 119.334L702.552 116.615L708.896 112.084Z" fill="#FEF6EE"/>
<path d="M748.167 100H719.167V129H748.167V100Z" fill="#00B67A"/>
<path d="M733.666 119.334L738.198 118.125L740.01 123.865L733.666 119.334ZM743.937 112.084H736.083L733.666 104.834L731.25 112.084H723.396L729.739 116.615L727.323 123.865L733.666 119.334L737.593 116.615L743.937 112.084Z" fill="#FEF6EE"/>
<path d="M753.938 97.3636C753.938 96.483 754.055 95.6721 754.289 94.9311C754.526 94.1901 754.887 93.5036 755.372 92.8714H756.817C756.633 93.1058 756.461 93.3923 756.303 93.7308C756.144 94.067 756.005 94.4363 755.887 94.8388C755.769 95.2412 755.676 95.6579 755.61 96.0888C755.544 96.5173 755.511 96.9422 755.511 97.3636C755.511 97.9247 755.567 98.4917 755.681 99.0646C755.797 99.6352 755.953 100.165 756.15 100.656C756.349 101.146 756.571 101.547 756.817 101.859H755.372C754.887 101.227 754.526 100.541 754.289 99.7997C754.055 99.0587 753.938 98.2467 753.938 97.3636ZM760.845 93.7273V101H759.308V95.1868H759.265L757.6 96.2308V94.8672L759.4 93.7273H760.845ZM765.425 101.16C764.815 101.157 764.289 101.007 763.849 100.709C763.411 100.411 763.073 99.9785 762.837 99.4126C762.602 98.8468 762.486 98.1662 762.489 97.3707C762.489 96.5777 762.606 95.9018 762.84 95.343C763.077 94.7843 763.414 94.3594 763.852 94.0682C764.293 93.7746 764.817 93.6278 765.425 93.6278C766.034 93.6278 766.557 93.7746 766.995 94.0682C767.435 94.3617 767.774 94.7879 768.011 95.3466C768.247 95.9029 768.365 96.5777 768.362 97.3707C768.362 98.1686 768.244 98.8504 768.007 99.4162C767.773 99.982 767.437 100.414 766.999 100.712C766.561 101.011 766.036 101.16 765.425 101.16ZM765.425 99.8849C765.842 99.8849 766.175 99.6754 766.423 99.2564C766.672 98.8374 766.795 98.2088 766.793 97.3707C766.793 96.8191 766.736 96.3598 766.622 95.9929C766.511 95.6259 766.352 95.3501 766.146 95.1655C765.943 94.9808 765.702 94.8885 765.425 94.8885C765.011 94.8885 764.68 95.0956 764.431 95.5099C764.183 95.9242 764.057 96.5445 764.055 97.3707C764.055 97.9295 764.11 98.3958 764.222 98.7699C764.335 99.1416 764.495 99.4209 764.701 99.608C764.907 99.7926 765.148 99.8849 765.425 99.8849ZM772.31 101.16C771.699 101.157 771.174 101.007 770.733 100.709C770.296 100.411 769.958 99.9785 769.721 99.4126C769.487 98.8468 769.371 98.1662 769.373 97.3707C769.373 96.5777 769.491 95.9018 769.725 95.343C769.962 94.7843 770.299 94.3594 770.737 94.0682C771.177 93.7746 771.702 93.6278 772.31 93.6278C772.919 93.6278 773.442 93.7746 773.88 94.0682C774.32 94.3617 774.659 94.7879 774.895 95.3466C775.132 95.9029 775.249 96.5777 775.247 97.3707C775.247 98.1686 775.129 98.8504 774.892 99.4162C774.657 99.982 774.321 100.414 773.883 100.712C773.445 101.011 772.921 101.16 772.31 101.16ZM772.31 99.8849C772.727 99.8849 773.059 99.6754 773.308 99.2564C773.557 98.8374 773.68 98.2088 773.677 97.3707C773.677 96.8191 773.621 96.3598 773.507 95.9929C773.396 95.6259 773.237 95.3501 773.031 95.1655C772.827 94.9808 772.587 94.8885 772.31 94.8885C771.896 94.8885 771.564 95.0956 771.316 95.5099C771.067 95.9242 770.942 96.5445 770.939 97.3707C770.939 97.9295 770.995 98.3958 771.106 98.7699C771.22 99.1416 771.38 99.4209 771.586 99.608C771.792 99.7926 772.033 99.8849 772.31 99.8849ZM778.907 97.3636C778.907 98.2467 778.789 99.0587 778.552 99.7997C778.318 100.541 777.958 101.227 777.473 101.859H776.027C776.212 101.625 776.384 101.339 776.542 101C776.701 100.661 776.839 100.292 776.958 99.892C777.076 99.4896 777.168 99.0729 777.235 98.642C777.301 98.2112 777.334 97.785 777.334 97.3636C777.334 96.8026 777.276 96.2367 777.16 95.6662C777.047 95.0933 776.89 94.563 776.691 94.0753C776.495 93.5852 776.274 93.1839 776.027 92.8714H777.473C777.958 93.5036 778.318 94.1901 778.552 94.9311C778.789 95.6721 778.907 96.483 778.907 97.3636Z" fill="#0C0F1E"/>
</svg>
