<svg width="257" height="106" viewBox="0 0 257 106" fill="none" xmlns="http://www.w3.org/2000/svg">
<path d="M1.43821 95.1648V91.532L10.5469 77.1818H13.679V82.2102H11.8253L6.0831 91.2976V91.468H19.027V95.1648H1.43821ZM11.9105 99V94.0568L11.9957 92.4482V77.1818H16.321V99H11.9105ZM24.3857 99.277C23.6825 99.277 23.0788 99.0284 22.5746 98.5312C22.0774 98.027 21.8288 97.4233 21.8288 96.7202C21.8288 96.0241 22.0774 95.4276 22.5746 94.9304C23.0788 94.4332 23.6825 94.1847 24.3857 94.1847C25.0675 94.1847 25.6641 94.4332 26.1754 94.9304C26.6868 95.4276 26.9425 96.0241 26.9425 96.7202C26.9425 97.1889 26.8217 97.6186 26.5803 98.0092C26.3459 98.3928 26.0369 98.7017 25.6534 98.9361C25.2699 99.1634 24.8473 99.277 24.3857 99.277ZM37.8862 99.2983C36.2456 99.2983 34.786 99.032 33.5076 98.4993C32.2363 97.9595 31.2385 97.2244 30.514 96.294C29.7896 95.3636 29.4274 94.3089 29.4274 93.13C29.4274 92.2209 29.6333 91.3864 30.0453 90.6264C30.4643 89.8594 31.0325 89.2237 31.7498 88.7195C32.4672 88.2081 33.2697 87.8814 34.1575 87.7393V87.5902C32.9927 87.3558 32.0481 86.7912 31.3237 85.8963C30.5993 84.9943 30.237 83.9467 30.237 82.7536C30.237 81.6243 30.5673 80.6193 31.2278 79.7386C31.8883 78.8509 32.7939 78.1548 33.9444 77.6506C35.1021 77.1392 36.416 76.8835 37.8862 76.8835C39.3564 76.8835 40.6667 77.1392 41.8173 77.6506C42.975 78.1619 43.8841 78.8615 44.5446 79.7493C45.2051 80.63 45.5389 81.6314 45.546 82.7536C45.5389 83.9538 45.1696 85.0014 44.438 85.8963C43.7065 86.7912 42.769 87.3558 41.6255 87.5902V87.7393C42.4991 87.8814 43.291 88.2081 44.0012 88.7195C44.7186 89.2237 45.2868 89.8594 45.7058 90.6264C46.1319 91.3864 46.3485 92.2209 46.3556 93.13C46.3485 94.3089 45.9828 95.3636 45.2583 96.294C44.5339 97.2244 43.5325 97.9595 42.2541 98.4993C40.9828 99.032 39.5268 99.2983 37.8862 99.2983ZM37.8862 95.9105C38.6177 95.9105 39.2569 95.7791 39.8038 95.5163C40.3507 95.2464 40.7768 94.8771 41.0822 94.4084C41.3947 93.9325 41.551 93.3857 41.551 92.7678C41.551 92.1357 41.3912 91.5781 41.0716 91.0952C40.752 90.6051 40.3187 90.2216 39.7718 89.9446C39.225 89.6605 38.5964 89.5185 37.8862 89.5185C37.1831 89.5185 36.5545 89.6605 36.0005 89.9446C35.4466 90.2216 35.0098 90.6051 34.6902 91.0952C34.3777 91.5781 34.2214 92.1357 34.2214 92.7678C34.2214 93.3857 34.3741 93.9325 34.6795 94.4084C34.9849 94.8771 35.4146 95.2464 35.9686 95.5163C36.5225 95.7791 37.1618 95.9105 37.8862 95.9105ZM37.8862 86.1626C38.497 86.1626 39.0403 86.0384 39.5162 85.7898C39.992 85.5412 40.3649 85.1967 40.6348 84.7564C40.9047 84.3161 41.0396 83.8082 41.0396 83.233C41.0396 82.6648 40.9047 82.1676 40.6348 81.7415C40.3649 81.3082 39.9956 80.9709 39.5268 80.7294C39.0581 80.4808 38.5112 80.3565 37.8862 80.3565C37.2683 80.3565 36.7214 80.4808 36.2456 80.7294C35.7697 80.9709 35.3968 81.3082 35.127 81.7415C34.8642 82.1676 34.7328 82.6648 34.7328 83.233C34.7328 83.8082 34.8677 84.3161 35.1376 84.7564C35.4075 85.1967 35.7804 85.5412 36.2562 85.7898C36.7321 86.0384 37.2754 86.1626 37.8862 86.1626Z" fill="#0C0F1E"/>
<path d="M67.8344 19.1436H90.0952V23.2877H81.3302V46.6487H76.526V23.2877H67.7977L67.8344 19.1436ZM89.1417 26.735H93.2491V30.5857H93.3225C93.4692 30.0356 93.7259 29.5222 94.0926 29.0087C94.4594 28.4953 94.8994 28.0185 95.4495 27.6151C95.963 27.175 96.5497 26.845 97.2099 26.5883C97.8333 26.3316 98.4935 26.1849 99.1536 26.1849C99.667 26.1849 100.034 26.2215 100.217 26.2215C100.4 26.2582 100.621 26.2949 100.804 26.2949V30.5123C100.51 30.439 100.18 30.4023 99.8504 30.3656C99.5203 30.329 99.2269 30.2923 98.8969 30.2923C98.1634 30.2923 97.4666 30.439 96.8065 30.7324C96.1463 31.0258 95.5962 31.4658 95.0828 32.0159C94.6061 32.6027 94.2027 33.2995 93.9093 34.143C93.6159 34.9865 93.4692 35.9767 93.4692 37.0769V46.5387H89.0684L89.1417 26.735ZM120.974 46.6487H116.647V43.8615H116.573C116.023 44.8883 115.217 45.6585 114.153 46.2819C113.09 46.9054 111.989 47.1988 110.889 47.1988C108.285 47.1988 106.378 46.5753 105.205 45.2551C104.031 43.9715 103.444 41.9911 103.444 39.3873V26.735H107.845V38.9472C107.845 40.7076 108.175 41.9545 108.872 42.6513C109.532 43.3847 110.486 43.7515 111.696 43.7515C112.613 43.7515 113.383 43.6048 114.006 43.3114C114.63 43.018 115.143 42.6513 115.51 42.1745C115.913 41.6978 116.17 41.111 116.353 40.4508C116.537 39.7907 116.61 39.0573 116.61 38.2871V26.735H121.011V46.6487H120.974ZM128.456 40.2675C128.602 41.5511 129.079 42.4312 129.923 42.9813C130.766 43.4948 131.793 43.7515 132.967 43.7515C133.37 43.7515 133.847 43.7148 134.36 43.6414C134.874 43.5681 135.387 43.4581 135.827 43.2747C136.304 43.0913 136.671 42.8346 136.964 42.4679C137.257 42.1012 137.404 41.6611 137.367 41.111C137.331 40.5609 137.147 40.0841 136.744 39.7174C136.34 39.3506 135.864 39.0939 135.277 38.8372C134.69 38.6172 133.993 38.4338 133.223 38.2871C132.453 38.1404 131.683 37.9571 130.876 37.7737C130.069 37.5903 129.263 37.3703 128.492 37.1136C127.722 36.8569 127.062 36.5268 126.439 36.05C125.852 35.6099 125.338 35.0599 125.008 34.3631C124.642 33.6663 124.458 32.8594 124.458 31.8326C124.458 30.7324 124.715 29.8522 125.265 29.1187C125.779 28.3853 126.475 27.7985 127.282 27.3584C128.089 26.9183 129.006 26.5883 129.996 26.4049C130.986 26.2215 131.94 26.1482 132.82 26.1482C133.847 26.1482 134.837 26.2582 135.754 26.4783C136.671 26.6983 137.551 27.0284 138.284 27.5418C139.054 28.0185 139.678 28.6787 140.155 29.4488C140.668 30.2189 140.961 31.1725 141.108 32.2727H136.524C136.304 31.2091 135.827 30.5123 135.094 30.1456C134.323 29.7789 133.48 29.5955 132.49 29.5955C132.196 29.5955 131.793 29.6322 131.39 29.6688C130.949 29.7422 130.583 29.8155 130.179 29.9622C129.813 30.1089 129.483 30.329 129.226 30.5857C128.969 30.8424 128.822 31.2091 128.822 31.6492C128.822 32.1993 129.006 32.6027 129.373 32.9328C129.739 33.2628 130.216 33.5196 130.839 33.7763C131.426 33.9963 132.123 34.1797 132.893 34.3264C133.663 34.4731 134.47 34.6564 135.277 34.8398C136.084 35.0232 136.854 35.2432 137.624 35.4999C138.394 35.7566 139.091 36.0867 139.678 36.5635C140.265 37.0035 140.778 37.5536 141.145 38.2138C141.511 38.8739 141.695 39.7174 141.695 40.6709C141.695 41.8444 141.438 42.8346 140.888 43.6781C140.338 44.4849 139.641 45.1817 138.798 45.6952C137.954 46.2086 136.964 46.5753 135.937 46.832C134.874 47.0521 133.847 47.1988 132.82 47.1988C131.573 47.1988 130.399 47.0521 129.336 46.7587C128.272 46.4653 127.319 46.0252 126.549 45.4751C125.779 44.8883 125.155 44.1916 124.715 43.3114C124.275 42.4679 124.018 41.441 123.982 40.2308H128.419V40.2675H128.456ZM142.942 26.735H146.279V20.7205H150.68V26.6983H154.641V29.9622H150.68V40.5976C150.68 41.0743 150.717 41.441 150.753 41.8078C150.79 42.1378 150.9 42.4312 151.01 42.6513C151.157 42.8713 151.377 43.0547 151.633 43.1647C151.927 43.2747 152.293 43.3481 152.807 43.3481C153.1 43.3481 153.43 43.3481 153.724 43.3114C154.017 43.2747 154.347 43.238 154.641 43.1647V46.5753C154.164 46.6487 153.687 46.6853 153.21 46.722C152.734 46.7954 152.293 46.7954 151.78 46.7954C150.606 46.7954 149.69 46.6854 148.993 46.4653C148.296 46.2453 147.746 45.9152 147.343 45.5118C146.939 45.0717 146.682 44.5583 146.536 43.9348C146.389 43.3114 146.316 42.5412 146.279 41.7344V29.9989H142.942V26.6616V26.735ZM157.721 26.735H161.865V29.4488H161.939C162.562 28.2752 163.406 27.4684 164.506 26.955C165.606 26.4416 166.78 26.1849 168.1 26.1849C169.677 26.1849 171.034 26.4416 172.207 27.0284C173.381 27.5785 174.334 28.3119 175.104 29.3021C175.875 30.2556 176.461 31.3925 176.828 32.6761C177.195 33.9596 177.415 35.3532 177.415 36.7835C177.415 38.1404 177.231 39.424 176.901 40.6709C176.535 41.9178 176.021 43.0547 175.324 44.0082C174.628 44.9617 173.747 45.7318 172.647 46.3186C171.547 46.9054 170.3 47.1988 168.833 47.1988C168.21 47.1988 167.55 47.1254 166.926 47.0154C166.303 46.9054 165.679 46.722 165.093 46.4653C164.506 46.2086 163.956 45.8785 163.479 45.4751C162.965 45.0717 162.562 44.595 162.232 44.0815H162.159V54.02H157.758V26.735H157.721ZM173.087 36.7102C173.087 35.83 172.977 34.9498 172.721 34.1063C172.501 33.2628 172.134 32.5294 171.657 31.8693C171.18 31.2091 170.594 30.6957 169.933 30.2923C169.237 29.8889 168.43 29.7055 167.55 29.7055C165.716 29.7055 164.322 30.329 163.369 31.6125C162.452 32.8961 161.975 34.6198 161.975 36.7468C161.975 37.7737 162.085 38.6905 162.342 39.534C162.599 40.3775 162.929 41.111 163.442 41.7344C163.919 42.3579 164.506 42.8346 165.203 43.2014C165.899 43.5681 166.669 43.7515 167.586 43.7515C168.613 43.7515 169.42 43.5314 170.117 43.128C170.814 42.7246 171.364 42.1745 171.84 41.5511C172.281 40.8909 172.611 40.1575 172.794 39.314C172.977 38.4338 173.087 37.5903 173.087 36.7102ZM180.825 19.1436H185.226V23.2877H180.825V19.1436ZM180.825 26.735H185.226V46.6487H180.825V26.735ZM189.15 19.1436H193.551V46.6487H189.15V19.1436ZM206.974 47.1988C205.397 47.1988 203.966 46.9421 202.72 46.392C201.473 45.8419 200.446 45.1451 199.566 44.2282C198.722 43.3114 198.062 42.1745 197.622 40.8909C197.182 39.6074 196.925 38.1771 196.925 36.6735C196.925 35.1699 197.145 33.7763 197.622 32.4927C198.062 31.2091 198.722 30.1089 199.566 29.1554C200.409 28.2386 201.473 27.5051 202.72 26.9917C203.966 26.4783 205.397 26.1849 206.974 26.1849C208.551 26.1849 209.981 26.4416 211.228 26.9917C212.475 27.5051 213.502 28.2386 214.382 29.1554C215.225 30.0723 215.885 31.2091 216.325 32.4927C216.765 33.7763 217.022 35.1699 217.022 36.6735C217.022 38.2138 216.802 39.6074 216.325 40.8909C215.849 42.1745 215.225 43.2747 214.382 44.2282C213.538 45.1451 212.475 45.8785 211.228 46.392C209.981 46.9054 208.587 47.1988 206.974 47.1988ZM206.974 43.7148C207.927 43.7148 208.807 43.4948 209.504 43.0913C210.238 42.6879 210.788 42.1378 211.264 41.4777C211.741 40.8176 212.071 40.0474 212.291 39.2406C212.511 38.3971 212.621 37.5536 212.621 36.6735C212.621 35.83 212.511 34.9865 212.291 34.143C212.071 33.2995 211.741 32.5661 211.264 31.9059C210.788 31.2458 210.201 30.7324 209.504 30.329C208.771 29.9256 207.927 29.7055 206.974 29.7055C206.02 29.7055 205.14 29.9256 204.443 30.329C203.71 30.7324 203.16 31.2825 202.683 31.9059C202.206 32.5661 201.876 33.2995 201.656 34.143C201.436 34.9865 201.326 35.83 201.326 36.6735C201.326 37.5536 201.436 38.3971 201.656 39.2406C201.876 40.0841 202.206 40.8176 202.683 41.4777C203.16 42.1378 203.746 42.6879 204.443 43.0913C205.177 43.5314 206.02 43.7148 206.974 43.7148ZM218.342 26.735H221.68V20.7205H226.081V26.6983H230.041V29.9622H226.081V40.5976C226.081 41.0743 226.117 41.441 226.154 41.8078C226.191 42.1378 226.301 42.4312 226.411 42.6513C226.557 42.8713 226.777 43.0547 227.034 43.1647C227.327 43.2747 227.694 43.3481 228.208 43.3481C228.501 43.3481 228.831 43.3481 229.124 43.3114C229.418 43.2747 229.748 43.238 230.041 43.1647V46.5753C229.565 46.6487 229.088 46.6853 228.611 46.722C228.134 46.7954 227.694 46.7954 227.181 46.7954C226.007 46.7954 225.09 46.6854 224.394 46.4653C223.697 46.2453 223.147 45.9152 222.743 45.5118C222.34 45.0717 222.083 44.5583 221.936 43.9348C221.79 43.3114 221.716 42.5412 221.68 41.7344V29.9989H218.342V26.6616V26.735Z" fill="#0C0F1E"/>
<path d="M62.6999 19.1436H42.5661L36.3683 0L30.1338 19.1436L10.0001 19.1069L26.2831 30.9524L20.0486 50.096L36.3316 38.2505L52.6147 50.096L46.4168 30.9524L62.6999 19.1436Z" fill="#00B67A"/>
<path d="M47.8104 35.2799L46.4168 30.9524L36.3683 38.2504L47.8104 35.2799Z" fill="#00B67A"/>
<path d="M85 73H56V102H85V73Z" fill="#00B67A"/>
<path d="M70.5 92.3337L75.0313 91.1254L76.8438 96.865L70.5 92.3337ZM80.7709 85.0837H72.9167L70.5 77.8337L68.0833 85.0837H60.2292L66.5729 89.615L64.1563 96.865L70.5 92.3337L74.4271 89.615L80.7709 85.0837Z" fill="#FEF6EE"/>
<path d="M120.042 73H91.0417V102H120.042V73Z" fill="#00B67A"/>
<path d="M105.542 92.3337L110.073 91.1254L111.886 96.865L105.542 92.3337ZM115.813 85.0837H107.958L105.542 77.8337L103.125 85.0837H95.271L101.615 89.615L99.1981 96.865L105.542 92.3337L109.469 89.615L115.813 85.0837Z" fill="#FEF6EE"/>
<path d="M155.083 73H126.083V102H155.083V73Z" fill="#00B67A"/>
<path d="M140.582 92.3337L145.114 91.1254L146.926 96.865L140.582 92.3337ZM150.853 85.0837H142.999L140.582 77.8337L138.166 85.0837H130.312L136.655 89.615L134.239 96.865L140.582 92.3337L144.51 89.615L150.853 85.0837Z" fill="#FEF6EE"/>
<path d="M190.125 73H161.125V102H190.125V73Z" fill="#00B67A"/>
<path d="M175.625 92.3337L180.156 91.1254L181.969 96.865L175.625 92.3337ZM185.896 85.0837H178.042L175.625 77.8337L173.208 85.0837H165.354L171.698 89.615L169.281 96.865L175.625 92.3337L179.552 89.615L185.896 85.0837Z" fill="#FEF6EE"/>
<path d="M225.167 73H196.167V102H225.167V73Z" fill="#00B67A"/>
<path d="M210.666 92.3337L215.198 91.1254L217.01 96.865L210.666 92.3337ZM220.937 85.0837H213.083L210.666 77.8337L208.25 85.0837H200.396L206.739 89.615L204.323 96.865L210.666 92.3337L214.593 89.615L220.937 85.0837Z" fill="#FEF6EE"/>
<path d="M230.938 70.3636C230.938 69.483 231.055 68.6721 231.289 67.9311C231.526 67.1901 231.887 66.5036 232.372 65.8714H233.817C233.633 66.1058 233.461 66.3923 233.303 66.7308C233.144 67.067 233.005 67.4363 232.887 67.8388C232.769 68.2412 232.676 68.6579 232.61 69.0888C232.544 69.5173 232.511 69.9422 232.511 70.3636C232.511 70.9247 232.567 71.4917 232.681 72.0646C232.797 72.6352 232.953 73.1655 233.15 73.6555C233.349 74.1456 233.571 74.5469 233.817 74.8594H232.372C231.887 74.2273 231.526 73.5407 231.289 72.7997C231.055 72.0587 230.938 71.2467 230.938 70.3636ZM237.845 66.7273V74H236.308V68.1868H236.265L234.6 69.2308V67.8672L236.4 66.7273H237.845ZM242.425 74.1598C241.815 74.1574 241.289 74.0071 240.849 73.7088C240.411 73.4105 240.073 72.9785 239.837 72.4126C239.602 71.8468 239.486 71.1662 239.489 70.3707C239.489 69.5777 239.606 68.9018 239.84 68.343C240.077 67.7843 240.414 67.3594 240.852 67.0682C241.293 66.7746 241.817 66.6278 242.425 66.6278C243.034 66.6278 243.557 66.7746 243.995 67.0682C244.435 67.3617 244.774 67.7879 245.011 68.3466C245.247 68.9029 245.365 69.5777 245.362 70.3707C245.362 71.1686 245.244 71.8504 245.007 72.4162C244.773 72.982 244.437 73.4141 243.999 73.7124C243.561 74.0107 243.036 74.1598 242.425 74.1598ZM242.425 72.8849C242.842 72.8849 243.175 72.6754 243.423 72.2564C243.672 71.8374 243.795 71.2088 243.793 70.3707C243.793 69.8191 243.736 69.3598 243.622 68.9929C243.511 68.6259 243.352 68.3501 243.146 68.1655C242.943 67.9808 242.702 67.8885 242.425 67.8885C242.011 67.8885 241.68 68.0956 241.431 68.5099C241.183 68.9242 241.057 69.5445 241.055 70.3707C241.055 70.9295 241.11 71.3958 241.222 71.7699C241.335 72.1416 241.495 72.4209 241.701 72.608C241.907 72.7926 242.148 72.8849 242.425 72.8849ZM249.31 74.1598C248.699 74.1574 248.174 74.0071 247.733 73.7088C247.296 73.4105 246.958 72.9785 246.721 72.4126C246.487 71.8468 246.371 71.1662 246.373 70.3707C246.373 69.5777 246.491 68.9018 246.725 68.343C246.962 67.7843 247.299 67.3594 247.737 67.0682C248.177 66.7746 248.702 66.6278 249.31 66.6278C249.919 66.6278 250.442 66.7746 250.88 67.0682C251.32 67.3617 251.659 67.7879 251.895 68.3466C252.132 68.9029 252.249 69.5777 252.247 70.3707C252.247 71.1686 252.129 71.8504 251.892 72.4162C251.657 72.982 251.321 73.4141 250.883 73.7124C250.445 74.0107 249.921 74.1598 249.31 74.1598ZM249.31 72.8849C249.727 72.8849 250.059 72.6754 250.308 72.2564C250.557 71.8374 250.68 71.2088 250.677 70.3707C250.677 69.8191 250.621 69.3598 250.507 68.9929C250.396 68.6259 250.237 68.3501 250.031 68.1655C249.827 67.9808 249.587 67.8885 249.31 67.8885C248.896 67.8885 248.564 68.0956 248.316 68.5099C248.067 68.9242 247.942 69.5445 247.939 70.3707C247.939 70.9295 247.995 71.3958 248.106 71.7699C248.22 72.1416 248.38 72.4209 248.586 72.608C248.792 72.7926 249.033 72.8849 249.31 72.8849ZM255.907 70.3636C255.907 71.2467 255.789 72.0587 255.552 72.7997C255.318 73.5407 254.958 74.2273 254.473 74.8594H253.027C253.212 74.625 253.384 74.3385 253.542 74C253.701 73.6615 253.839 73.2921 253.958 72.892C254.076 72.4896 254.168 72.0729 254.235 71.642C254.301 71.2112 254.334 70.785 254.334 70.3636C254.334 69.8026 254.276 69.2367 254.16 68.6662C254.047 68.0933 253.89 67.563 253.691 67.0753C253.495 66.5852 253.274 66.1839 253.027 65.8714H254.473C254.958 66.5036 255.318 67.1901 255.552 67.9311C255.789 68.6721 255.907 69.483 255.907 70.3636Z" fill="#0C0F1E"/>
</svg>
