<svg width="1512" height="792" viewBox="0 0 1512 792" fill="none" xmlns="http://www.w3.org/2000/svg">
<path d="M1389.17 224.47C1308.56 185.305 1148.42 181.899 1025.9 183.034C903.381 184.737 818.476 190.981 698.105 159.762C578.808 127.975 424.045 59.293 355.261 74.0511C297.784 86.1934 115.048 -5.87893 -0.00012207 0.302002C-0.00012207 27.5 -0.00012207 37 -0.00012207 61.5C-0.00012207 168 -0.00012207 330.025 -0.00012207 422C-0.00012207 488.525 -0.00012207 473 -0.00012207 566.344C21.6279 576.55 44.4087 586.222 67.2288 595.126C186.526 641.103 306.897 666.078 418.671 702.406C529.37 738.733 631.47 786.414 737.87 791.522C845.345 796.631 958.194 759.735 1106.51 734.76C1230.91 713.659 1416.57 789.887 1512 782.886C1512 754.5 1512 645 1512 624C1512 552 1512 559.5 1512 460.134C1506.68 445.159 1502.09 431.837 1498.79 420.867C1473 337.994 1470.85 263.636 1389.17 224.47Z" fill="#EB6B22"/>
</svg>
